<svg width="377" height="43" viewBox="0 0 377 43" fill="none" xmlns="http://www.w3.org/2000/svg">
<path d="M77.1656 27.5722C77.1656 33.3166 73.1959 36.8193 66.3307 36.8193H52.2266V4.1543H66.1439C72.4954 4.1543 76.0915 7.18996 76.0915 12.5607C76.0915 15.8966 74.6904 18.0249 71.7482 19.3793C75.4376 20.4668 77.1656 23.5958 77.1656 27.5722ZM65.49 9.1648H57.4839V17.5712H65.49C69.3196 17.5712 70.7207 16.03 70.7207 13.368C70.7674 10.5192 69.2729 9.1648 65.49 9.1648ZM71.8416 27.1786C71.8416 24.183 70.4405 22.455 66.1439 22.455H57.5039V31.7954H66.1772C70.4872 31.7754 71.8416 29.954 71.8416 27.1519V27.1786Z" fill="#DFDCFF"/>
<path d="M106.388 11.1255V36.8452H101.111V32.5486C100.168 34.0691 98.8455 35.3171 97.2727 36.169C95.6999 37.0209 93.9319 37.4472 92.1437 37.4056C85.2784 37.4056 80.2812 31.848 80.2812 23.9954C80.2812 16.1427 85.3718 10.5918 92.097 10.5918C93.8957 10.5569 95.6726 10.9906 97.2529 11.8504C98.8333 12.7102 100.163 13.9664 101.111 15.4955V11.1055L106.388 11.1255ZM101.157 23.9687C101.157 19.065 97.748 15.609 93.2645 15.609C88.7811 15.609 85.6053 19.065 85.6053 23.9687C85.6053 28.8725 88.8278 32.3351 93.2645 32.3351C97.7013 32.3351 101.157 28.9258 101.157 23.9687Z" fill="#DFDCFF"/>
<path d="M135.292 20.6058V36.8449H130.028V21.68C130.028 17.7103 128.3 15.6087 124.423 15.6087C119.893 15.6087 117.465 18.5509 117.465 23.5014V36.8449H112.188V11.1252H117.465V15.3751C118.315 13.8673 119.563 12.6216 121.072 11.7735C122.582 10.9254 124.295 10.5073 126.025 10.5648C131.836 10.5648 135.292 14.3477 135.292 20.6058Z" fill="#DFDCFF"/>
<path d="M163.969 20.6058V36.8449H158.718V21.68C158.718 17.7103 156.99 15.6087 153.114 15.6087C148.584 15.6087 146.155 18.5509 146.155 23.5014V36.8449H140.871V11.1252H146.155V15.3751C147.006 13.8673 148.253 12.6216 149.763 11.7735C151.272 10.9254 152.985 10.5073 154.715 10.5648C160.513 10.5648 163.969 14.3477 163.969 20.6058Z" fill="#DFDCFF"/>
<path d="M194.933 25.4232H174.064C174.491 30.1402 177.807 32.7622 182.07 32.7622C185.152 32.7622 187.721 31.4278 188.935 28.9326H194.399C192.398 34.677 187.487 37.3857 182.023 37.3857C174.224 37.3857 168.68 31.7814 168.68 24.0422C168.68 16.3029 174.191 10.5919 181.95 10.5919C190.216 10.5652 195.447 16.9634 194.933 25.4232ZM174.331 21.1199H189.282C188.488 17.6173 185.826 15.1153 181.943 15.1153C180.174 15.0729 178.445 15.6496 177.055 16.7459C175.665 17.8421 174.702 19.3891 174.331 21.1199Z" fill="#DFDCFF"/>
<path d="M215.063 10.705V16.0758C214.536 16.0142 214.006 15.983 213.475 15.9824C208.665 15.9824 204.969 18.6911 204.969 25.0427V36.845H199.691V11.1254H204.969V16.2159C205.625 14.4985 206.804 13.0299 208.338 12.0164C209.872 11.0028 211.685 10.4952 213.522 10.5649C214.039 10.5517 214.557 10.5987 215.063 10.705Z" fill="#DFDCFF"/>
<path d="M244.579 27.5722C244.579 33.3166 240.576 36.8193 233.744 36.8193H219.633V4.1543H233.557C239.908 4.1543 243.504 7.18996 243.504 12.5607C243.504 15.8966 242.103 18.0249 239.161 19.3793C242.851 20.4668 244.579 23.5958 244.579 27.5722ZM232.903 9.1648H224.897V17.5712H232.903C236.733 17.5712 238.134 16.03 238.134 13.368C238.18 10.5192 236.686 9.1648 232.903 9.1648ZM239.255 27.1786C239.255 24.183 237.853 22.455 233.557 22.455H224.883V31.7954H233.557C237.9 31.7754 239.255 29.954 239.255 27.1519V27.1786Z" fill="#DFDCFF"/>
<path d="M273.801 11.1247V36.8444H268.523V32.5477C267.58 34.0688 266.256 35.317 264.682 36.1689C263.108 37.0209 261.339 37.4469 259.55 37.4048C252.685 37.4048 247.688 31.8472 247.688 23.9945C247.688 16.1419 252.778 10.5909 259.503 10.5909C261.303 10.5549 263.081 10.9881 264.663 11.8479C266.245 12.7077 267.575 13.9646 268.523 15.4947V11.1047L273.801 11.1247ZM268.57 23.9679C268.57 19.0641 265.161 15.6081 260.671 15.6081C256.181 15.6081 253.012 19.0641 253.012 23.9679C253.012 28.8716 256.234 32.3342 260.671 32.3342C265.108 32.3342 268.57 28.925 268.57 23.9679Z" fill="#DFDCFF"/>
<path d="M297.19 36.8448L285.094 24.9824V36.8448H279.816V0.850586H285.094V22.2403L296.209 11.1251H302.987L290.418 23.3144L304.015 36.8448H297.19Z" fill="#DFDCFF"/>
<path d="M330.501 25.4232H309.618C310.039 30.1402 313.355 32.7622 317.625 32.7622C320.707 32.7622 323.282 31.4278 324.49 28.9326H329.961C327.959 34.677 323.042 37.3857 317.578 37.3857C309.779 37.3857 304.234 31.7814 304.234 24.0422C304.234 16.3029 309.745 10.5919 317.498 10.5919C325.784 10.5652 331.015 16.9634 330.501 25.4232ZM309.899 21.1199H324.85C324.05 17.6173 321.388 15.1153 317.511 15.1153C315.741 15.0703 314.011 15.6461 312.62 16.7427C311.23 17.8394 310.267 19.3879 309.899 21.1199Z" fill="#DFDCFF"/>
<path d="M350.626 10.7052V16.076C350.096 16.0144 349.564 15.9833 349.031 15.9826C344.221 15.9826 340.531 18.6913 340.531 25.0428V36.8452H335.254V11.1255H340.531V16.2161C341.187 14.4981 342.365 13.0289 343.899 12.0153C345.434 11.0016 347.247 10.4944 349.085 10.5651C349.602 10.5519 350.119 10.5989 350.626 10.7052Z" fill="#DFDCFF"/>
<path d="M352.52 28.5516H357.857C358.651 31.4004 360.752 32.708 365.196 32.708C368.605 32.708 370.707 31.6806 370.707 29.7658C370.707 27.6175 368.278 27.2906 363.982 26.2565C356.789 24.4818 353.754 23.034 353.754 18.7374C353.754 13.5534 358.144 10.5645 364.589 10.5645C371.174 10.5645 374.863 13.6935 375.797 18.3638H370.46C369.713 16.2621 367.751 15.2347 364.455 15.2347C361.046 15.2347 359.038 16.4023 359.038 18.1769C359.038 19.8115 360.626 20.2318 365.109 21.306C372.068 22.9406 376.091 24.1549 376.091 29.1587C376.091 34.6696 371.134 37.3783 365.062 37.3783C358.357 37.3783 353.534 34.1091 352.52 28.5516Z" fill="#DFDCFF"/>
<path d="M10.3145 21.3664C16.0111 21.3664 20.6291 16.7484 20.6291 11.0519C20.6291 5.35528 16.0111 0.737305 10.3145 0.737305C4.61798 0.737305 0 5.35528 0 11.0519C0 16.7484 4.61798 21.3664 10.3145 21.3664Z" fill="#DFDCFF"/>
<path d="M10.3145 42.2619C16.0111 42.2619 20.6291 37.6439 20.6291 31.9474C20.6291 26.2508 16.0111 21.6328 10.3145 21.6328C4.61798 21.6328 0 26.2508 0 31.9474C0 37.6439 4.61798 42.2619 10.3145 42.2619Z" fill="#DFDCFF"/>
<path d="M31.0021 21.3664C36.6986 21.3664 41.3166 16.7484 41.3166 11.0519C41.3166 5.35528 36.6986 0.737305 31.0021 0.737305C25.3055 0.737305 20.6875 5.35528 20.6875 11.0519C20.6875 16.7484 25.3055 21.3664 31.0021 21.3664Z" fill="#DFDCFF"/>
<path d="M31.0021 42.2619C36.6986 42.2619 41.3166 37.6439 41.3166 31.9474C41.3166 26.2508 36.6986 21.6328 31.0021 21.6328C25.3055 21.6328 20.6875 26.2508 20.6875 31.9474C20.6875 37.6439 25.3055 42.2619 31.0021 42.2619Z" fill="#DFDCFF"/>
</svg>
