<svg width="229" height="472" viewBox="0 0 229 472" fill="none" xmlns="http://www.w3.org/2000/svg">
<path d="M69.1624 139.959L68.9315 98.6245C68.9315 95.3916 69.682 92.4474 71.1829 89.7918C72.6839 87.1362 74.7814 84.8463 77.4755 82.9219L88.3288 75.3016C88.9446 85.1542 90.1954 93.9869 92.0812 101.8C93.9671 109.612 96.7574 118.137 100.452 127.374L69.1624 139.959ZM107.957 123.564C104.108 113.557 101.26 104.128 99.413 95.2762C97.5656 86.4242 96.6419 77.9187 96.6419 69.7595C96.6419 56.3661 99.5861 43.3768 105.475 30.7917C111.363 18.2065 119.118 8.25768 128.74 0.945199C138.515 8.25768 146.348 18.168 152.236 30.6762C158.124 43.1844 161.069 56.1352 161.069 69.5285C161.069 77.8417 160.126 86.4435 158.24 95.3339C156.354 104.224 153.525 113.634 149.754 123.564L107.957 123.564ZM128.74 71.3759C131.665 71.3759 134.166 70.3368 136.245 68.2585C138.323 66.1802 139.362 63.6786 139.362 60.7536C139.285 57.9056 138.227 55.4617 136.187 53.4219C134.147 51.3821 131.703 50.3237 128.855 50.2467C126.007 50.3237 123.544 51.4013 121.466 53.4796C119.388 55.5579 118.31 58.021 118.233 60.869C118.31 63.717 119.368 66.161 121.408 68.2008C123.448 70.2405 125.892 71.2989 128.74 71.3759ZM188.433 139.844L157.028 127.374C160.799 118.214 163.59 109.728 165.398 101.915C167.207 94.1023 168.497 85.2696 169.266 75.417L180.12 83.0374C182.891 84.8847 185.007 87.1555 186.47 89.8495C187.932 92.5436 188.625 95.4686 188.548 98.6245L188.433 139.844Z" fill="#5D50FF"/>
<path d="M112.69 143.192C108.072 147.733 105.762 153.237 105.762 159.703C105.762 164.783 107.667 170.806 111.478 177.772C115.288 184.738 121.196 193.148 129.201 203C137.206 193.148 143.114 184.738 146.924 177.772C150.734 170.806 152.639 164.783 152.639 159.703C152.639 153.237 150.33 147.733 145.712 143.192C141.093 138.65 135.59 136.341 129.201 136.264C122.812 136.341 117.308 138.65 112.69 143.192Z" fill="#5D50FF"/>
<path d="M66.1467 356.379L70.8996 184.676C70.9737 181.999 68.8242 179.789 66.1466 179.789C63.4691 179.789 61.3196 181.999 61.3937 184.676L66.1467 356.379Z" fill="#5D50FF" fill-opacity="0.2"/>
<path d="M193.518 454.16L200.903 187.381C201.018 183.223 197.678 179.789 193.518 179.789C189.358 179.789 186.018 183.223 186.133 187.381L193.518 454.16Z" fill="#5D50FF" fill-opacity="0.2"/>
<path d="M129.637 467L134.521 241.528C134.581 238.789 132.376 236.536 129.637 236.536C126.897 236.536 124.692 238.789 124.752 241.528L129.637 467Z" fill="#5D50FF" fill-opacity="0.2"/>
<path d="M92.9429 365.269L95.8816 214.797C95.9138 213.151 94.5887 211.8 92.9429 211.8C91.2971 211.8 89.972 213.151 90.0042 214.797L92.9429 365.269Z" fill="#5D50FF" fill-opacity="0.2"/>
<path d="M164.145 381.071L167.247 222.239C167.28 220.502 165.882 219.076 164.145 219.076C162.407 219.076 161.009 220.502 161.042 222.239L164.145 381.071Z" fill="#5D50FF" fill-opacity="0.2"/>
<path d="M30.4002 408.131L33.0326 313.032C33.0737 311.549 31.8831 310.325 30.4001 310.325C28.9172 310.325 27.7266 311.549 27.7677 313.032L30.4002 408.131Z" fill="#5D50FF" fill-opacity="0.2"/>
<path d="M100.946 471.149L105.036 323.392C105.1 321.089 103.25 319.187 100.946 319.187C98.6418 319.187 96.7921 321.089 96.8558 323.392L100.946 471.149Z" fill="#5D50FF" fill-opacity="0.2"/>
<path d="M65.5644 466.77L68.27 341.891C68.3029 340.374 67.082 339.126 65.5644 339.126C64.0469 339.126 62.826 340.374 62.8588 341.891L65.5644 466.77Z" fill="#5D50FF" fill-opacity="0.2"/>
<path d="M45.2417 421.917L46.8693 338.577C46.8871 337.665 46.1532 336.917 45.2417 336.917C44.3302 336.917 43.5963 337.665 43.6141 338.577L45.2417 421.917Z" fill="#5D50FF" fill-opacity="0.2"/>
<path d="M84.6772 430.668L86.3953 342.698C86.4141 341.736 85.6394 340.946 84.6772 340.946C83.715 340.946 82.9403 341.736 82.9591 342.698L84.6772 430.668Z" fill="#5D50FF" fill-opacity="0.2"/>
<path d="M55.6092 320.119L55.6073 297.334L44.562 297.334C43.6085 297.334 42.7198 296.838 42.2125 296.026C41.7091 295.21 41.6633 294.195 42.0924 293.339L64.185 249.152C64.6522 248.216 65.6095 247.624 66.6546 247.624C67.6958 247.624 68.6627 248.21 69.1242 249.152L91.2168 293.339C91.6459 294.195 91.6001 295.21 91.0966 296.026C90.5932 296.838 89.7046 297.334 88.7472 297.334L77.7019 297.334L77.7 320.119C77.7 321.644 76.4642 322.88 74.9387 322.88H58.3707C56.8448 322.88 55.6091 321.645 55.6092 320.119Z" fill="#5D50FF"/>
<path d="M76.4181 240.008C75.3388 238.929 75.3388 237.182 76.4181 236.102L88.1347 224.386C89.2141 223.307 90.9609 223.307 92.0402 224.386C93.1196 225.465 93.1196 227.212 92.0402 228.291L80.3237 240.008C79.2443 241.087 77.4975 241.087 76.4181 240.008Z" fill="#5D50FF"/>
<path d="M63.893 233.204L63.893 216.632C63.893 215.107 65.1288 213.871 66.6543 213.871C68.1798 213.871 69.4156 215.107 69.4156 216.632L69.4156 233.204C69.4156 234.729 68.1798 235.965 66.6543 235.965C65.1287 235.965 63.893 234.729 63.893 233.204Z" fill="#5D50FF"/>
<path d="M30.7536 249.772C30.7536 248.247 31.9894 247.011 33.5149 247.011L50.0866 247.011C51.6121 247.011 52.8479 248.247 52.8479 249.772C52.8479 251.298 51.6121 252.534 50.0866 252.534L33.5149 252.534C31.9894 252.534 30.7537 251.298 30.7536 249.772Z" fill="#5D50FF"/>
<path d="M80.4607 249.771C80.4607 248.246 81.6965 247.01 83.222 247.01L99.7936 247.01C101.319 247.01 102.555 248.246 102.555 249.771C102.555 251.297 101.319 252.533 99.7936 252.533L83.222 252.533C81.6965 252.533 80.4608 251.297 80.4607 249.771Z" fill="#5D50FF"/>
<path d="M52.9849 240.008L41.2684 228.291C40.189 227.212 40.189 225.465 41.2684 224.386C42.3477 223.307 44.0945 223.307 45.1739 224.386L56.8905 236.102C57.9698 237.182 57.9698 238.929 56.8905 240.008C55.8111 241.087 54.0643 241.087 52.9849 240.008Z" fill="#5D50FF"/>
<path d="M150.341 425.174L151.816 371.891C151.839 371.06 151.172 370.374 150.341 370.374C149.51 370.374 148.843 371.06 148.866 371.891L150.341 425.174Z" fill="#5D50FF" fill-opacity="0.2"/>
<path d="M189.867 460.482L192.159 377.696C192.195 376.405 191.158 375.34 189.867 375.34C188.576 375.34 187.54 376.405 187.576 377.696L189.867 460.482Z" fill="#5D50FF" fill-opacity="0.2"/>
<path d="M170.044 458.029L171.56 388.06C171.578 387.21 170.894 386.511 170.044 386.511C169.193 386.511 168.509 387.21 168.528 388.06L170.044 458.029Z" fill="#5D50FF" fill-opacity="0.2"/>
<path d="M158.657 432.898L159.569 386.204C159.579 385.693 159.168 385.274 158.657 385.274C158.146 385.274 157.735 385.693 157.745 386.204L158.657 432.898Z" fill="#5D50FF" fill-opacity="0.2"/>
<path d="M180.752 437.802L181.715 388.513C181.725 387.974 181.291 387.531 180.752 387.531C180.213 387.531 179.779 387.974 179.79 388.513L180.752 437.802Z" fill="#5D50FF" fill-opacity="0.2"/>
<path d="M164.466 375.862L164.465 363.096L158.276 363.096C157.742 363.096 157.244 362.818 156.96 362.363C156.678 361.905 156.652 361.337 156.892 360.857L169.271 336.1C169.533 335.575 170.069 335.244 170.654 335.244C171.238 335.244 171.78 335.572 172.038 336.1L184.416 360.857C184.657 361.337 184.631 361.905 184.349 362.363C184.067 362.818 183.569 363.096 183.033 363.096H176.844L176.843 375.862C176.843 376.716 176.151 377.409 175.296 377.409L166.013 377.409C165.158 377.409 164.466 376.717 164.466 375.862Z" fill="#5D50FF"/>
<path d="M176.125 330.976C175.52 330.372 175.52 329.393 176.125 328.788L182.69 322.224C183.294 321.619 184.273 321.619 184.878 322.224C185.482 322.828 185.482 323.807 184.878 324.412L178.313 330.976C177.708 331.581 176.73 331.581 176.125 330.976Z" fill="#5D50FF"/>
<path d="M169.107 327.164L169.107 317.879C169.107 317.024 169.8 316.332 170.654 316.332C171.509 316.332 172.201 317.024 172.201 317.879L172.201 327.164C172.201 328.019 171.509 328.711 170.654 328.711C169.8 328.711 169.107 328.019 169.107 327.164Z" fill="#5D50FF"/>
<path d="M150.54 336.447C150.54 335.592 151.232 334.9 152.087 334.9L161.372 334.9C162.226 334.9 162.919 335.592 162.919 336.447C162.919 337.302 162.226 337.994 161.372 337.994L152.087 337.994C151.232 337.994 150.54 337.302 150.54 336.447Z" fill="#5D50FF"/>
<path d="M178.39 336.446C178.39 335.592 179.082 334.899 179.937 334.899L189.222 334.899C190.077 334.899 190.769 335.592 190.769 336.446C190.769 337.301 190.077 337.994 189.222 337.994L179.937 337.994C179.082 337.994 178.39 337.301 178.39 336.446Z" fill="#5D50FF"/>
<path d="M162.996 330.976L156.431 324.412C155.826 323.807 155.826 322.828 156.431 322.224C157.036 321.619 158.014 321.619 158.619 322.224L165.184 328.788C165.788 329.393 165.788 330.372 165.184 330.976C164.579 331.581 163.6 331.581 162.996 330.976Z" fill="#5D50FF"/>
</svg>
