<svg width="124" height="23" viewBox="0 0 124 23" fill="none" xmlns="http://www.w3.org/2000/svg">
<path d="M24.8502 11.2714C24.8502 5.04835 19.9557 0 13.5788 0C9.34155 0 5.66366 2.3214 3.73382 5.77554L9.22967 11.2714C9.22967 8.86608 11.2574 6.92225 13.5788 6.92225C16.04 6.92225 17.9279 8.86608 17.9279 11.2714C17.9279 13.6767 16.0261 15.6205 13.5788 15.6205H13.5648H4.20929C1.88789 15.6205 0 17.5084 0 19.8298V22.5428H13.5788C19.9137 22.5428 24.8502 17.4944 24.8502 11.2714Z" fill="#0DBDFF"/>
<path d="M76.2008 9.94287H81.4589C83.5006 9.94287 84.5634 8.97795 84.5634 7.17397C84.5634 5.34202 83.5006 4.3771 81.4589 4.3771H76.2008V9.94287ZM79.2354 14.334H76.2008V22.5428H71.4881V2.53117C71.4881 1.13273 72.6208 0 74.0332 0H81.5988C86.4793 0 89.444 2.93671 89.444 7.146C89.444 10.5302 87.5421 13.1033 84.2418 14.0123L90.1152 22.5428H84.4655L79.2354 14.334ZM123.999 21.9414C123.076 22.5428 121.986 22.9623 120.811 22.9623C117.566 22.9623 116.042 20.7388 116.042 17.5783V1.17469L120.503 0.111875V17.6203C120.503 18.5013 120.937 19.0467 121.72 19.0467C121.958 19.0467 122.223 18.9907 122.475 18.8789L123.999 21.9414ZM116.21 21.9414C115.287 22.5428 114.196 22.9623 113.022 22.9623C109.777 22.9623 108.253 20.7388 108.253 17.5783V3.0346L112.714 1.92984V17.6203C112.714 18.5013 113.147 19.0467 113.931 19.0467C114.168 19.0467 114.434 18.9907 114.686 18.8789L116.21 21.9414ZM102.212 14.3899C102.212 11.7748 100.534 9.97084 98.0164 9.97084C95.4992 9.97084 93.8211 11.7469 93.8211 14.3899C93.8211 17.0329 95.4992 18.8089 98.0164 18.8089C100.534 18.8089 102.212 17.0329 102.212 14.3899ZM89.2622 14.3899C89.2622 9.36951 92.9401 5.85944 98.0164 5.85944C103.093 5.85944 106.799 9.34155 106.799 14.3899C106.799 19.4522 103.079 22.9623 98.0164 22.9623C92.9401 22.9623 89.2622 19.4522 89.2622 14.3899ZM37.8557 13.439L41.0721 4.8246L44.2885 13.439H37.8557ZM37.6879 1.59422L29.4371 22.5428H34.4435L36.2056 17.8161H45.9247L47.6867 22.5428H52.6931L43.813 0H40.0513C39.0164 0 38.0795 0.629296 37.6879 1.59422ZM60.7201 18.8089C58.2309 18.8089 56.5248 17.0329 56.5248 14.3899C56.5248 11.7469 58.2309 9.97084 60.7201 9.97084C63.2093 9.97084 64.9154 11.7469 64.9154 14.3899C64.9154 17.1029 63.1674 18.8089 60.7201 18.8089ZM64.6218 7.88717C63.517 6.60061 61.8389 5.85944 59.8111 5.85944C55.448 5.85944 51.9659 9.34155 51.9659 14.3619C51.9659 19.4243 55.448 22.9623 59.6853 22.9623C61.9507 22.9623 63.7268 21.9694 64.8595 20.3193L65.0553 22.5428H69.0548V0H67.1669C65.7685 0 64.6218 1.13273 64.6218 2.53117V7.88717Z" fill="black"/>
</svg>
