<svg width="139" height="39" viewBox="0 0 139 39" fill="none" xmlns="http://www.w3.org/2000/svg">
<path d="M7.42301 20.5291C7.42301 20.24 7.51942 19.9508 7.71221 19.758C7.03745 19.6616 6.45908 19.3724 6.45908 18.6977C6.45908 18.0229 7.03745 17.7337 7.71221 17.5409C7.42303 17.3482 7.32664 17.059 7.32664 16.7698C7.42303 15.2275 10.604 16.577 10.604 16.577V20.5291C10.604 20.6255 7.5194 21.975 7.42301 20.5291Z" fill="url(#paint0_linear_0_2268)"/>
<path d="M7.8084 27.7585C7.8084 27.5657 7.90478 27.3729 8.00117 27.2765C7.5192 27.1801 7.13364 26.9873 7.13364 26.5054C7.13364 26.0234 7.5192 25.8306 8.00117 25.7342C7.80839 25.6378 7.712 25.445 7.712 25.2522C7.712 24.1919 9.92904 25.1559 9.92904 25.1559V27.8549C9.92904 27.8549 7.8084 28.8188 7.8084 27.7585Z" fill="url(#paint1_linear_0_2268)"/>
<path d="M6.84453 10.7932C6.94092 10.504 7.23008 10.2149 7.51926 10.1185C6.74811 9.63649 6.26615 9.05814 6.65173 8.28699C7.0373 7.51584 7.80845 7.41944 8.5796 7.70862C8.38681 7.41944 8.38681 7.03387 8.5796 6.74469C9.35074 5.106 12.2425 8.19059 12.2425 8.19059L11.6642 9.54009L11.5678 9.73289L10.893 11.2752L10.7966 11.468L10.2183 12.7211C10.3147 12.6247 6.16977 12.5283 6.84453 10.7932Z" fill="url(#paint2_linear_0_2268)"/>
<path d="M12.4353 36.1448C12.4353 36.1448 7.03722 38.4583 4.14542 36.1448L5.01295 34.6025H11.3749C11.4713 34.6025 12.9172 34.8917 12.9172 34.8917L12.4353 36.1448Z" fill="#D6753E"/>
<path d="M22.653 24.7703C23.4241 25.2523 25.4484 26.0235 24.6772 27.9513C24.3881 28.4333 24.0025 28.9153 23.6169 29.2044C22.9422 29.6864 23.5205 29.8792 23.9061 29.7828C24.2916 29.7828 29.0149 28.7225 26.7979 24.7703C26.4123 23.9992 24.5808 22.4569 22.9421 22.7461C21.3034 23.0353 22.2674 24.5776 22.653 24.7703Z" fill="url(#paint3_linear_0_2268)"/>
<path d="M9.92908 22.6497V27.373C9.92908 27.373 9.54352 32.771 6.36253 32.771C6.36253 32.771 0.868096 33.3494 0.000554732 25.2523C0.000554732 25.2523 -0.288638 41.4464 12.3389 35.6628L12.8209 38.3619L16.0019 34.2169L21.3999 34.7953L23.4242 37.7835L23.7134 22.0714C23.7134 22.0714 33.5455 23.4209 35.2806 23.6137C35.2806 23.6137 38.7507 3.08184 25.834 2.21429C8.77235 0.286424 10.0255 14.2635 10.0255 14.2635L9.92908 22.6497Z" fill="url(#paint4_linear_0_2268)"/>
<path d="M14.6523 18.4084C14.7486 15.4202 15.327 14.4563 16.0018 14.4563C16.6765 14.4563 17.3513 16.9625 17.3513 20.1435L14.6523 18.4084Z" fill="#EDEDBB"/>
<path d="M21.689 13.8777C21.689 14.5524 22.7493 15.0344 24.0988 15.0344C25.4483 15.0344 26.5087 14.456 26.5087 13.8777C26.5087 13.2993 25.4483 12.7209 24.0988 12.7209C22.7493 12.7209 21.689 13.2029 21.689 13.8777Z" fill="#D69547"/>
<path d="M29.1115 13.685C29.0151 13.9742 29.4007 14.3598 29.9791 14.5525C30.5574 14.6489 31.0394 14.5525 31.1358 14.167C31.2322 13.7814 30.7502 13.3958 30.2682 13.2994C29.6899 13.203 29.1115 13.2994 29.1115 13.685Z" fill="#D69547"/>
<path d="M19.3757 14.8417C19.3757 15.0345 19.5685 15.3237 20.0504 15.42C20.436 15.5164 20.8216 15.42 20.918 15.2272C20.918 15.0345 20.7252 14.7453 20.2432 14.6489C19.7613 14.4561 19.3757 14.5525 19.3757 14.8417Z" fill="#D69547"/>
<path d="M24.099 15.9984C24.0026 16.1912 24.2918 16.4804 24.6774 16.5768C25.0629 16.6732 25.4485 16.5768 25.5449 16.384C25.6413 16.1912 25.3521 15.902 24.9665 15.8056C24.581 15.7092 24.099 15.8056 24.099 15.9984Z" fill="#D69547"/>
<path d="M17.6405 24.7702C17.6405 24.7702 17.0621 26.5053 16.1946 26.9873C16.773 27.7584 17.8333 28.5296 18.99 26.7945C18.4116 26.2161 18.0261 25.5413 17.7369 24.7702C17.7369 24.7702 19.5684 28.626 21.4962 24.6738C21.4962 24.6738 20.5323 27.8548 19.0864 26.7945C18.6044 27.9512 17.4477 29.4935 16.0982 26.8909C15.5198 27.18 14.7487 26.6981 13.8812 24.6738C13.8812 24.8666 15.7126 28.8187 17.6405 24.7702Z" fill="#D6721E"/>
<path d="M24.9665 6.16632C24.8701 4.14206 23.2314 2.50336 21.1107 2.59975C20.6288 2.59975 20.1468 2.69616 19.7612 2.88895C18.4117 3.46731 17.5442 4.81682 17.4478 6.26272C17.4478 7.51584 18.0261 8.67254 19.0865 9.3473C21.0143 10.4076 23.4242 9.73289 24.4845 7.80502C24.4845 7.70863 24.5809 7.70862 24.5809 7.61222C24.8701 7.13026 24.9665 6.64829 24.9665 6.16632Z" fill="#D6753E"/>
<path d="M24.6774 5.78089C24.581 3.85302 23.0387 2.31072 21.1109 2.40712C20.6289 2.40712 20.2433 2.5035 19.8578 2.69629C18.6046 3.27465 17.7371 4.43139 17.7371 5.87729C17.6407 7.03401 18.3155 8.19071 19.2794 8.86547C21.1109 9.92579 23.3279 9.25104 24.3882 7.41956C24.3882 7.32317 24.4846 7.32319 24.4846 7.22679C24.581 6.74483 24.6774 6.26286 24.6774 5.78089Z" fill="#EDEDBB"/>
<path d="M19.6649 6.55211C19.6649 7.32326 20.2433 7.90162 21.0144 7.90162C21.7856 7.90162 22.3639 7.32326 22.3639 6.55211C22.3639 5.78097 21.7856 5.20261 21.0144 5.20261C20.3397 5.10622 19.7613 5.68457 19.6649 6.55211C19.6649 6.45572 19.6649 6.45572 19.6649 6.55211Z" fill="#9E512B"/>
<path d="M20.1468 6.35913C20.1468 6.8411 20.5324 7.22667 21.0143 7.22667C21.4963 7.22667 21.8819 6.8411 21.8819 6.35913C21.8819 5.87717 21.4963 5.49157 21.0143 5.49157C20.6288 5.39517 20.2432 5.78077 20.1468 6.35913C20.2432 6.26274 20.1468 6.26274 20.1468 6.35913Z" fill="#542713"/>
<path d="M19.7611 5.29879C19.7611 5.68436 20.0502 5.97353 20.4358 5.97353C20.8214 5.97353 21.1106 5.68436 21.1106 5.29879C21.1106 4.91322 20.8214 4.62402 20.4358 4.62402C20.0502 4.62402 19.7611 4.91322 19.7611 5.29879Z" fill="white"/>
<path d="M20.4359 10.6971C21.9782 10.6971 23.5205 10.1187 24.6772 9.05835C22.9421 11.3718 19.6647 11.8538 17.3513 10.1187C16.9657 9.8295 16.5801 9.44392 16.291 9.05835C17.3513 10.1187 18.8936 10.6971 20.4359 10.6971Z" fill="#D69547"/>
<path d="M20.9178 10.0221C22.1709 10.0221 23.424 9.44371 24.2916 8.57617C22.9421 10.504 20.2431 10.986 18.3152 9.63651C17.9296 9.34733 17.6404 9.05815 17.3513 8.76897C18.4116 9.63651 19.6647 10.1185 20.9178 10.0221Z" fill="#D69547"/>
<path d="M21.2073 21.6859C22.9424 22.1678 24.7739 22.5534 26.6053 22.8426C28.244 23.1318 29.7863 23.3246 31.0394 23.4209C33.5456 23.7101 35.1843 23.7101 35.1843 23.7101C35.1843 23.7101 33.642 23.5174 31.1358 23.1318C29.8827 22.939 28.3404 22.6498 26.7017 22.3606C25.063 22.0714 23.2315 21.5895 21.4001 21.1075C19.665 20.6255 17.9299 19.9508 16.3876 19.1796C15.7129 18.7941 15.0381 18.4085 14.4597 17.9265C13.8814 17.4446 13.4958 16.9626 13.1102 16.2878C12.8211 15.8059 12.7246 15.2275 12.7246 14.6491V13.9744C12.7246 13.878 12.7246 13.7816 12.821 13.6852C12.9174 13.5888 12.9174 13.4924 12.9174 13.396C13.0138 13.1068 13.1102 12.9141 13.2066 12.6249L13.303 12.3357L13.1102 12.6249C12.9175 12.8177 12.821 13.1068 12.7246 13.396C12.7246 13.4924 12.6283 13.5888 12.6283 13.6852C12.6283 13.7816 12.5319 13.878 12.5319 13.9744C12.5319 14.0708 12.4355 14.1672 12.4355 14.36V14.7455C12.3391 15.3239 12.4355 15.9023 12.7246 16.4806C13.0138 17.1554 13.4958 17.7337 13.9778 18.3121C14.5561 18.8905 15.2309 19.3724 16.002 19.758C17.7371 20.5292 19.4722 21.2039 21.2073 21.6859Z" fill="#D6753E"/>
<mask id="mask0_0_2268" style="mask-type:luminance" maskUnits="userSpaceOnUse" x="26" y="3" width="11" height="9">
<path fill-rule="evenodd" clip-rule="evenodd" d="M26.1232 11.179H35.6662L36.0518 3.37109L26.1232 5.39536V11.179Z" fill="white"/>
</mask>
<g mask="url(#mask0_0_2268)">
<path d="M26.3166 6.26232C26.413 8.19019 27.9553 9.73249 29.8832 9.63609C30.3651 9.63609 30.7507 9.53968 31.1363 9.3469C32.3894 8.76854 33.2569 7.61182 33.2569 6.16592C33.2569 5.0092 32.6786 3.85247 31.7146 3.17772C29.8832 2.11739 27.6661 2.79214 26.6058 4.62362C26.6058 4.72001 26.5094 4.72003 26.5094 4.81642C26.413 5.29839 26.3166 5.78035 26.3166 6.26232Z" fill="#D6753E"/>
<path d="M26.4131 5.87688C26.4131 7.70836 28.0518 9.25065 29.8833 9.15426C30.3653 9.15426 30.7508 9.05785 31.1364 8.86506C32.3895 8.2867 33.1607 7.12999 33.2571 5.78048C33.2571 4.62376 32.6787 3.56343 31.7148 2.88868C29.9797 1.92474 27.7626 2.5031 26.7987 4.23818C26.7987 4.33457 26.7023 4.43098 26.7023 4.43098C26.5095 4.91295 26.4131 5.39492 26.4131 5.87688Z" fill="#EDEDBB"/>
<path d="M30.0759 7.90115C30.8212 7.90115 31.4254 7.29697 31.4254 6.55165C31.4254 5.80634 30.8212 5.20215 30.0759 5.20215C29.3306 5.20215 28.7264 5.80634 28.7264 6.55165C28.7264 7.29697 29.3306 7.90115 30.0759 7.90115Z" fill="#9E512B"/>
<path d="M29.1118 6.35889C29.1118 6.84086 29.4974 7.22642 29.9794 7.22642C30.4613 7.22642 30.8469 6.84086 30.8469 6.35889C30.8469 5.87692 30.4613 5.49132 29.9794 5.49132C29.5938 5.39493 29.1118 5.78053 29.1118 6.35889Z" fill="#542713"/>
<path d="M30.5577 10.5039C31.9072 10.6967 33.2567 10.3111 34.4135 9.53994C32.6784 11.3714 29.7866 11.5642 27.8587 9.8291C27.5695 9.53992 27.2804 9.15437 26.9912 8.7688C27.9551 9.73273 29.2082 10.4075 30.5577 10.5039Z" fill="#D69547"/>
<path d="M28.7264 5.29855C28.7264 5.68412 29.0156 5.97328 29.4012 5.97328C29.7868 5.97328 30.0759 5.68412 30.0759 5.29855C30.0759 4.91297 29.7868 4.62378 29.4012 4.62378C29.0156 4.62378 28.7264 4.91297 28.7264 5.29855Z" fill="white"/>
<path d="M30.8467 9.82914C32.0035 9.63635 32.9674 9.15441 33.7386 8.28687C32.6782 10.1183 30.3648 10.7931 28.5333 9.82914C28.2441 9.63635 27.9549 9.44358 27.6657 9.1544C28.6297 9.73276 29.7864 10.0219 30.8467 9.82914Z" fill="#D69547"/>
</g>
<path d="M33.2563 1.53931C32.0031 4.14193 29.2077 5.68422 26.3159 5.20225C26.4123 5.20225 31.3284 3.94914 33.2563 1.53931Z" fill="#D69547"/>
<path d="M24.6771 2.11775C23.5204 1.53939 18.7007 -0.774036 16.7729 2.40695C17.1584 1.25023 18.1224 0.382668 19.3755 0.189881C21.3034 -0.38848 23.424 0.382669 24.6771 2.11775Z" fill="#D69547"/>
<path d="M11.4713 24.7703C10.7002 25.2523 8.67592 26.0235 9.44707 27.9513C9.73625 28.4333 10.0254 28.8189 10.5074 29.2044C11.1822 29.59 10.6038 29.8792 10.2182 29.7828C9.83266 29.7828 5.10938 28.8189 7.32643 24.7703C7.71201 23.9992 9.54348 22.4569 11.1822 22.7461C12.8209 23.0353 11.8569 24.5776 11.4713 24.7703Z" fill="url(#paint5_linear_0_2268)"/>
<path d="M42.8957 22.2641C42.8957 21.3966 42.9921 20.529 43.3777 19.6615C43.6669 18.8903 44.0524 18.2156 44.6308 17.5408C45.2092 16.9625 45.8839 16.4805 46.6551 16.0949C47.5226 15.7093 48.4865 15.5165 49.3541 15.6129C49.9324 15.6129 50.6072 15.7093 51.1856 15.8057C51.7639 15.9021 52.2459 16.0949 52.8242 16.2877L52.0531 19.0831C51.6675 18.9867 51.282 18.8903 50.9928 18.7939C50.5108 18.6976 50.1252 18.6012 49.6433 18.6975C48.7757 18.6012 47.9082 18.9867 47.3298 19.6615C46.7515 20.4326 46.4623 21.3002 46.5587 22.2641C46.4623 23.2281 46.7515 24.0956 47.3298 24.8667C48.0046 25.5415 48.8721 25.9271 49.836 25.8307C50.318 25.8307 50.8 25.8307 51.1856 25.7343C51.6675 25.6379 52.1495 25.5415 52.5351 25.3487L53.017 28.2405C52.5351 28.4333 51.9567 28.6261 51.4747 28.7225C50.8 28.8189 50.1252 28.9153 49.4505 28.9153C48.4865 28.9153 47.4262 28.7225 46.4623 28.4333C45.6911 28.1441 45.0164 27.6622 44.438 26.9874C43.8597 26.409 43.4741 25.6379 43.2813 24.8667C42.9921 23.9992 42.8957 23.1317 42.8957 22.2641Z" fill="#2A436F"/>
<path d="M67.0906 22.2642C67.0906 23.2281 66.9941 24.0956 66.705 24.9632C66.4158 25.7343 66.0302 26.4091 65.4519 27.0839C64.8735 27.6622 64.2951 28.1442 63.524 28.4334C62.7528 28.7225 61.8853 28.9153 61.0178 28.9153C60.1502 28.9153 59.2827 28.7225 58.5115 28.4334C57.7404 28.1442 57.162 27.6622 56.5836 27.0839C56.0053 26.5055 55.6197 25.7343 55.3305 24.9632C55.0414 24.0956 54.8486 23.2281 54.8486 22.2642C54.8486 21.3002 55.0414 20.4327 55.3305 19.5651C55.6197 18.794 56.1017 18.1192 56.5836 17.5409C57.162 16.9625 57.7404 16.4805 58.5115 16.1914C60.0538 15.5166 61.8853 15.5166 63.4276 16.1914C64.1987 16.4805 64.7771 16.9625 65.3555 17.5409C65.9338 18.1192 66.3194 18.8904 66.6086 19.5651C66.9942 20.4327 67.0906 21.3966 67.0906 22.2642ZM63.524 22.2642C63.6204 21.3966 63.3312 20.4327 62.8492 19.6615C62.0781 18.6012 60.6322 18.4084 59.5718 19.1796C59.3791 19.276 59.2827 19.4688 59.0899 19.6615C58.6079 20.4327 58.4151 21.3002 58.4151 22.2642C58.3188 23.2281 58.6079 24.0956 59.0899 24.8668C59.4755 25.5415 60.2466 25.8307 61.0178 25.8307C61.7889 25.8307 62.4636 25.5415 62.8492 24.8668C63.3312 24.0956 63.6204 23.2281 63.524 22.2642Z" fill="#2A436F"/>
<path d="M74.3198 12.4319C74.3198 13.0103 74.127 13.5887 73.7414 13.9742C73.3559 14.3598 72.7775 14.5526 72.1991 14.5526C71.6208 14.5526 71.1388 14.3598 70.7532 13.9742C70.3677 13.5887 70.0785 13.0103 70.1749 12.4319C70.1749 11.8536 70.3677 11.2752 70.8496 10.8896C71.7172 10.1185 72.9703 10.1185 73.8378 10.8896C74.127 11.2752 74.4162 11.8536 74.3198 12.4319ZM74.0306 28.626H70.4641V16.0949H74.0306V28.626Z" fill="#2A436F"/>
<path d="M77.9831 16.4804C79.7182 15.9985 81.5497 15.8057 83.2848 15.8057C84.1523 15.8057 85.1162 15.9021 85.9838 16.1912C86.6585 16.4804 87.2369 16.866 87.6225 17.348C88.008 17.9263 88.2972 18.5047 88.49 19.1794C88.6828 19.9506 88.7792 20.7217 88.7792 21.4929V28.5296H85.2126V21.8784C85.309 21.0109 85.1162 20.2398 84.7307 19.4686C84.3451 18.9866 83.6703 18.6975 82.9956 18.7939H82.2244L81.4533 18.8903V28.5296H77.8867L77.9831 16.4804Z" fill="#2A436F"/>
<path d="M101.985 18.5048L100.828 19.7579C100.346 20.3363 99.8644 20.9147 99.286 21.5894C98.7077 22.2642 98.1293 22.9389 97.5509 23.6137C96.9726 24.2884 96.4906 25.0596 96.0087 25.7343H102.081V28.7225H91.671V26.6019C92.0565 25.9271 92.4421 25.3487 92.8277 24.7704L94.2736 22.7461C94.7555 22.0714 95.3339 21.3966 95.8159 20.8183C96.2978 20.2399 96.7798 19.6615 97.2618 19.0832H91.9601V16.095H101.889V18.5048H101.985Z" fill="#2A436F"/>
<path d="M108.925 12.4319C108.925 13.0103 108.732 13.5887 108.25 13.9742C107.865 14.3598 107.286 14.5526 106.804 14.5526C106.226 14.5526 105.744 14.3598 105.358 13.9742C104.973 13.5887 104.684 13.0103 104.684 12.4319C104.684 11.8536 104.876 11.2752 105.358 10.8896C106.226 10.1185 107.479 10.1185 108.347 10.8896C108.732 11.2752 108.925 11.8536 108.925 12.4319ZM108.539 28.626H104.973V16.0949H108.539V28.626Z" fill="#2A436F"/>
<path d="M117.504 28.8187C116.637 28.8187 115.769 28.7223 114.998 28.4331C114.42 28.2404 113.938 27.9512 113.456 27.5656C113.07 27.18 112.781 26.698 112.685 26.2161C112.588 25.6377 112.492 25.0594 112.492 24.3846V10.6003L116.059 10.022V23.6135C116.059 23.9026 116.059 24.1918 116.155 24.481C116.155 24.6738 116.251 24.963 116.444 25.1558C116.637 25.3486 116.83 25.5413 117.022 25.5413C117.312 25.6377 117.697 25.7341 118.083 25.7341L117.504 28.8187Z" fill="#2A436F"/>
<path d="M125.601 28.8187C124.734 28.8187 123.866 28.7223 123.095 28.4331C122.517 28.2404 122.035 27.9512 121.553 27.5656C121.167 27.18 120.878 26.698 120.782 26.2161C120.685 25.6377 120.589 25.0594 120.589 24.3846V10.6003L124.156 10.022V23.6135C124.156 23.9026 124.156 24.1918 124.252 24.481C124.252 24.6738 124.348 24.963 124.541 25.1558C124.734 25.3486 124.927 25.5413 125.119 25.5413C125.409 25.6377 125.794 25.7341 126.18 25.7341L125.601 28.8187Z" fill="#2A436F"/>
<path d="M133.602 15.8057C134.47 15.8057 135.337 15.9021 136.205 16.1912C136.88 16.384 137.458 16.7696 137.843 17.2516C138.229 17.7335 138.615 18.3119 138.711 18.8903C138.904 19.565 139 20.3362 139 21.0109V28.3368C138.518 28.4332 137.747 28.5296 136.88 28.7224C135.819 28.9152 134.662 29.0116 133.602 28.9152C132.831 28.9152 132.156 28.8188 131.385 28.7224C130.807 28.626 130.228 28.3368 129.65 28.0477C129.168 27.7585 128.782 27.2765 128.59 26.7945C128.3 26.2162 128.204 25.5414 128.204 24.8666C128.204 24.1919 128.3 23.6135 128.686 23.0352C128.975 22.5532 129.361 22.1676 129.843 21.7821C130.325 21.4929 130.903 21.3001 131.578 21.1073C132.253 21.0109 132.927 20.9145 133.602 20.9145C133.988 20.9145 134.373 20.9145 134.855 21.0109C135.144 21.0109 135.434 21.1073 135.723 21.2037V20.9145C135.723 20.3361 135.53 19.8542 135.144 19.4686C134.566 19.083 133.891 18.8903 133.217 18.8903C132.638 18.8903 132.06 18.8902 131.385 18.9866C130.903 19.083 130.325 19.1794 129.843 19.3722L129.361 16.4804L130.132 16.2876C130.421 16.1912 130.807 16.1912 131.192 16.0948C131.578 15.9984 131.963 15.9985 132.349 15.9985C132.735 15.9985 133.217 15.8057 133.602 15.8057ZM133.891 26.1198H134.855C135.144 26.1198 135.337 26.1198 135.626 26.0234V23.3243C135.434 23.3243 135.241 23.228 134.952 23.228H134.18C133.891 23.228 133.506 23.228 133.217 23.3243C132.927 23.3243 132.735 23.4208 132.445 23.5171C132.253 23.6135 132.06 23.8063 131.963 23.9991C131.578 24.6739 131.771 25.445 132.349 25.8306C132.831 26.1198 133.313 26.2162 133.891 26.1198Z" fill="#2A436F"/>
<defs>
<linearGradient id="paint0_linear_0_2268" x1="8.89206" y1="17.2286" x2="8.49675" y2="19.9855" gradientUnits="userSpaceOnUse">
<stop stop-color="#EA8632"/>
<stop offset="1" stop-color="#D6721E"/>
</linearGradient>
<linearGradient id="paint1_linear_0_2268" x1="9.10681" y1="24.7867" x2="8.51938" y2="27.3508" gradientUnits="userSpaceOnUse">
<stop stop-color="#EA8632"/>
<stop offset="1" stop-color="#D6721E"/>
</linearGradient>
<linearGradient id="paint2_linear_0_2268" x1="9.61678" y1="7.88405" x2="8.23769" y2="11.9133" gradientUnits="userSpaceOnUse">
<stop stop-color="#EA8632"/>
<stop offset="1" stop-color="#D6721E"/>
</linearGradient>
<linearGradient id="paint3_linear_0_2268" x1="23.8396" y1="29.8146" x2="24.8468" y2="22.8436" gradientUnits="userSpaceOnUse">
<stop stop-color="#D69547"/>
<stop offset="1" stop-color="#CC6806"/>
</linearGradient>
<linearGradient id="paint4_linear_0_2268" x1="21.5889" y1="10.7856" x2="16.9914" y2="26.546" gradientUnits="userSpaceOnUse">
<stop stop-color="#F0CD59"/>
<stop offset="1" stop-color="#F7931A"/>
</linearGradient>
<linearGradient id="paint5_linear_0_2268" x1="12.1268" y1="44.5011" x2="11.1403" y2="37.5251" gradientUnits="userSpaceOnUse">
<stop stop-color="#D69547"/>
<stop offset="1" stop-color="#CC6806"/>
</linearGradient>
</defs>
</svg>
