<svg width="74" height="61" viewBox="0 0 74 61" fill="none" xmlns="http://www.w3.org/2000/svg">
<path d="M66.4241 14.9687C66.4692 15.621 66.4692 16.2734 66.4692 16.9318C66.4692 36.9928 51.1972 60.1292 23.2717 60.1292V60.1172C15.0225 60.1293 6.94455 57.7663 0 53.311C1.19951 53.4553 2.40504 53.5274 3.61357 53.5304C10.4499 53.5364 17.0908 51.2426 22.4691 47.0188C15.9725 46.8955 10.2755 42.6597 8.28535 36.4757C10.5611 36.9146 12.906 36.8244 15.1397 36.2142C8.05688 34.7832 2.9612 28.5601 2.9612 21.333V21.1406C5.07162 22.316 7.43457 22.9684 9.85163 23.0406C3.18066 18.5822 1.12436 9.70763 5.15279 2.7691C12.8609 12.254 24.2338 18.02 36.4423 18.6303C35.2188 13.3573 36.8903 7.83171 40.8345 4.12494C46.9493 -1.6231 56.5665 -1.32848 62.3145 4.78332C65.7146 4.11292 68.9735 2.8653 71.9557 1.0976C70.8223 4.61196 68.4504 7.59721 65.2817 9.49419C68.291 9.13945 71.2312 8.33376 74 7.10418C71.9617 10.1586 69.3943 12.8192 66.4241 14.9687Z" fill="#1D9BF0"/>
</svg>
