<svg width="132" height="40" viewBox="0 0 132 40" fill="none" xmlns="http://www.w3.org/2000/svg">
<path d="M51.2526 16.6859V3.29445H55.3522C56.2604 3.25177 57.1677 3.39546 58.0182 3.71668C58.8687 4.0379 59.6445 4.52984 60.2977 5.16221C60.9162 5.79996 61.3987 6.5568 61.7157 7.38675C62.0328 8.2167 62.1778 9.10245 62.1419 9.99017C62.1772 10.8806 62.0308 11.7689 61.7117 12.6009C61.3926 13.4329 60.9075 14.1913 60.2859 14.8299C59.6317 15.4601 58.8556 15.9499 58.0051 16.2691C57.1546 16.5883 56.2478 16.7301 55.3405 16.6859H51.2526ZM52.9794 15.0413H55.3288C55.9992 15.0768 56.6699 14.9776 57.3014 14.7496C57.9329 14.5216 58.5123 14.1695 59.0055 13.7139C59.4782 13.221 59.8442 12.6359 60.0807 11.9952C60.3172 11.3545 60.419 10.672 60.3799 9.99017C60.4182 9.31119 60.3171 8.63155 60.0827 7.99314C59.8484 7.35474 59.4858 6.77109 59.0173 6.27816C58.5258 5.8194 57.9469 5.46439 57.3152 5.23431C56.6835 5.00422 56.0119 4.9038 55.3405 4.93902H52.9911L52.9794 15.0413Z" fill="#5F6368"/>
<path d="M65.4077 5.22143C65.2399 5.37624 65.0306 5.47879 64.8055 5.51655C64.5803 5.55431 64.349 5.52563 64.1399 5.43404C63.9308 5.34244 63.7529 5.19189 63.628 5.00079C63.5031 4.8097 63.4365 4.58634 63.4365 4.35804C63.4365 4.12973 63.5031 3.90638 63.628 3.71528C63.7529 3.52419 63.9308 3.37364 64.1399 3.28204C64.349 3.19044 64.5803 3.16177 64.8055 3.19953C65.0306 3.23728 65.2399 3.33984 65.4077 3.49464C65.527 3.60464 65.6221 3.73815 65.6872 3.88675C65.7523 4.03534 65.7859 4.19581 65.7859 4.35804C65.7859 4.52026 65.7523 4.68073 65.6872 4.82933C65.6221 4.97793 65.527 5.11143 65.4077 5.22143ZM65.4077 16.6864H63.6927V7.52382H65.4195L65.4077 16.6864Z" fill="#5F6368"/>
<path d="M70.8458 16.9918C69.9403 17.0277 69.0483 16.7634 68.3085 16.24C67.6577 15.7632 67.1498 15.1173 66.8401 14.3723L68.379 13.7379C68.5531 14.2554 68.8894 14.7029 69.338 15.014C69.7867 15.325 70.3237 15.4831 70.8693 15.4647C71.3336 15.4849 71.7929 15.3619 72.185 15.1123C72.3447 15.0134 72.4761 14.8749 72.5667 14.7103C72.6572 14.5456 72.7038 14.3604 72.7018 14.1726C72.7018 13.5774 72.2829 13.1858 71.4449 12.9979L69.5889 12.5515C68.9786 12.3926 68.4097 12.1041 67.9209 11.7057C67.6656 11.5058 67.4612 11.2484 67.3244 10.9544C67.1876 10.6604 67.1223 10.3382 67.1338 10.0142C67.1345 9.6211 67.2338 9.23445 67.4226 8.88967C67.6114 8.54489 67.8837 8.25299 68.2145 8.04072C68.9661 7.52214 69.8625 7.25484 70.7753 7.27717C71.5361 7.26347 72.2866 7.45414 72.9485 7.82927C73.5655 8.1841 74.0423 8.73965 74.2994 9.40336L72.831 9.97895C72.6522 9.58667 72.3532 9.26144 71.9773 9.05027C71.6015 8.83911 71.1682 8.75295 70.7401 8.80426C70.2883 8.78842 69.841 8.89821 69.448 9.12143C69.2901 9.2027 69.1575 9.32551 69.0643 9.47663C68.9712 9.62775 68.921 9.80144 68.9193 9.97895C68.9193 10.5036 69.3109 10.86 70.094 11.0479L71.9148 11.4826C72.6444 11.6118 73.3123 11.9746 73.8178 12.5163C74.2193 12.9699 74.4408 13.555 74.4404 14.1608C74.444 14.5585 74.3546 14.9516 74.1792 15.3085C74.0037 15.6655 73.7472 15.9765 73.4301 16.2165C72.6852 16.7678 71.7712 17.042 70.8458 16.9918Z" fill="#5F6368"/>
<path d="M80.714 16.9918C80.06 17.003 79.4136 16.8495 78.8345 16.5454C78.32 16.2749 77.8893 15.8686 77.5893 15.3707H77.5306V16.6981V20.7391H75.8625V7.52383H77.5306V8.79249C77.8301 8.2942 78.2609 7.88784 78.7757 7.6178C79.3551 7.31422 80.0013 7.16074 80.6552 7.17142C81.2368 7.17009 81.8117 7.29429 82.3409 7.53554C82.87 7.77679 83.3408 8.12941 83.7212 8.5693C84.5983 9.52854 85.0625 10.7945 85.0133 12.0934C85.0612 13.392 84.5972 14.6575 83.7212 15.6174C83.3452 16.0456 82.8828 16.3894 82.3646 16.6263C81.8463 16.8631 81.2838 16.9877 80.714 16.9918ZM80.432 15.4177C80.8192 15.4209 81.2026 15.3419 81.5569 15.186C81.9113 15.0301 82.2286 14.8008 82.4878 14.5132C83.0664 13.8703 83.3737 13.0283 83.3453 12.1638C83.3737 11.2993 83.0664 10.4574 82.4878 9.81447C82.238 9.54268 81.9371 9.32281 81.6024 9.16742C81.2676 9.01204 80.9054 8.9242 80.5366 8.90892C80.1678 8.89365 79.7997 8.95124 79.4532 9.0784C79.1067 9.20557 78.7887 9.39981 78.5173 9.65001L78.3646 9.80272C77.8078 10.4385 77.5102 11.2602 77.5306 12.1051C77.4847 12.9878 77.7886 13.853 78.3763 14.5132C78.6355 14.8008 78.9528 15.0301 79.3071 15.186C79.6615 15.3419 80.0449 15.4209 80.432 15.4177Z" fill="#5F6368"/>
<path d="M88.3141 16.6861H86.5873V3.29468H88.3141V16.6861Z" fill="#5F6368"/>
<path d="M93.2357 16.9915C92.3451 17.0191 91.4754 16.718 90.7924 16.1457C90.4699 15.8725 90.2136 15.5297 90.0426 15.1431C89.8717 14.7565 89.7907 14.3362 89.8056 13.9138C89.7898 13.4553 89.889 13.0001 90.0942 12.5898C90.2994 12.1794 90.604 11.8269 90.9803 11.5645C91.8182 10.9781 92.8246 10.6812 93.8466 10.7187C94.7078 10.6869 95.5624 10.8813 96.3252 11.2825V11.0241C96.3379 10.7193 96.2823 10.4155 96.1624 10.135C96.0425 9.8545 95.8613 9.60439 95.6321 9.40303C95.1731 9.004 94.584 8.78672 93.9758 8.7922C93.4981 8.78435 93.0272 8.90613 92.6131 9.1446C92.2274 9.3593 91.9315 9.70525 91.7791 10.1196L90.1698 9.40303C90.4344 8.78446 90.8706 8.25455 91.4267 7.87594C92.1499 7.3777 93.0163 7.13014 93.8936 7.17113C94.9632 7.14337 96.0039 7.52101 96.8068 8.22835C97.204 8.59574 97.5153 9.04629 97.7183 9.54783C97.9214 10.0494 98.0112 10.5896 97.9815 11.1298V16.6861H96.3252V15.4174H96.2547C95.9364 15.9241 95.489 16.3369 94.9585 16.6136C94.428 16.8902 93.8334 17.0206 93.2357 16.9915ZM93.5177 15.4174C94.2426 15.4114 94.9372 15.1252 95.4559 14.6186C95.7283 14.3871 95.9472 14.0991 96.0973 13.7745C96.2474 13.45 96.3251 13.0967 96.3252 12.7391C95.6869 12.2952 94.9157 12.0837 94.1402 12.1401C93.4656 12.0894 92.795 12.281 92.249 12.6804C92.0553 12.833 91.8986 13.0274 91.7908 13.2492C91.683 13.4709 91.6268 13.7142 91.6264 13.9608C91.6159 14.1745 91.664 14.387 91.7654 14.5754C91.8668 14.7638 92.0178 14.9209 92.202 15.0298C92.5922 15.287 93.0503 15.422 93.5177 15.4174Z" fill="#5F6368"/>
<path d="M101.894 20.7389H100.12L102.199 16.1106L98.4752 7.52368H100.343L103.068 14.1019L105.723 7.52368H107.591L101.894 20.7389Z" fill="#5F6368"/>
<path d="M123.002 11.9052L121.452 14.3955L122.709 16.0283L121.417 17.0033L120.5 15.8286C119.659 16.6092 118.547 17.0307 117.399 17.0033C116.761 17.0151 116.127 16.8996 115.534 16.6636C114.941 16.4277 114.401 16.0759 113.946 15.6289C113.485 15.1984 113.121 14.6756 112.876 14.0947C112.631 13.5138 112.511 12.8878 112.524 12.2576C112.528 11.4712 112.743 10.7003 113.147 10.0257C113.557 9.31324 114.143 8.7185 114.85 8.29889C114.299 7.67587 113.958 6.89493 113.875 6.06699C113.869 5.65608 113.951 5.24865 114.115 4.87188C114.279 4.4951 114.522 4.15766 114.827 3.88207C115.437 3.29171 116.256 2.9666 117.106 2.97756C117.797 2.95725 118.472 3.18661 119.009 3.62364C119.518 4.05016 119.897 4.61214 120.101 5.24471L118.644 6.04349C118.292 5.11157 117.787 4.64562 117.129 4.64562C116.736 4.63481 116.354 4.77335 116.06 5.03326C115.915 5.167 115.801 5.33097 115.725 5.51363C115.65 5.6963 115.616 5.8932 115.625 6.09048C115.636 6.51935 115.789 6.9325 116.06 7.26517L120.5 13.0681L121.675 11.0712L123.002 11.9052ZM117.387 15.4292C117.79 15.4406 118.189 15.3657 118.56 15.2097C118.931 15.0537 119.264 14.8201 119.537 14.5247L115.755 9.56755C115.271 9.855 114.867 10.2588 114.58 10.7422C114.283 11.2005 114.124 11.7348 114.122 12.2811C114.11 12.706 114.19 13.1284 114.356 13.5196C114.523 13.9108 114.771 14.2616 115.085 14.5482C115.712 15.1229 116.537 15.4341 117.387 15.4175V15.4292Z" fill="#5F6368"/>
<path d="M54.8352 36.656L50.1364 23.2528H52.0394L55.7044 34.0717H55.7749L59.5926 23.2058H61.4956L56.6324 36.656H54.8352Z" fill="#5F6368"/>
<path d="M64.2678 25.1795C64.0747 25.3688 63.8221 25.4856 63.5527 25.5103C63.2834 25.5349 63.0138 25.4658 62.7895 25.3148C62.5652 25.1637 62.3998 24.9398 62.3215 24.6809C62.2431 24.4221 62.2564 24.1441 62.3592 23.8939C62.462 23.6438 62.648 23.4368 62.8857 23.3078C63.1235 23.1789 63.3985 23.136 63.6642 23.1863C63.93 23.2366 64.1702 23.377 64.3444 23.584C64.5186 23.7909 64.616 24.0515 64.6203 24.322C64.6228 24.4813 64.5928 24.6396 64.5322 24.787C64.4716 24.9344 64.3817 25.0679 64.2678 25.1795ZM64.2678 36.6444H62.5528V27.4819H64.2796L64.2678 36.6444Z" fill="#5F6368"/>
<path d="M70.1887 36.9494C69.6071 36.9515 69.0318 36.8276 68.5026 36.5863C67.9734 36.345 67.5026 35.992 67.1228 35.5515C66.2877 34.5832 65.8284 33.3472 65.8284 32.0686C65.8284 30.79 66.2877 29.5539 67.1228 28.5856C67.5026 28.1451 67.9734 27.7921 68.5026 27.5508C69.0318 27.3095 69.6071 27.1856 70.1887 27.1877C70.8427 27.1771 71.4889 27.3305 72.0682 27.6341C72.5827 27.9047 73.0134 28.3109 73.3134 28.8088H73.3839L73.3134 27.5402V23.3113H75.0402V36.6557H73.3956V35.3753H73.3016C73.0016 35.8732 72.571 36.2795 72.0565 36.55C71.4766 36.8359 70.8348 36.9731 70.1887 36.9494ZM70.4824 35.3753C70.8715 35.3802 71.2572 35.302 71.6137 35.146C71.9702 34.9901 72.2893 34.7599 72.5498 34.4708C73.0999 33.7865 73.3998 32.9348 73.3998 32.0568C73.3998 31.1788 73.0999 30.3272 72.5498 29.6428C72.2993 29.3719 71.9978 29.1529 71.6626 28.9986C71.3274 28.8442 70.965 28.7575 70.5963 28.7433C70.2275 28.7291 69.8596 28.7878 69.5135 28.9159C69.1674 29.0441 68.85 29.2392 68.5794 29.4901L68.4267 29.6428C67.8702 30.3197 67.5659 31.1688 67.5659 32.0451C67.5659 32.9214 67.8702 33.7704 68.4267 34.4473C68.6859 34.7349 69.0031 34.9642 69.3575 35.1201C69.7118 35.276 70.0953 35.355 70.4824 35.3518V35.3753Z" fill="#5F6368"/>
<path d="M81.2185 36.9493C80.5883 36.9732 79.9603 36.8618 79.3768 36.6227C78.7932 36.3836 78.2676 36.0223 77.8354 35.5632C76.9507 34.6078 76.4817 33.3402 76.5315 32.0391C76.5069 30.7732 76.9599 29.5444 77.8001 28.5973C78.2024 28.1337 78.7036 27.7664 79.2668 27.5225C79.8299 27.2785 80.4407 27.1641 81.054 27.1877C81.6618 27.161 82.2681 27.2658 82.8317 27.4949C83.3953 27.7239 83.9028 28.0719 84.3196 28.5151C85.1456 29.4973 85.5658 30.7577 85.4943 32.0391V32.3563H78.2583C78.2668 33.1786 78.6005 33.9641 79.1863 34.5412C79.4493 34.8012 79.7612 35.0066 80.1039 35.1457C80.4466 35.2848 80.8134 35.3548 81.1832 35.3517C81.7143 35.3948 82.2451 35.2647 82.6961 34.981C83.1472 34.6972 83.4942 34.2751 83.6853 33.7777L85.2241 34.412C84.9123 35.1369 84.3985 35.7567 83.744 36.1975C83.0016 36.7063 82.1183 36.9692 81.2185 36.9493ZM83.6853 30.9584C83.6273 30.3929 83.3739 29.8653 82.9687 29.4665C82.7155 29.2226 82.4149 29.0331 82.0856 28.9099C81.7563 28.7867 81.4052 28.7322 81.054 28.75C80.447 28.7391 79.8573 28.9524 79.3977 29.3491C78.9158 29.7712 78.5788 30.3342 78.4344 30.9584H83.6853Z" fill="#5F6368"/>
<path d="M87.891 28.5743C88.7928 27.6812 90.0107 27.1802 91.2799 27.1802C92.5491 27.1802 93.7671 27.6812 94.6689 28.5743C95.5235 29.5355 95.9955 30.7769 95.9955 32.0631C95.9955 33.3493 95.5235 34.5907 94.6689 35.5519C93.7686 36.4479 92.5501 36.9508 91.2799 36.9508C90.0098 36.9508 88.7913 36.4479 87.891 35.5519C87.0364 34.5907 86.5643 33.3493 86.5643 32.0631C86.5643 30.7769 87.0364 29.5355 87.891 28.5743ZM89.1714 34.4477C89.4319 34.7241 89.7444 34.9464 90.091 35.1019C90.4375 35.2574 90.8113 35.343 91.191 35.3539C91.5706 35.3648 91.9487 35.3008 92.3036 35.1655C92.6585 35.0301 92.9833 34.8261 93.2593 34.5652L93.3767 34.4477C93.9485 33.7779 94.2625 32.9261 94.2625 32.0455C94.2625 31.1648 93.9485 30.3131 93.3767 29.6432C93.1162 29.3669 92.8037 29.1446 92.4571 28.9891C92.1106 28.8336 91.7368 28.7479 91.3571 28.737C90.9775 28.7261 90.5994 28.7902 90.2445 28.9255C89.8896 29.0609 89.5648 29.2648 89.2888 29.5258L89.1714 29.6432C88.5934 30.3147 88.2755 31.1713 88.2755 32.0572C88.2755 32.9432 88.5934 33.7998 89.1714 34.4712V34.4477Z" fill="#5F6368"/>
<path d="M105.5 36.9495C104.604 36.9353 103.732 36.653 102.998 36.1389C102.174 35.5824 101.578 34.7487 101.318 33.7896L102.892 33.1318C103.051 33.765 103.399 34.3346 103.89 34.7646C104.344 35.1457 104.919 35.3501 105.512 35.3402C106.175 35.3538 106.82 35.1192 107.321 34.6823C107.564 34.4819 107.758 34.2284 107.888 33.9413C108.019 33.6542 108.082 33.3412 108.072 33.026C108.074 32.7164 108.005 32.4105 107.871 32.1316C107.737 31.8527 107.54 31.6082 107.297 31.4167C106.776 30.9769 106.111 30.7429 105.429 30.7589H104.313V29.1496H105.288C105.898 29.1728 106.496 28.9723 106.968 28.5857C107.186 28.4041 107.359 28.1754 107.475 27.917C107.591 27.6585 107.647 27.377 107.638 27.0939C107.648 26.828 107.595 26.5635 107.483 26.3224C107.37 26.0813 107.202 25.8705 106.992 25.7077C106.533 25.3616 105.969 25.1833 105.394 25.2026C104.887 25.1819 104.388 25.3364 103.982 25.6402C103.575 25.944 103.286 26.3785 103.162 26.8707L101.576 26.2011C101.849 25.4838 102.307 24.8515 102.904 24.3686C103.597 23.7883 104.478 23.4795 105.382 23.4993C106.429 23.4615 107.452 23.8178 108.249 24.4978C108.622 24.8057 108.921 25.1936 109.125 25.6328C109.328 26.072 109.43 26.5512 109.423 27.0351C109.439 27.6126 109.283 28.1819 108.976 28.671C108.669 29.1602 108.224 29.5475 107.696 29.7839V29.8544C108.305 30.1024 108.836 30.5079 109.235 31.0291C109.644 31.5782 109.859 32.2476 109.846 32.9321C109.858 33.4657 109.752 33.9954 109.535 34.483C109.317 34.9705 108.994 35.4037 108.589 35.7513C107.751 36.5323 106.645 36.9613 105.5 36.9495Z" fill="#5F6368"/>
<path d="M116.013 28.4681C116.527 28.4715 117.034 28.5772 117.506 28.7789C117.978 28.9806 118.405 29.2742 118.762 29.6427C119.165 30.0221 119.485 30.4811 119.702 30.9907C119.918 31.5003 120.026 32.0494 120.019 32.603C120.019 33.165 119.903 33.7209 119.678 34.2362C119.454 34.7515 119.126 35.2151 118.715 35.5984C118.317 36.0113 117.838 36.3388 117.309 36.561C116.78 36.7831 116.211 36.8953 115.638 36.8906C114.497 36.9033 113.397 36.467 112.575 35.6759C111.753 34.8847 111.275 33.8021 111.244 32.6617C111.346 31.2192 111.878 29.8403 112.771 28.703L116.295 23.5579L117.682 24.5094L114.627 28.7382C115.057 28.5263 115.536 28.4331 116.013 28.4681ZM115.638 35.246C116.151 35.2542 116.656 35.1097 117.088 34.8309C117.519 34.5521 117.858 34.1515 118.062 33.6798C118.266 33.2081 118.325 32.6866 118.232 32.1812C118.139 31.6758 117.899 31.2094 117.541 30.8409C117.298 30.5958 117.009 30.4019 116.69 30.2707C116.371 30.1395 116.029 30.0738 115.685 30.0774C115.17 30.0677 114.664 30.2104 114.231 30.4874C113.798 30.7645 113.456 31.1636 113.248 31.6345C113.041 32.1053 112.978 32.627 113.067 33.1338C113.155 33.6405 113.392 34.1098 113.746 34.4825C113.994 34.7267 114.287 34.919 114.61 35.0482C114.933 35.1773 115.278 35.2405 115.626 35.2343L115.638 35.246Z" fill="#5F6368"/>
<path d="M130.285 35.023C129.865 35.6193 129.307 36.1058 128.659 36.4416C128.011 36.7774 127.291 36.9527 126.562 36.9527C125.832 36.9527 125.113 36.7774 124.465 36.4416C123.817 36.1058 123.259 35.6193 122.838 35.023C121.858 33.6304 121.359 31.9559 121.417 30.2538C121.355 28.5477 121.854 26.8684 122.838 25.4728C123.26 24.8788 123.819 24.3945 124.467 24.0603C125.114 23.7261 125.833 23.5518 126.562 23.5518C127.291 23.5518 128.009 23.7261 128.657 24.0603C129.304 24.3945 129.863 24.8788 130.285 25.4728C131.269 26.8684 131.768 28.5477 131.707 30.2538C131.766 31.956 131.266 33.6308 130.285 35.023ZM126.562 35.305C127.063 35.3051 127.554 35.1711 127.986 34.9171C128.418 34.663 128.774 34.2981 129.017 33.8601C129.669 32.7733 129.991 31.5204 129.945 30.2538C129.994 28.9833 129.671 27.726 129.017 26.6358C128.768 26.2013 128.409 25.8402 127.976 25.5891C127.542 25.338 127.051 25.2058 126.55 25.2058C126.049 25.2058 125.557 25.338 125.124 25.5891C124.691 25.8402 124.332 26.2013 124.083 26.6358C123.435 27.7283 123.117 28.9847 123.167 30.2538C123.12 31.5189 123.438 32.7707 124.083 33.8601C124.327 34.2998 124.685 34.6659 125.119 34.92C125.553 35.1742 126.047 35.3072 126.55 35.305H126.562Z" fill="#5F6368"/>
<path d="M28.5336 15.6759C29.0991 15.3179 29.7309 15.0775 30.3914 14.9691C31.0519 14.8607 31.7275 14.8865 32.3777 15.0451C33.028 15.2036 33.6397 15.4916 34.1761 15.8918C34.7126 16.292 35.1629 16.7962 35.5002 17.3744C35.8374 17.9525 36.0547 18.5927 36.139 19.2567C36.2233 19.9207 36.1729 20.5949 35.9908 21.2389C35.8088 21.883 35.4987 22.4838 35.0793 23.0053C34.6598 23.5269 34.1395 23.9586 33.5495 24.2746L7.70639 39.1931C7.14067 39.5615 6.50597 39.811 5.84084 39.9265C5.17572 40.042 4.49406 40.0211 3.83727 39.865C3.18048 39.7089 2.56227 39.421 2.0202 39.0186C1.47812 38.6163 1.0235 38.108 0.683942 37.5245C0.344385 36.941 0.126983 36.2946 0.0449428 35.6245C-0.0370976 34.9545 0.017936 34.2747 0.2067 33.6266C0.395465 32.9784 0.71402 32.3754 1.14301 31.8542C1.57201 31.3329 2.10249 30.9043 2.70223 30.5944L28.5336 15.6759Z" fill="#81C995"/>
<path d="M9.974 5.02126C9.97437 4.2777 9.80864 3.54346 9.48893 2.87215C9.16922 2.20084 8.70359 1.60942 8.12606 1.1411C7.54853 0.672768 6.87369 0.339357 6.15081 0.165216C5.42794 -0.00892536 4.6753 -0.0193988 3.94786 0.134561C2.80933 0.398244 1.79596 1.04508 1.07743 1.96676C0.358906 2.88844 -0.0211487 4.02901 0.000908774 5.19746V34.8583L9.974 35.0345V5.02126Z" fill="#34A853"/>
<path d="M28.6402 24.3099C29.7978 24.9099 31.1381 25.0545 32.397 24.7153C33.6559 24.3761 34.7421 23.5777 35.4416 22.4774C36.1083 21.3539 36.3021 20.0118 35.9806 18.7456C35.6591 17.4794 34.8485 16.3923 33.7266 15.723H33.6678L7.55456 0.722207C6.44076 0.0415258 5.1022 -0.168849 3.83331 0.13736C2.56441 0.443569 1.46912 1.24128 0.788359 2.35502L0.682637 2.54297C0.35312 3.10578 0.137899 3.72809 0.0493065 4.37422C-0.0392859 5.02036 0.000491549 5.67763 0.16636 6.30836C0.332228 6.9391 0.620926 7.5309 1.01591 8.04987C1.4109 8.56883 1.90441 9.00476 2.46816 9.33266L28.6402 24.3099Z" fill="#5BB974"/>
<path d="M33.4915 24.3331L9.98599 37.5248V26.2009L28.6165 15.7579C29.2639 15.3907 29.9838 15.1697 30.7257 15.1104C31.4676 15.0512 32.2134 15.155 32.9109 15.4148C33.6083 15.6745 34.2405 16.0838 34.7629 16.6139C35.2853 17.1439 35.6853 17.782 35.9348 18.4832C36.2726 19.5902 36.2134 20.7804 35.7673 21.8484C35.3212 22.9164 34.5163 23.7952 33.4915 24.3331Z" fill="#81C995"/>
<path d="M4.99358 39.9331C7.75082 39.9331 9.986 37.6979 9.986 34.9407C9.986 32.1834 7.75082 29.9482 4.99358 29.9482C2.23634 29.9482 0.00115967 32.1834 0.00115967 34.9407C0.00115967 37.6979 2.23634 39.9331 4.99358 39.9331Z" fill="#1E8E3E"/>
</svg>
