<svg width="317" height="209" viewBox="0 0 317 209" fill="none" xmlns="http://www.w3.org/2000/svg">
<rect width="317" height="209" rx="5" fill="#EFEFFF"/>
<rect x="50.196" y="56.0756" width="224.804" height="117.085" fill="#5D50FF"/>
<rect x="42.0513" y="49.1018" width="228.214" height="119.383" fill="#BFBFFC" stroke="#5D50FF" stroke-width="0.102695"/>
<path d="M230.216 55.2027V63.7963H234.319L234.079 65.563H228.016V55.2027H230.216ZM239.077 54.9631C240.025 54.9631 240.844 55.1777 241.532 55.6069C242.221 56.0261 242.75 56.6399 243.119 57.4484C243.489 58.2569 243.673 59.235 243.673 60.3828C243.673 61.5107 243.489 62.4838 243.119 63.3023C242.75 64.1107 242.221 64.7296 241.532 65.1588C240.844 65.5879 240.025 65.8025 239.077 65.8025C238.129 65.8025 237.305 65.5929 236.607 65.1737C235.918 64.7445 235.389 64.1257 235.02 63.3173C234.65 62.4988 234.466 61.5207 234.466 60.3828C234.466 59.2649 234.65 58.3018 235.02 57.4933C235.399 56.6749 235.933 56.0511 236.622 55.6219C237.32 55.1827 238.139 54.9631 239.077 54.9631ZM239.077 56.61C238.318 56.61 237.744 56.9094 237.355 57.5083C236.976 58.1071 236.786 59.0653 236.786 60.3828C236.786 61.7003 236.981 62.6585 237.37 63.2574C237.759 63.8562 238.328 64.1557 239.077 64.1557C239.836 64.1557 240.404 63.8612 240.784 63.2723C241.163 62.6735 241.353 61.7103 241.353 60.3828C241.353 59.0553 241.163 58.0972 240.784 57.5083C240.404 56.9094 239.836 56.61 239.077 56.61ZM249.668 54.9631C250.367 54.9631 250.985 55.0729 251.524 55.2925C252.073 55.5021 252.582 55.8065 253.052 56.2058L251.899 57.4035C251.529 57.124 251.18 56.9194 250.851 56.7897C250.531 56.6599 250.167 56.595 249.758 56.595C248.969 56.595 248.33 56.9094 247.841 57.5382C247.362 58.1571 247.123 59.1053 247.123 60.3828C247.123 61.7303 247.307 62.6984 247.677 63.2873C248.056 63.8662 248.64 64.1557 249.428 64.1557C249.997 64.1557 250.511 64.0309 250.97 63.7814V61.2512H249.518L249.294 59.6492H253.111V64.7545C252.572 65.0839 251.989 65.3434 251.36 65.533C250.741 65.7127 250.112 65.8025 249.473 65.8025C247.946 65.8025 246.788 65.3434 246 64.4251C245.211 63.5069 244.817 62.1545 244.817 60.3679C244.817 59.24 245.032 58.2668 245.461 57.4484C245.89 56.63 246.469 56.0111 247.198 55.5919C247.936 55.1727 248.76 54.9631 249.668 54.9631ZM259.02 54.9631C259.968 54.9631 260.786 55.1777 261.475 55.6069C262.164 56.0261 262.693 56.6399 263.062 57.4484C263.431 58.2569 263.616 59.235 263.616 60.3828C263.616 61.5107 263.431 62.4838 263.062 63.3023C262.693 64.1107 262.164 64.7296 261.475 65.1588C260.786 65.5879 259.968 65.8025 259.02 65.8025C258.071 65.8025 257.248 65.5929 256.549 65.1737C255.861 64.7445 255.332 64.1257 254.962 63.3173C254.593 62.4988 254.408 61.5207 254.408 60.3828C254.408 59.2649 254.593 58.3018 254.962 57.4933C255.342 56.6749 255.876 56.0511 256.564 55.6219C257.263 55.1827 258.081 54.9631 259.02 54.9631ZM259.02 56.61C258.261 56.61 257.687 56.9094 257.298 57.5083C256.919 58.1071 256.729 59.0653 256.729 60.3828C256.729 61.7003 256.924 62.6585 257.313 63.2574C257.702 63.8562 258.271 64.1557 259.02 64.1557C259.778 64.1557 260.347 63.8612 260.726 63.2723C261.106 62.6735 261.295 61.7103 261.295 60.3828C261.295 59.0553 261.106 58.0972 260.726 57.5083C260.347 56.9094 259.778 56.61 259.02 56.61Z" fill="#8F8FFF"/>
<path d="M155.857 78.0045C154.353 78.0045 153.132 76.7835 153.132 75.2791V68.1677C153.132 66.6633 154.353 65.4424 155.857 65.4424C157.361 65.4424 158.582 66.6633 158.582 68.1677V75.2791C158.582 76.7835 157.361 78.0045 155.857 78.0045Z" fill="#5C50FF"/>
<path d="M179.735 87.8957C179.037 87.8957 178.339 87.6305 177.809 87.0963C176.744 86.0316 176.744 84.3055 177.809 83.2408L182.838 78.2116C183.903 77.1469 185.629 77.1469 186.694 78.2116C187.758 79.2763 187.758 81.0024 186.694 82.0671L181.664 87.0963C181.13 87.6268 180.432 87.8957 179.735 87.8957Z" fill="#5C50FF"/>
<path d="M196.737 111.773H189.626C188.122 111.773 186.901 110.553 186.901 109.048C186.901 107.544 188.122 106.323 189.626 106.323H196.737C198.242 106.323 199.463 107.544 199.463 109.048C199.463 110.553 198.242 111.773 196.737 111.773Z" fill="#5C50FF"/>
<path d="M184.764 140.681C184.066 140.681 183.369 140.415 182.838 139.881L177.809 134.852C176.744 133.787 176.744 132.061 177.809 130.996C178.874 129.932 180.6 129.932 181.664 130.996L186.694 136.026C187.758 137.09 187.758 138.816 186.694 139.881C186.159 140.415 185.462 140.681 184.764 140.681Z" fill="#5C50FF"/>
<path d="M126.95 140.681C126.252 140.681 125.555 140.415 125.024 139.881C123.959 138.816 123.959 137.09 125.024 136.026L130.053 130.996C131.118 129.932 132.844 129.932 133.909 130.996C134.973 132.061 134.973 133.787 133.909 134.852L128.88 139.881C128.345 140.415 127.648 140.681 126.95 140.681Z" fill="#5C50FF"/>
<path d="M122.088 111.773H114.977C113.472 111.773 112.251 110.553 112.251 109.048C112.251 107.544 113.472 106.323 114.977 106.323H122.088C123.592 106.323 124.813 107.544 124.813 109.048C124.813 110.553 123.592 111.773 122.088 111.773Z" fill="#5C50FF"/>
<path d="M131.979 87.8957C131.281 87.8957 130.584 87.6305 130.053 87.0963L125.024 82.0671C123.959 81.0024 123.959 79.2763 125.024 78.2116C126.089 77.1469 127.815 77.1469 128.88 78.2116L133.909 83.2408C134.973 84.3055 134.973 86.0316 133.909 87.0963C133.371 87.6268 132.677 87.8957 131.979 87.8957Z" fill="#5C50FF"/>
<path d="M166.758 141.752V146.295C166.758 149.783 163.888 152.654 160.399 152.654H151.315C148.262 152.654 144.956 150.328 144.956 145.241V141.752H166.758Z" fill="#5C50FF"/>
<path d="M171.882 89.2802C165.923 84.4472 158.074 82.5577 150.406 84.1929C140.777 86.1915 132.964 94.0405 130.965 103.67C128.93 113.554 132.637 123.365 140.559 129.361C142.703 130.96 144.193 133.431 144.701 136.302V136.338C144.774 136.302 144.883 136.302 144.956 136.302H166.758C166.831 136.302 166.868 136.302 166.94 136.338V136.302C167.449 133.54 169.084 130.996 171.591 129.034C177.733 124.165 181.294 116.897 181.294 109.048C181.294 101.344 177.878 94.1495 171.882 89.2802ZM169.484 110.865C167.994 110.865 166.758 109.63 166.758 108.14C166.758 102.616 162.289 98.1467 156.766 98.1467C155.276 98.1467 154.04 96.9112 154.04 95.4214C154.04 93.9315 155.276 92.696 156.766 92.696C165.269 92.696 172.209 99.6366 172.209 108.14C172.209 109.63 170.974 110.865 169.484 110.865Z" fill="#5C50FF"/>
<path d="M144.701 136.302H144.955C144.883 136.302 144.774 136.302 144.701 136.338V136.302Z" fill="#5C50FF"/>
<path d="M166.94 136.302V136.338C166.867 136.302 166.831 136.302 166.758 136.302H166.94Z" fill="#5C50FF"/>
<path d="M46.4308 43.0001L45.9379 41.3602H43.4637L42.9708 43.0001H42.0607L44.1557 36.4687H45.2933L47.3787 43.0001H46.4308ZM43.6817 40.6302H45.7198L44.7055 37.2176L43.6817 40.6302ZM52.2061 35.9948V43.0001H51.4383L51.353 42.3081C51.1886 42.5609 50.9833 42.76 50.7368 42.9053C50.4903 43.0444 50.2154 43.1139 49.9121 43.1139C49.318 43.1139 48.8535 42.88 48.5186 42.4124C48.19 41.9447 48.0256 41.3159 48.0256 40.526C48.0256 40.0141 48.1046 39.5591 48.2626 39.1609C48.4206 38.7628 48.6481 38.4531 48.9452 38.2319C49.2422 38.0044 49.5898 37.8907 49.9879 37.8907C50.4998 37.8907 50.9485 38.0961 51.334 38.5068V35.8905L52.2061 35.9948ZM50.1017 42.4219C50.3671 42.4219 50.5946 42.3618 50.7842 42.2418C50.9738 42.1154 51.157 41.9289 51.334 41.6825V39.2368C51.1697 39.0219 50.9927 38.8607 50.8031 38.7533C50.6199 38.6395 50.4113 38.5827 50.1775 38.5827C49.792 38.5827 49.4918 38.7438 49.2769 39.0661C49.0684 39.3884 48.9641 39.8687 48.9641 40.507C48.9641 41.1516 49.0621 41.6319 49.258 41.9479C49.4539 42.2639 49.7351 42.4219 50.1017 42.4219ZM58.674 36.6583V43.0001H57.8019V37.5873L56.3231 38.4879L55.9439 37.8717L57.9062 36.6583H58.674ZM65.2838 36.6583V43.0001H64.4116V37.5873L62.9328 38.4879L62.5537 37.8717L64.5159 36.6583H65.2838ZM68.4842 36.5635C68.8634 36.5635 69.1952 36.6394 69.4796 36.791C69.7703 36.9427 69.9946 37.1513 70.1526 37.4167C70.3106 37.6758 70.3896 37.9697 70.3896 38.2983C70.3896 38.6838 70.3011 39.0535 70.1242 39.4074C69.9535 39.7613 69.6881 40.1436 69.3279 40.5544C68.9677 40.9652 68.421 41.5371 67.6879 42.2702H70.5413L70.437 43.0001H66.6926V42.3081C67.5394 41.4297 68.1398 40.7882 68.4937 40.3838C68.8476 39.973 69.1004 39.6159 69.252 39.3126C69.4037 39.0092 69.4796 38.6838 69.4796 38.3362C69.4796 38.0076 69.3848 37.7516 69.1952 37.5684C69.0056 37.3788 68.7528 37.284 68.4368 37.284C68.1777 37.284 67.9502 37.3377 67.7543 37.4451C67.5584 37.5526 67.3498 37.7295 67.1286 37.976L66.5599 37.521C66.819 37.1987 67.1065 36.9585 67.4225 36.8005C67.7385 36.6425 68.0924 36.5635 68.4842 36.5635ZM73.6611 36.5635C74.3626 36.5635 74.8903 36.8448 75.2442 37.4072C75.6044 37.9633 75.7845 38.7723 75.7845 39.834C75.7845 40.8957 75.6044 41.7077 75.2442 42.2702C74.8903 42.8327 74.3626 43.1139 73.6611 43.1139C72.9596 43.1139 72.4288 42.8327 72.0686 42.2702C71.7147 41.7077 71.5377 40.8957 71.5377 39.834C71.5377 38.7723 71.7147 37.9633 72.0686 37.4072C72.4288 36.8448 72.9596 36.5635 73.6611 36.5635ZM73.6611 37.2555C73.2504 37.2555 72.9438 37.4578 72.7416 37.8622C72.5457 38.2667 72.4478 38.9239 72.4478 39.834C72.4478 40.744 72.5457 41.4044 72.7416 41.8152C72.9438 42.2196 73.2504 42.4219 73.6611 42.4219C74.0656 42.4219 74.3689 42.2196 74.5712 41.8152C74.7734 41.4044 74.8745 40.744 74.8745 39.834C74.8745 38.9303 74.7734 38.2762 74.5712 37.8717C74.3689 37.4609 74.0656 37.2555 73.6611 37.2555ZM78.9471 36.5635C79.6486 36.5635 80.1762 36.8448 80.5301 37.4072C80.8904 37.9633 81.0705 38.7723 81.0705 39.834C81.0705 40.8957 80.8904 41.7077 80.5301 42.2702C80.1762 42.8327 79.6486 43.1139 78.9471 43.1139C78.2456 43.1139 77.7147 42.8327 77.3545 42.2702C77.0006 41.7077 76.8237 40.8957 76.8237 39.834C76.8237 38.7723 77.0006 37.9633 77.3545 37.4072C77.7147 36.8448 78.2456 36.5635 78.9471 36.5635ZM78.9471 37.2555C78.5363 37.2555 78.2298 37.4578 78.0276 37.8622C77.8316 38.2667 77.7337 38.9239 77.7337 39.834C77.7337 40.744 77.8316 41.4044 78.0276 41.8152C78.2298 42.2196 78.5363 42.4219 78.9471 42.4219C79.3515 42.4219 79.6549 42.2196 79.8571 41.8152C80.0593 41.4044 80.1604 40.744 80.1604 39.834C80.1604 38.9303 80.0593 38.2762 79.8571 37.8717C79.6549 37.4609 79.3515 37.2555 78.9471 37.2555ZM84.3666 40.3269L86.1014 43.0001H85.0491L83.8263 40.8862L82.5845 43.0001H81.5986L83.3428 40.3648L81.7977 38.0044H82.8214L83.8642 39.834L84.9164 38.0044H85.9023L84.3666 40.3269ZM88.9792 38.8291C89.3015 38.8291 89.5954 38.905 89.8608 39.0566C90.1262 39.2083 90.3379 39.4358 90.4959 39.7392C90.6539 40.0425 90.7329 40.4122 90.7329 40.8483C90.7329 41.297 90.6413 41.6951 90.458 42.0427C90.2811 42.384 90.0377 42.6494 89.7281 42.839C89.4247 43.0222 89.0866 43.1139 88.7138 43.1139C87.9744 43.1139 87.434 42.8421 87.0928 42.2986C86.7515 41.7488 86.5809 40.9905 86.5809 40.0236C86.5809 39.3347 86.6757 38.7312 86.8653 38.213C87.0612 37.6884 87.3392 37.284 87.6995 36.9996C88.0597 36.7089 88.4863 36.5635 88.9792 36.5635C89.4595 36.5635 89.8956 36.6931 90.2874 36.9522L89.9461 37.5304C89.6491 37.3472 89.3236 37.2555 88.9697 37.2555C88.5147 37.2555 88.1545 37.4736 87.8891 37.9096C87.6236 38.3457 87.4783 38.9303 87.453 39.6633C87.8448 39.1072 88.3536 38.8291 88.9792 38.8291ZM88.7138 42.4219C89.0803 42.4219 89.3615 42.2828 89.5575 42.0048C89.7534 41.7267 89.8513 41.3507 89.8513 40.8767C89.8513 39.973 89.5101 39.5211 88.8275 39.5211C88.5495 39.5211 88.2935 39.6001 88.0597 39.7581C87.8259 39.9098 87.6268 40.1215 87.4625 40.3933C87.4814 41.0884 87.5889 41.6003 87.7848 41.9289C87.987 42.2576 88.2967 42.4219 88.7138 42.4219ZM93.1643 36.5635C93.5434 36.5635 93.8752 36.6394 94.1596 36.791C94.4503 36.9427 94.6747 37.1513 94.8327 37.4167C94.9906 37.6758 95.0696 37.9697 95.0696 38.2983C95.0696 38.6838 94.9812 39.0535 94.8042 39.4074C94.6336 39.7613 94.3682 40.1436 94.0079 40.5544C93.6477 40.9652 93.1011 41.5371 92.368 42.2702H95.2213L95.117 43.0001H91.3726V42.3081C92.2195 41.4297 92.8198 40.7882 93.1737 40.3838C93.5276 39.973 93.7804 39.6159 93.9321 39.3126C94.0838 39.0092 94.1596 38.6838 94.1596 38.3362C94.1596 38.0076 94.0648 37.7516 93.8752 37.5684C93.6856 37.3788 93.4328 37.284 93.1169 37.284C92.8578 37.284 92.6302 37.3377 92.4343 37.4451C92.2384 37.5526 92.0299 37.7295 91.8087 37.976L91.2399 37.521C91.499 37.1987 91.7866 36.9585 92.1026 36.8005C92.4185 36.6425 92.7724 36.5635 93.1643 36.5635ZM99.1564 39.597C100.047 39.9572 100.493 40.526 100.493 41.3033C100.493 41.6509 100.398 41.9637 100.209 42.2418C100.025 42.5135 99.7663 42.7284 99.4313 42.8864C99.0964 43.038 98.7172 43.1139 98.2938 43.1139C97.864 43.1139 97.4849 43.038 97.1562 42.8864C96.8276 42.7347 96.5717 42.523 96.3884 42.2512C96.2115 41.9795 96.123 41.6698 96.123 41.3222C96.123 40.9304 96.2273 40.6018 96.4358 40.3364C96.6507 40.071 96.9635 39.8498 97.3743 39.6728C97.0393 39.5022 96.7897 39.2968 96.6254 39.0566C96.4674 38.8102 96.3884 38.5226 96.3884 38.194C96.3884 37.8527 96.4769 37.5589 96.6538 37.3124C96.8371 37.0659 97.0741 36.8795 97.3648 36.7531C97.6618 36.6267 97.9778 36.5635 98.3127 36.5635C98.6414 36.5635 98.951 36.6236 99.2417 36.7436C99.5388 36.8637 99.7789 37.047 99.9622 37.2935C100.145 37.5336 100.237 37.8243 100.237 38.1656C100.237 38.4816 100.149 38.7533 99.9717 38.9808C99.7947 39.2083 99.523 39.4137 99.1564 39.597ZM98.3127 37.2176C97.9841 37.2176 97.7219 37.3029 97.5259 37.4736C97.3364 37.6442 97.2416 37.8875 97.2416 38.2035C97.2416 38.5068 97.3332 38.7375 97.5165 38.8955C97.7061 39.0535 98.0062 39.1988 98.417 39.3316L98.5782 39.3884C98.8626 39.2241 99.0679 39.0503 99.1943 38.8671C99.3207 38.6838 99.3839 38.4594 99.3839 38.194C99.3839 37.897 99.2891 37.66 99.0995 37.483C98.9163 37.3061 98.654 37.2176 98.3127 37.2176ZM98.3033 42.4219C98.6951 42.4219 99.0047 42.3208 99.2323 42.1185C99.4661 41.9163 99.583 41.6477 99.583 41.3128C99.583 41.0853 99.5388 40.8957 99.4503 40.744C99.3618 40.586 99.2196 40.4501 99.0237 40.3364C98.8278 40.2163 98.5529 40.0962 98.199 39.9762L97.962 39.8908C97.646 40.0425 97.4122 40.2353 97.2605 40.4691C97.1088 40.6966 97.033 40.981 97.033 41.3222C97.033 41.6698 97.1468 41.9416 97.3743 42.1375C97.6018 42.3271 97.9114 42.4219 98.3033 42.4219ZM107.995 38.0044L106.299 43.0001H105.246L103.521 38.0044H104.469L105.777 42.2228L107.076 38.0044H107.995ZM111.154 36.6583V43.0001H110.282V37.5873L108.803 38.4879L108.424 37.8717L110.386 36.6583H111.154ZM113.321 41.7962C113.511 41.7962 113.669 41.8594 113.795 41.9858C113.921 42.1122 113.985 42.267 113.985 42.4503C113.985 42.6336 113.921 42.7916 113.795 42.9243C113.669 43.0507 113.511 43.1139 113.321 43.1139C113.138 43.1139 112.983 43.0507 112.857 42.9243C112.73 42.7916 112.667 42.6336 112.667 42.4503C112.667 42.267 112.73 42.1122 112.857 41.9858C112.983 41.8594 113.138 41.7962 113.321 41.7962ZM117.004 36.5635C117.705 36.5635 118.233 36.8448 118.587 37.4072C118.947 37.9633 119.127 38.7723 119.127 39.834C119.127 40.8957 118.947 41.7077 118.587 42.2702C118.233 42.8327 117.705 43.1139 117.004 43.1139C116.302 43.1139 115.772 42.8327 115.411 42.2702C115.058 41.7077 114.881 40.8957 114.881 39.834C114.881 38.7723 115.058 37.9633 115.411 37.4072C115.772 36.8448 116.302 36.5635 117.004 36.5635ZM117.004 37.2555C116.593 37.2555 116.287 37.4578 116.084 37.8622C115.889 38.2667 115.791 38.9239 115.791 39.834C115.791 40.744 115.889 41.4044 116.084 41.8152C116.287 42.2196 116.593 42.4219 117.004 42.4219C117.408 42.4219 117.712 42.2196 117.914 41.8152C118.116 41.4044 118.217 40.744 118.217 39.834C118.217 38.9303 118.116 38.2762 117.914 37.8717C117.712 37.4609 117.408 37.2555 117.004 37.2555Z" fill="#828282"/>
<circle cx="45.5" cy="167.5" r="18.5" fill="white"/>
<path d="M45.6121 167.5C45.6121 165.58 47.1682 164.024 49.0879 164.024C51.0076 164.024 52.5636 165.58 52.5636 167.5C52.5636 169.42 51.0076 170.976 49.0879 170.976C47.1682 170.976 45.6121 169.42 45.6121 167.5Z" fill="#1ABCFE"/>
<path d="M38.6606 174.452C38.6606 172.532 40.2166 170.976 42.1364 170.976H45.6121V174.452C45.6121 176.371 44.0561 177.927 42.1364 177.927C40.2166 177.927 38.6606 176.371 38.6606 174.452Z" fill="#0ACF83"/>
<path d="M45.6121 157.073V164.024H49.0879C51.0076 164.024 52.5636 162.468 52.5636 160.549C52.5636 158.629 51.0076 157.073 49.0879 157.073H45.6121Z" fill="#FF7262"/>
<path d="M38.6606 160.549C38.6606 162.468 40.2166 164.024 42.1363 164.024H45.6121V157.073H42.1363C40.2166 157.073 38.6606 158.629 38.6606 160.549Z" fill="#F24E1E"/>
<path d="M38.6606 167.5C38.6606 169.42 40.2166 170.976 42.1364 170.976H45.6121V164.024H42.1364C40.2166 164.024 38.6606 165.58 38.6606 167.5Z" fill="#A259FF"/>
</svg>
