<svg width="78" height="96" viewBox="0 0 78 96" fill="none" xmlns="http://www.w3.org/2000/svg">
<path d="M26.5427 8.7676C27.2793 6.83405 28.2921 5.05396 29.796 3.61147C35.8115 -2.25057 45.7554 -0.777388 49.8374 6.58852C52.9065 12.1743 56.1598 17.6374 59.321 23.1618C64.5999 32.3385 69.9402 41.5152 75.1577 50.7226C79.5465 58.4261 74.7894 68.1552 66.0731 69.475C60.7328 70.2729 55.7301 67.8176 52.9679 63.0298C48.3335 54.958 43.6684 46.8862 39.034 38.8451C38.942 38.6609 38.8192 38.5075 38.6964 38.354C38.2054 37.955 37.9905 37.3719 37.6836 36.8501C35.6273 33.2286 33.5096 29.6377 31.4533 26.0468C30.1336 23.7143 28.7525 21.4124 27.4327 19.0799C26.2358 16.9929 25.6833 14.7217 25.7447 12.3278C25.8368 11.1001 25.9902 9.87249 26.5427 8.7676Z" fill="#3C8BD9"/>
<path d="M26.543 8.76709C26.2668 9.87198 26.0212 10.9769 25.9599 12.1431C25.8678 14.7212 26.5123 17.1151 27.8013 19.3556C31.1774 25.1562 34.5534 30.9876 37.8988 36.8189C38.2057 37.3407 38.4512 37.8624 38.7581 38.3535C36.9166 41.5454 35.0752 44.7066 33.203 47.8985C30.6249 52.3487 28.0469 56.8296 25.4381 61.2799C25.3153 61.2799 25.2846 61.2185 25.254 61.1264C25.2233 60.8809 25.3153 60.6661 25.3767 60.4205C26.6351 55.8168 25.5916 51.7349 22.4304 48.2361C20.4968 46.1184 18.0415 44.9214 15.2179 44.5224C11.5349 44.0007 8.28167 44.9521 5.366 47.254C4.84425 47.653 4.50664 48.2361 3.89282 48.543C3.77005 48.543 3.70867 48.4816 3.67798 48.3895C5.15116 45.8422 6.59365 43.2948 8.06683 40.7474C14.1437 30.1896 20.2206 19.6318 26.3281 9.10469C26.3895 8.98193 26.4816 8.88985 26.543 8.76709Z" fill="#FABC04"/>
<path d="M3.80065 48.4822C4.38378 47.9605 4.93623 47.408 5.55005 46.917C13.008 41.0243 24.2104 45.2903 25.837 54.6205C26.236 56.861 26.0211 59.0093 25.3459 61.1577C25.3152 61.3419 25.2845 61.4953 25.2232 61.6795C24.9469 62.1705 24.7014 62.6923 24.3945 63.1834C21.663 67.695 17.6424 69.9354 12.3635 69.5978C6.31733 69.1682 1.56019 64.6258 0.731522 58.6104C0.332535 55.6947 0.915669 52.9632 2.41954 50.4465C2.72645 49.894 3.09475 49.403 3.43235 48.8505C3.58581 48.7278 3.52443 48.4822 3.80065 48.4822Z" fill="#34A852"/>
<path d="M3.79989 48.4819C3.67713 48.6047 3.67713 48.8195 3.46229 48.8502C3.4316 48.6353 3.55436 48.5126 3.67713 48.3591L3.79989 48.4819Z" fill="#FABC04"/>
<path d="M25.2234 61.6792C25.1006 61.4644 25.2234 61.3109 25.3462 61.1575C25.3769 61.1882 25.4382 61.2495 25.4689 61.2802L25.2234 61.6792Z" fill="#E1C025"/>
<path d="M6.53181 79.9099C3.06369 79.9099 0.178711 82.7028 0.178711 86.1402C0.178711 89.5777 3.06369 92.3399 6.53181 92.3399C8.40398 92.3399 9.78508 91.7261 10.89 90.5905C12.0255 89.4549 12.3632 87.8896 12.3632 86.6313C12.3632 86.2323 12.3325 85.864 12.2711 85.5571H6.53181V87.2451H10.6137C10.491 88.1966 10.1841 88.9025 9.69301 89.3935C9.10988 89.9767 8.15845 90.6519 6.53181 90.6519C4.01512 90.6519 2.05088 88.6262 2.05088 86.1402C2.05088 83.6543 4.01512 81.6286 6.53181 81.6286C7.88222 81.6286 8.89504 82.1504 9.60094 82.8563L10.7979 81.6593C9.78508 80.6772 8.43467 79.9099 6.53181 79.9099ZM16.9362 84.3601C14.7571 84.3601 12.9463 86.0482 12.9463 88.4114C12.9463 90.7439 14.7264 92.4626 16.9362 92.4626C19.1459 92.4626 20.926 90.7439 20.926 88.4114C20.926 86.0789 19.1152 84.3601 16.9362 84.3601ZM16.9362 90.8667C15.7392 90.8667 14.6957 89.8539 14.6957 88.4114C14.6957 86.9689 15.7392 85.9561 16.9362 85.9561C18.1331 85.9561 19.1766 86.9382 19.1766 88.4114C19.1766 89.8539 18.1331 90.8667 16.9362 90.8667ZM25.5911 84.3601C23.3813 84.3601 21.6012 86.0482 21.6012 88.4114C21.6012 90.7439 23.3813 92.4626 25.5911 92.4626C27.7702 92.4626 29.581 90.7439 29.581 88.4114C29.581 86.0789 27.8009 84.3601 25.5911 84.3601ZM25.5911 90.8667C24.3941 90.8667 23.3506 89.8539 23.3506 88.4114C23.3506 86.9689 24.3941 85.9561 25.5911 85.9561C26.7881 85.9561 27.8316 86.9382 27.8316 88.4114C27.8316 89.8539 26.8187 90.8667 25.5911 90.8667ZM34.2153 84.3601C32.2204 84.3601 30.4096 86.1096 30.4096 88.3807C30.4096 90.6212 32.2204 92.3706 34.2153 92.3706C35.1668 92.3706 35.9034 91.9409 36.3024 91.4498H36.3637V92.033C36.3637 93.5675 35.5658 94.3962 34.246 94.3962C33.1718 94.3962 32.5273 93.6289 32.2511 92.9844L30.7165 93.6289C31.1462 94.7031 32.3125 95.9921 34.246 95.9921C36.3024 95.9921 38.0211 94.7645 38.0211 91.8181V84.6364H36.3637V85.2809H36.3024C35.9034 84.7898 35.1668 84.3601 34.2153 84.3601ZM34.3688 90.8053C33.1718 90.8053 32.159 89.7925 32.159 88.3807C32.159 86.9689 33.1718 85.9254 34.3688 85.9254C35.5658 85.9254 36.4865 86.9689 36.4865 88.3807C36.4865 89.7925 35.5658 90.8053 34.3688 90.8053ZM39.3101 80.401H41.0595V92.2478H39.3101V80.401ZM45.7553 84.3601C43.6683 84.3601 41.9189 85.9868 41.9189 88.4114C41.9189 90.6826 43.6376 92.4626 45.9394 92.4626C47.8116 92.4626 48.8858 91.3271 49.3155 90.6826L47.9344 89.7618C47.474 90.437 46.8295 90.8667 45.9394 90.8667C45.0187 90.8667 44.3742 90.4677 43.9752 89.6391L49.4075 87.3986L49.2234 86.9382C48.8858 86.0482 47.8423 84.3601 45.7553 84.3601ZM43.6683 88.2886C43.6069 86.7234 44.8959 85.9254 45.786 85.9254C46.4919 85.9254 47.1057 86.263 47.2898 86.7848L43.6683 88.2886Z" fill="#757575"/>
<path d="M52.4773 92.0634L56.5285 81.2908H58.0938L62.145 92.0634H60.6105L59.567 89.1477H55.0554L54.0119 92.0634H52.4773ZM55.5157 87.8587H59.1066L57.3572 83.0095H57.2958L55.5157 87.8587Z" fill="#757575"/>
<path d="M63.5558 91.1734C62.8806 90.4061 62.543 89.4853 62.543 88.3805C62.543 87.3063 62.8806 86.3855 63.5558 85.5876C64.2617 84.8203 65.0597 84.452 66.0418 84.452C66.5942 84.452 67.0853 84.5747 67.515 84.7896C67.9753 85.0351 68.3129 85.3113 68.5585 85.7103H68.6198L68.5585 84.6975V81.2908H69.9396V92.0634H68.6198V91.0506H68.5585C68.3129 91.4189 67.9753 91.7258 67.515 91.9713C67.0546 92.2169 66.5635 92.3089 66.0418 92.3089C65.0597 92.3089 64.231 91.9407 63.5558 91.1734ZM67.9139 90.314C68.3743 89.8229 68.5892 89.1784 68.5892 88.3805C68.5892 87.6132 68.3743 86.9687 67.9139 86.4776C67.4843 85.9865 66.9318 85.741 66.2566 85.741C65.5814 85.741 65.029 85.9865 64.5993 86.4776C64.1389 86.9687 63.9241 87.6132 63.9241 88.3805C63.9241 89.1477 64.1389 89.7923 64.5993 90.2833C65.0597 90.7744 65.6121 91.0199 66.2566 91.0199C66.9318 91.0506 67.4843 90.8051 67.9139 90.314Z" fill="#757575"/>
<path d="M76.3242 91.6337C75.7717 92.0633 75.0658 92.3089 74.2065 92.3089C73.4699 92.3089 72.8254 92.1247 72.2423 91.7257C71.6898 91.3267 71.2908 90.8357 71.0453 90.1912L72.2729 89.6694C72.4571 90.0991 72.7026 90.4674 73.0709 90.7129C73.4085 90.9585 73.8075 91.0812 74.2065 91.0812C74.6362 91.0812 75.0045 90.9891 75.3114 90.805C75.6183 90.6208 75.7411 90.3753 75.7411 90.1298C75.7411 89.6694 75.3728 89.3011 74.6669 89.0863L73.4085 88.7794C71.966 88.4111 71.2601 87.7359 71.2601 86.6924C71.2601 86.0172 71.5364 85.4954 72.0888 85.0657C72.6412 84.6667 73.3471 84.4519 74.1758 84.4519C74.8203 84.4519 75.4035 84.6054 75.9559 84.9123C76.4776 85.2192 76.8459 85.6489 77.0608 86.1706L75.8331 86.6924C75.6797 86.3855 75.4648 86.1399 75.1579 85.9558C74.851 85.7716 74.4827 85.6796 74.0837 85.6796C73.7154 85.6796 73.4085 85.7716 73.1016 85.9558C72.8254 86.1399 72.6719 86.3548 72.6719 86.631C72.6719 87.0607 73.0709 87.3676 73.8689 87.521L74.9738 87.7973C76.447 88.1655 77.1529 88.9021 77.1529 90.007C77.1835 90.6515 76.8766 91.204 76.3242 91.6337Z" fill="#757575"/>
</svg>
