<svg width="104" height="53" viewBox="0 0 104 53" fill="none" xmlns="http://www.w3.org/2000/svg">
<path d="M97.3317 39.6615C93.6475 39.6615 90.6615 42.647 90.6615 46.3306C90.6615 50.0139 93.6475 53 97.3317 53C101.014 53 104.001 50.0139 104.001 46.3306C104.001 42.647 101.014 39.6615 97.3317 39.6615Z" fill="#EE2924"/>
<path d="M6.66928 1.71484C2.986 1.71484 0 4.70093 0 8.38395C0 12.0673 2.986 15.0525 6.66928 15.0525C10.3526 15.0525 13.339 12.0673 13.339 8.38395C13.339 4.70093 10.3526 1.71484 6.66928 1.71484Z" fill="#EE2924"/>
<path d="M1.55219 19.6645H11.7867V52.7542H1.55219V19.6645Z" fill="#100F0D"/>
<path d="M82.3405 24.4904C79.541 21.5077 75.6232 19.6465 71.3436 19.6494C68.1361 19.6474 65.1332 20.6937 62.65 22.4725V0.802883H52.4164V52.7542H62.65V49.8835C65.1303 51.6628 68.1304 52.7088 71.3359 52.7088H71.3436C75.6232 52.7103 79.541 50.8494 82.3405 47.8659C85.1465 44.8915 86.8963 40.7275 86.894 36.1786C86.8963 31.6308 85.1465 27.4646 82.3405 24.4904ZM69.3097 42.8078C65.6273 42.8078 62.6423 39.8206 62.6423 36.1381C62.6423 32.4548 65.6273 29.4696 69.3097 29.4696C72.9936 29.4696 75.9805 32.4548 75.9805 36.1381C75.9805 39.8206 72.9936 42.8078 69.3097 42.8078Z" fill="#100F0D"/>
<path d="M38.8466 19.6645V22.4995C36.3603 20.7033 33.348 19.6471 30.1294 19.6479C25.8559 19.6462 21.9442 21.5074 19.1492 24.49C16.3456 27.4643 14.5995 31.629 14.6013 36.1783C14.5995 40.7272 16.3456 44.8915 19.1492 47.8656C21.9442 50.8499 25.8559 52.7114 30.1294 52.7085H30.138C33.3528 52.7085 36.3634 51.652 38.8466 49.8572V52.7542H49.0811V19.6645H38.8466ZM32.161 42.8075C28.4776 42.8075 25.4929 39.8214 25.4929 36.1377C25.4929 32.4545 28.4776 29.4692 32.161 29.4692C35.8451 29.4692 38.8309 32.4545 38.8309 36.1377C38.8309 39.8214 35.8451 42.8075 32.161 42.8075Z" fill="#100F0D"/>
</svg>
