<svg width="80" height="80" viewBox="0 0 80 80" fill="none" xmlns="http://www.w3.org/2000/svg">
<circle cx="39.9402" cy="39.9998" r="39.9402" fill="white"/>
<path d="M36.2727 62.0126C25.711 60.1226 17.7063 51.0062 17.7063 39.9998C17.7063 27.7705 27.7121 17.7646 39.9414 17.7646C52.1708 17.7646 62.1766 27.7705 62.1766 39.9998C62.1766 51.0062 54.1719 60.1226 43.6102 62.0126L42.3873 61.012H37.4956L36.2727 62.0126Z" fill="url(#paint0_linear_0_2860)"/>
<path d="M48.6105 46.2258L49.6111 40H43.7188V35.6641C43.7188 33.8853 44.3858 32.5512 47.0541 32.5512H49.9446V26.8812C48.3882 26.6589 46.6093 26.4365 45.0529 26.4365C39.9388 26.4365 36.3812 29.5494 36.3812 35.1082V40H30.8224V46.2258H36.3812V61.9016C37.6041 62.1239 38.8271 62.2351 40.05 62.2351C41.2729 62.2351 42.4958 62.1239 43.7188 61.9016V46.2258H48.6105Z" fill="white"/>
<defs>
<linearGradient id="paint0_linear_0_2860" x1="39.9426" y1="60.6884" x2="39.9426" y2="17.7565" gradientUnits="userSpaceOnUse">
<stop stop-color="#0062E0"/>
<stop offset="1" stop-color="#19AFFF"/>
</linearGradient>
</defs>
</svg>
