<svg width="358" height="77" viewBox="0 0 358 77" fill="none" xmlns="http://www.w3.org/2000/svg">
<path d="M6.44498 27.5419L9.8556 17.4056L1.63185 11.8912H11.7044L15.3062 1.02187L18.9719 11.8912H28.9806L20.7569 17.4056L24.2312 27.5419L15.3062 21.0712L6.44498 27.5419ZM37.0437 27.5419L40.4544 17.4056L32.2306 11.8912H42.3031L45.905 1.02187L49.5706 11.8912H59.5794L51.3556 17.4056L54.83 27.5419L45.905 21.0712L37.0437 27.5419ZM67.6425 27.5419L71.0531 17.4056L62.8294 11.8912H72.9019L76.5037 1.02187L80.1694 11.8912H90.1781L81.9544 17.4056L85.4287 27.5419L76.5037 21.0712L67.6425 27.5419ZM98.2412 27.5419L101.652 17.4056L93.4281 11.8912H103.501L107.102 1.02187L110.768 11.8912H120.777L112.553 17.4056L116.027 27.5419L107.102 21.0712L98.2412 27.5419ZM128.84 27.5419L132.251 17.4056L124.027 11.8912H134.099L137.701 1.02187L141.367 11.8912H151.376L143.152 17.4056L146.626 27.5419L137.701 21.0712L128.84 27.5419Z" fill="#FCC82C"/>
<path d="M209.445 27.5419L212.856 17.4056L204.632 11.8912H214.704L218.306 1.02187L221.972 11.8912H231.981L223.757 17.4056L227.231 27.5419L218.306 21.0712L209.445 27.5419ZM240.044 27.5419L243.454 17.4056L235.231 11.8912H245.303L248.905 1.02187L252.571 11.8912H262.579L254.356 17.4056L257.83 27.5419L248.905 21.0712L240.044 27.5419ZM270.642 27.5419L274.053 17.4056L265.829 11.8912H275.902L279.504 1.02187L283.169 11.8912H293.178L284.954 17.4056L288.429 27.5419L279.504 21.0712L270.642 27.5419ZM301.241 27.5419L304.652 17.4056L296.428 11.8912H306.501L310.102 1.02187L313.768 11.8912H323.777L315.553 17.4056L319.027 27.5419L310.102 21.0712L301.241 27.5419ZM331.84 27.5419L335.251 17.4056L327.027 11.8912H337.099L340.701 1.02187L344.367 11.8912H354.376L346.152 17.4056L349.626 27.5419L340.701 21.0712L331.84 27.5419Z" fill="#FCC82C"/>
<path d="M238.446 65.4024C237.184 65.3321 235.957 64.9598 234.868 64.3168C233.78 63.6738 232.861 62.7788 232.191 61.7072C233 55.2586 235.354 53.254 238.47 53.254C241.586 53.254 243.953 55.6692 243.953 59.292C243.953 62.9148 241.537 65.33 238.47 65.33M238.47 49.2206C236.271 49.1315 234.111 49.818 232.367 51.1601C230.624 52.5022 229.407 54.4145 228.93 56.5628C227.896 54.3971 227.114 52.12 226.599 49.7761H218.907V59.3161C218.907 62.7819 217.337 65.3541 214.258 65.3541C211.178 65.3541 209.427 62.794 209.427 59.3161V49.7761H205.007V59.3161C204.907 61.9598 205.818 64.5422 207.556 66.5376C208.403 67.4608 209.439 68.1917 210.593 68.6812C211.747 69.1707 212.993 69.4074 214.246 69.3754C219.571 69.3754 223.303 65.2817 223.303 59.4248V52.9762C224.207 56.4463 225.702 59.7347 227.722 62.6974L225.356 76.1984H229.848L231.406 66.6342C231.921 67.0782 232.47 67.4819 233.048 67.8418C234.549 68.7896 236.274 69.3229 238.047 69.3875H238.458C239.777 69.4012 241.086 69.1478 242.305 68.6425C243.524 68.1373 244.628 67.3906 245.551 66.4474C246.474 65.5042 247.196 64.3841 247.675 63.1544C248.154 61.9247 248.379 60.6108 248.336 59.292C248.367 57.9779 248.133 56.6711 247.649 55.4492C247.165 54.2273 246.44 53.1152 245.517 52.1791C244.594 51.2429 243.493 50.5018 242.278 49.9998C241.064 49.4978 239.76 49.2451 238.446 49.2568" fill="black"/>
<path d="M301.99 51.8772V49.8484H297.643V68.7232H302.05V61.3327C302.05 56.7801 302.461 53.5075 308.571 53.9301V49.6311C305.721 49.4137 303.499 50.0054 301.99 51.8893" fill="black"/>
<path d="M271.45 49.8364L268.262 63.0476L264.857 49.8364H259.253L255.848 63.0476L252.66 49.8364H248.204L253.095 68.7353H258.384L262.055 55.3189L265.69 68.7353H270.979L276.148 49.8364H271.45Z" fill="black"/>
<path d="M285.832 65.4145C282.704 65.4145 280.362 62.9389 280.362 59.3765C280.362 55.8141 282.777 53.3385 285.832 53.3385C288.887 53.3385 291.363 55.6691 291.363 59.2919C291.363 62.9147 288.948 65.3299 285.88 65.3299M285.88 49.2085C284.559 49.1899 283.247 49.4393 282.025 49.9416C280.803 50.444 279.695 51.1888 278.768 52.1312C277.841 53.0736 277.115 54.1939 276.634 55.4247C276.152 56.6554 275.925 57.971 275.966 59.2919C275.92 60.6174 276.141 61.9387 276.616 63.1769C277.091 64.4151 277.811 65.5449 278.732 66.499C279.653 67.4531 280.757 68.2119 281.978 68.7301C283.199 69.2483 284.512 69.5154 285.838 69.5154C287.164 69.5154 288.477 69.2483 289.698 68.7301C290.919 68.2119 292.023 67.4531 292.944 66.499C293.865 65.5449 294.585 64.4151 295.06 63.1769C295.536 61.9387 295.757 60.6174 295.71 59.2919C295.743 57.9785 295.511 56.6719 295.028 55.4501C294.545 54.2282 293.821 53.116 292.899 52.1797C291.977 51.2434 290.877 50.5021 289.663 49.9999C288.449 49.4978 287.146 49.245 285.832 49.2568" fill="black"/>
<path d="M314.875 59.4491H315.89L322.036 68.7356H327L319.935 58.4347C321.634 57.7341 323.086 56.5433 324.106 55.0141C325.125 53.4848 325.666 51.6866 325.659 49.8487H321.276C321.276 53.9183 318.063 55.464 314.875 55.464V42.3857H310.468V68.7356H314.863L314.875 59.4491Z" fill="black"/>
<path d="M178 3L178 76" stroke="#160A52" stroke-opacity="0.3"/>
<path d="M113.425 55.1089H110.253C108.203 55.1089 107.08 56.6422 107.08 59.2988V68.8173H100.947V55.1089H98.3812C96.3317 55.1089 95.2083 56.6422 95.2083 59.2988V68.8173H89.0752V49.9929H95.2083V52.8621C96.2255 50.6153 97.5614 49.9929 99.6108 49.9929H107.08V52.8621C108.097 50.6153 109.433 49.9929 111.482 49.9929H113.532L113.425 55.1089ZM87.633 60.8473H74.9418C75.2454 63.003 76.5813 64.1264 78.7218 64.1264C80.3614 64.1264 81.4848 63.4129 81.8946 62.2895L87.3142 63.8228C85.9783 67.1018 82.7144 69.045 78.7218 69.045C72.0726 69.045 69.006 63.8228 69.006 59.3292C69.006 54.9267 71.6627 49.7045 78.3119 49.7045C85.3711 49.7045 87.7241 55.033 87.7241 59.0104C87.7393 59.9212 87.7393 60.4374 87.633 60.8473ZM81.8036 57.2646C81.6973 55.625 80.4676 54.198 78.4334 54.198C76.4902 54.198 75.3668 55.0178 74.9569 57.2646H81.8036ZM58.3642 68.8173H63.6927L70.4482 50.084H64.2999L61.0208 61.0295L57.7417 49.9777H51.6086L58.3642 68.8173ZM33.3915 68.8173H39.4335V55.1089H45.263V68.8173H51.305V49.9929H39.4335V48.8695C39.4335 47.6399 40.3595 46.8201 41.6803 46.8201H45.263V41.7041H40.7694C36.3669 41.7041 33.4067 44.467 33.4067 48.4596V49.9929H29.915V55.1089H33.3915V68.8173Z" fill="#404145"/>
<path d="M117.22 69.3336C119.269 69.3336 121 67.5877 121 65.5535C121 63.5041 119.254 61.7734 117.22 61.7734C115.186 61.7734 113.44 63.5192 113.44 65.5535C113.425 67.6029 115.17 69.3336 117.22 69.3336Z" fill="#1DBF73"/>
<path d="M137.5 69C144.952 69 151 62.952 151 55.5C151 48.048 144.952 42 137.5 42C130.048 42 124 48.048 124 55.5C124 62.952 130.048 69 137.5 69Z" fill="#B322FF"/>
<path d="M137.5 42C144.952 42 151 48.048 151 55.5C151 62.952 144.952 69 137.5 69" fill="#9D1FDF"/>
<path d="M149.853 55.5C149.853 62.3175 144.318 67.8525 137.501 67.8525C130.683 67.8525 125.148 62.3175 125.148 55.5C125.148 48.6825 130.683 43.1475 137.501 43.1475C144.318 43.1475 149.853 48.6825 149.853 55.5Z" stroke="white" stroke-width="0.135"/>
<path d="M129.494 54.5552H131.789V53.8802H130.263V50.9507H129.494V54.5552ZM132.585 54.5552H135.137V53.8937H133.355V53.0567H135.096V52.3952H133.355V51.6122H135.137V50.9507H132.585V54.5552ZM137.013 54.5552H137.972L139.362 50.9507H138.485L137.499 53.7182L136.5 50.9507H135.623L137.013 54.5552ZM139.97 54.5552H142.521V53.8937H140.739V53.0567H142.481V52.3952H140.739V51.6122H142.521V50.9507H139.97V54.5552ZM143.385 54.5552H145.68V53.8802H144.155V50.9507H143.385V54.5552ZM132.356 59.9552H133.125V57.0257H134.178V56.3507H131.303V57.0257H132.356V59.9552ZM137.688 59.9552H138.498L139.524 56.3507H138.66L138.039 58.9562L137.364 56.3507H136.77L136.082 58.9562L135.447 56.3507H134.583L135.609 59.9552H136.419L137.04 57.4847L137.688 59.9552ZM139.889 58.1597C139.889 59.2397 140.685 60.0227 141.765 60.0227C142.859 60.0227 143.655 59.2397 143.655 58.1597C143.655 57.0797 142.859 56.2967 141.765 56.2967C140.685 56.2967 139.889 57.0662 139.889 58.1597ZM142.859 58.1597C142.859 58.8347 142.427 59.3477 141.765 59.3477C141.104 59.3477 140.672 58.8347 140.672 58.1597C140.672 57.4847 141.104 56.9717 141.765 56.9717C142.427 56.9717 142.859 57.4847 142.859 58.1597Z" fill="white"/>
<path d="M344 42L355.691 48.75V62.25L344 69L332.309 62.25V48.75L344 42Z" fill="#F66DBC"/>
<path d="M344.706 50.5013L345.806 53.4676L348.85 53.6375C349 53.6455 349.144 53.7017 349.265 53.7981C349.384 53.8945 349.473 54.0267 349.521 54.178C349.568 54.3293 349.572 54.4918 349.53 54.645C349.49 54.7963 349.406 54.9323 349.289 55.036L346.919 57.0411L347.711 60.1254C347.748 60.2811 347.74 60.4448 347.688 60.5949C347.637 60.7437 347.543 60.874 347.418 60.9693C347.294 61.0619 347.147 61.1138 346.995 61.1175C346.843 61.1205 346.693 61.0751 346.567 60.9878L344 59.2501L341.439 60.9761C341.315 61.0638 341.166 61.11 341.013 61.1082C340.861 61.1057 340.713 61.0554 340.591 60.9643C340.465 60.8706 340.371 60.7418 340.318 60.5943C340.265 60.4443 340.254 60.2822 340.289 60.1267L341.075 57.0554L338.712 55.0366C338.595 54.9329 338.511 54.7969 338.47 54.6456C338.429 54.4922 338.432 54.3302 338.48 54.1786C338.526 54.0294 338.615 53.8973 338.736 53.7987C338.856 53.7023 339.001 53.6461 339.151 53.6381L342.194 53.4682L343.295 50.5019C343.352 50.3537 343.449 50.2264 343.575 50.1375C343.699 50.0482 343.848 50.0001 344 50C344.153 49.9999 344.301 50.0478 344.425 50.1368C344.551 50.2264 344.648 50.353 344.706 50.5013Z" stroke="white" stroke-width="0.992647" stroke-linecap="round" stroke-linejoin="round"/>
</svg>
