<svg width="20" height="74" viewBox="0 0 20 74" fill="none" xmlns="http://www.w3.org/2000/svg">
<rect x="15.6315" width="0.727273" height="8" fill="#425DF9"/>
<rect x="20.0001" y="3.63623" width="0.727273" height="8" transform="rotate(90.3941 20.0001 3.63623)" fill="#425DF9"/>
<path d="M10.4457 23.9307C10.6055 23.3739 11.3945 23.3739 11.5543 23.9307C11.9984 25.4801 12.8295 26.8911 13.9692 28.0308C15.1089 29.1705 16.5199 30.0016 18.0693 30.4457C18.6249 30.6052 18.6251 31.3928 18.0693 31.5516C16.5198 31.9965 15.1089 32.828 13.9692 33.9682C12.8295 35.1084 11.9985 36.5196 11.5543 38.0693C11.3945 38.6261 10.6055 38.6261 10.4457 38.0693C10.002 36.5194 9.17111 35.1079 8.03135 33.9677C6.89159 32.8274 5.48042 31.996 3.93068 31.5516C3.37491 31.3928 3.37512 30.6052 3.93068 30.4457C5.48022 30.0018 6.8913 29.1708 8.03107 28.0311C9.17084 26.8913 10.0018 25.4802 10.4457 23.9307Z" fill="#425DF9"/>
<path d="M17.7433 64.2244L17.7438 64.2242C17.9691 64.1598 17.9714 63.8383 17.7434 63.7727C17.7434 63.7727 17.7433 63.7727 17.7433 63.7727L17.7433 64.2244ZM17.7433 64.2244C15.9557 64.7375 14.328 65.6969 13.0132 67.0122C11.6984 68.3275 10.7397 69.9556 10.2273 71.7434M17.7433 64.2244L17.8548 64.6129C16.1331 65.1072 14.5654 66.0312 13.2991 67.298C12.0328 68.5648 11.1094 70.1329 10.6159 71.8548M10.6159 71.8548L10.2273 71.7433C10.2273 71.7433 10.2273 71.7434 10.2273 71.7434M10.6159 71.8548C10.4383 72.4734 9.56172 72.4734 9.38412 71.8548H10.6159ZM10.2273 71.7434C10.1617 71.9715 9.83848 71.9715 9.77276 71.7435M10.2273 71.7434L9.77276 71.7435M9.77276 71.7435C9.26083 69.9555 8.3023 68.3271 6.98741 67.0116C5.67251 65.6962 4.0445 64.737 2.25662 64.2243L2.25625 64.2242C2.03089 64.1598 2.02858 63.8384 2.25653 63.7727C4.04419 63.2606 5.67212 62.302 6.98704 60.987C8.30196 59.6721 9.26061 58.0442 9.77274 56.2565M9.77276 71.7435L10.2273 56.2566M9.77274 56.2565C9.77272 56.2566 9.77269 56.2567 9.77267 56.2567L9.38412 56.1452L9.77274 56.2565ZM9.77274 56.2565C9.83842 56.0285 10.1616 56.0285 10.2273 56.2566M10.2273 56.2566C10.2273 56.2566 10.2273 56.2567 10.2273 56.2567L10.6159 56.1452L10.2273 56.2566Z" stroke="black" stroke-width="0.808507"/>
</svg>
