<svg width="103" height="57" viewBox="0 0 103 57" fill="none" xmlns="http://www.w3.org/2000/svg">
<path d="M13.8591 23.2609L13.7568 21.0993C13.5168 21.4069 11.7311 23.7419 7.71928 23.7419C4.39202 23.7419 0.000427246 21.58 0.000427246 14.9581C0.000427246 10.7062 2.7447 6.28097 8.16527 6.28097C11.6649 6.28097 13.2425 8.30458 13.5518 8.68053V0H17.6674V23.2609H13.8591ZM8.9206 9.64084C6.13925 9.64084 4.25537 11.8375 4.25537 14.9577C4.25537 18.4573 6.17633 20.3467 8.88559 20.3467C11.4912 20.3467 13.6205 18.3897 13.6205 14.9577C13.6202 11.6641 11.5948 9.64084 8.9206 9.64084Z" fill="#17140F"/>
<path d="M52.3497 23.2615L52.2484 21.1325C52.1447 21.3059 50.5324 23.7425 46.8604 23.7425C44.9058 23.7425 43.4645 23.1582 42.4362 22.1649C40.8912 20.6199 40.6866 18.735 40.6866 16.4697V6.86353H44.8021V16.16C44.8021 17.465 44.8687 18.5259 45.6591 19.2823C46.2435 19.8666 47.0654 20.1739 48.1654 20.1739C49.0224 20.1739 50.119 19.8663 50.8747 19.1089C51.7677 18.2183 51.9377 17.0516 52.0053 15.6124C52.0434 14.993 52.0434 14.376 52.0434 13.723V6.86353H56.16V23.2615H52.3497Z" fill="#17140F"/>
<path d="M69.0551 23.7416C65.3145 23.7416 63.6702 21.5449 63.4972 21.3049L63.3959 23.2606H59.5876V0H63.7042V8.88825C63.9116 8.61358 65.7285 6.28062 69.5684 6.28062C72.9664 6.28062 77.2546 8.61358 77.2546 15.0624C77.2546 19.42 74.408 23.7416 69.0551 23.7416ZM68.3705 9.71259C65.7289 9.71259 63.6366 11.7338 63.6366 15.094C63.6366 18.3557 65.6592 20.3793 68.3365 20.3793C71.0794 20.3793 73.0004 18.2513 73.0004 15.094C73.0004 11.6641 71.1134 9.71259 68.3705 9.71259Z" fill="#17140F"/>
<path d="M83.8264 0H79.7053V23.2609H83.8264V0Z" fill="#17140F"/>
<path d="M90.6504 16.3324C90.6504 18.1497 91.9901 20.5156 95.2469 20.5156C98.0956 20.5156 99.7419 18.8683 100.222 18.3557L102.52 20.4827C101.422 21.7527 99.1246 23.7742 95.1117 23.7742C89.2094 23.7742 86.4301 19.727 86.4301 15.0937C86.4301 10.5342 89.3127 6.28027 95.0396 6.28027C96.5169 6.28027 98.7486 6.5879 100.53 8.37221C102.726 10.5689 103 13.3777 103 16.3321H90.6504V16.3324ZM94.9386 9.40084C91.68 9.40084 90.7204 12.4218 90.7204 13.378H98.9536C98.9536 12.2148 98.0956 9.40084 94.9386 9.40084Z" fill="#17140F"/>
<path d="M8.85151 56.155C3.08864 56.155 0 52.2029 0 47.4017C0 42.9088 2.91525 38.657 8.95314 38.657C13.8264 38.657 15.9187 41.6745 16.0897 41.9496L13.5864 44.1431C13.3083 43.9025 11.8008 42.0508 9.0915 42.0508C5.83257 42.0508 4.25529 44.6588 4.25529 47.4357C4.25529 50.2171 5.79789 52.7591 9.02387 52.7591C11.8354 52.7591 13.3454 50.9714 13.6877 50.5594C14.5117 51.2817 15.332 51.9966 16.1594 52.6853C16.021 52.926 13.8927 56.155 8.85151 56.155Z" fill="#17140F"/>
<path d="M22.8806 32.8413H18.764V55.6374H22.8806V32.8413Z" fill="#17140F"/>
<path d="M30.5472 39.2388H26.4306V55.6381H30.5472V39.2388Z" fill="#17140F"/>
<path d="M42.1267 56.155C36.3638 56.155 33.2751 52.2029 33.2751 47.4017C33.2751 42.9088 36.1904 38.657 42.2283 38.657C47.1016 38.657 49.1939 41.6745 49.3648 41.9496L46.8616 44.1431C46.5835 43.9025 45.0759 42.0508 42.3666 42.0508C39.1077 42.0508 37.5304 44.6588 37.5304 47.4357C37.5304 50.2171 39.073 52.7591 42.299 52.7591C45.1106 52.7591 46.6206 50.9714 46.9629 50.5594C47.7869 51.2817 48.6071 51.9966 49.4345 52.6853C49.2962 52.926 47.1678 56.155 42.1267 56.155Z" fill="#17140F"/>
<path d="M62.8991 55.6374L56.0032 47.9872V55.6374H51.8866V32.8413H56.0032V46.2015C58.3001 43.8685 60.6018 41.5397 62.8991 39.2383H67.9052C65.2636 41.8144 62.6261 44.3842 60.0161 46.9922L68.0783 55.6377L62.8991 55.6374Z" fill="#17140F"/>
<path d="M29.2794 15.0277C32.6121 15.0277 35.5198 16.8388 37.0762 19.5312C37.8442 18.2063 38.2851 16.6699 38.2851 15.0277C38.2851 10.0552 34.2519 6.021 29.2794 6.021C24.3034 6.021 20.2744 10.0552 20.2744 15.0277C20.2744 16.6699 20.7139 18.2059 21.4823 19.5312C23.04 16.8388 25.9466 15.0277 29.2794 15.0277Z" fill="#BFD531"/>
<path d="M29.2798 24.0348C25.9471 24.0348 23.0404 22.2237 21.4831 19.5312C20.7147 20.8551 20.2752 22.3916 20.2752 24.0348C20.2752 29.0083 24.3042 33.0387 29.2802 33.0387C34.2527 33.0387 38.2859 29.0087 38.2859 24.0348C38.2859 22.3916 37.8454 20.8555 37.077 19.5312C35.5206 22.2237 32.6126 24.0348 29.2798 24.0348Z" fill="#4AA948"/>
<path d="M29.2796 24.0351C32.6124 24.0351 35.5201 22.224 37.0764 19.5316C35.5201 16.8392 32.612 15.0281 29.2796 15.0281C25.9469 15.0281 23.0402 16.8392 21.4828 19.5316C23.0402 22.224 25.9469 24.0351 29.2796 24.0351Z" fill="#00703C"/>
</svg>
