<svg width="317" height="209" viewBox="0 0 317 209" fill="none" xmlns="http://www.w3.org/2000/svg">
<rect width="317" height="209" rx="5" fill="#EFEFFF"/>
<rect x="100" y="38" width="117" height="132.913" rx="1.80835" fill="white"/>
<path d="M108.709 45.8585V53.0427H112.154L111.937 54.7015H106.616V45.8585H108.709ZM116.195 45.6416C117.455 45.6416 118.433 46.0457 119.13 46.8538C119.836 47.662 120.19 48.8019 120.19 50.2736C120.19 51.2349 120.028 52.0644 119.705 52.7619C119.39 53.4595 118.931 53.9955 118.327 54.3698C117.731 54.7356 117.021 54.9185 116.195 54.9185C115.37 54.9185 114.66 54.7356 114.064 54.3698C113.469 54.004 113.01 53.4765 112.686 52.7875C112.372 52.0899 112.214 51.2519 112.214 50.2736C112.214 49.3209 112.372 48.4957 112.686 47.7981C113.01 47.1005 113.469 46.5688 114.064 46.203C114.66 45.8287 115.37 45.6416 116.195 45.6416ZM116.195 47.1728C115.592 47.1728 115.141 47.4195 114.843 47.9129C114.554 48.3978 114.409 49.1847 114.409 50.2736C114.409 51.3625 114.558 52.1537 114.856 52.6471C115.153 53.1405 115.6 53.3872 116.195 53.3872C116.808 53.3872 117.259 53.1448 117.548 52.6599C117.846 52.1665 117.995 51.371 117.995 50.2736C117.995 49.1762 117.846 48.3851 117.548 47.9002C117.25 47.4153 116.799 47.1728 116.195 47.1728ZM125.273 45.6416C126.413 45.6416 127.396 46.0031 128.221 46.7262L127.162 47.8364C126.847 47.5982 126.554 47.428 126.281 47.326C126.018 47.2154 125.712 47.1601 125.363 47.1601C124.708 47.1601 124.185 47.4195 123.793 47.9385C123.402 48.4489 123.206 49.2273 123.206 50.2736C123.206 51.4051 123.355 52.209 123.653 52.6854C123.951 53.1533 124.414 53.3872 125.044 53.3872C125.486 53.3872 125.886 53.2894 126.243 53.0937V51.0903H125.095L124.891 49.6101H128.272V53.9869C127.813 54.2847 127.307 54.5144 126.754 54.676C126.201 54.8377 125.648 54.9185 125.095 54.9185C123.751 54.9185 122.738 54.5271 122.058 53.7445C121.377 52.9533 121.037 51.7964 121.037 50.2736C121.037 49.3038 121.22 48.4702 121.586 47.7726C121.96 47.075 122.466 46.5476 123.104 46.1903C123.751 45.8245 124.474 45.6416 125.273 45.6416ZM133.243 45.6416C134.502 45.6416 135.48 46.0457 136.178 46.8538C136.884 47.662 137.237 48.8019 137.237 50.2736C137.237 51.2349 137.075 52.0644 136.752 52.7619C136.437 53.4595 135.978 53.9955 135.374 54.3698C134.778 54.7356 134.068 54.9185 133.243 54.9185C132.418 54.9185 131.707 54.7356 131.112 54.3698C130.516 54.004 130.057 53.4765 129.734 52.7875C129.419 52.0899 129.261 51.2519 129.261 50.2736C129.261 49.3209 129.419 48.4957 129.734 47.7981C130.057 47.1005 130.516 46.5688 131.112 46.203C131.707 45.8287 132.418 45.6416 133.243 45.6416ZM133.243 47.1728C132.639 47.1728 132.188 47.4195 131.89 47.9129C131.601 48.3978 131.456 49.1847 131.456 50.2736C131.456 51.3625 131.605 52.1537 131.903 52.6471C132.201 53.1405 132.647 53.3872 133.243 53.3872C133.855 53.3872 134.306 53.1448 134.595 52.6599C134.893 52.1665 135.042 51.371 135.042 50.2736C135.042 49.1762 134.893 48.3851 134.595 47.9002C134.298 47.4153 133.847 47.1728 133.243 47.1728Z" fill="#EFEFFF"/>
<rect x="105.787" y="62.4125" width="62.7496" height="3.79753" fill="#EFEFFF"/>
<rect x="105.787" y="70.7308" width="105.607" height="3.79753" fill="#EFEFFF"/>
<rect x="105.787" y="79.0493" width="93.1298" height="3.79753" fill="#EFEFFF"/>
<rect x="105.787" y="84.4744" width="93.1298" height="3.79753" fill="#EFEFFF"/>
<g opacity="0.3">
<rect x="105.787" y="160.425" width="71.6105" height="3.79753" fill="#5D50FF"/>
<rect x="194.034" y="160.425" width="17.3601" height="3.79753" rx="1.89876" fill="#5D50FF"/>
<rect width="9.04173" height="0.542504" transform="matrix(1 0 0 -1 198.193 162.595)" fill="#999999"/>
</g>
<path d="M200.4 98.1041V100.418H201.51L201.44 100.952H199.726V98.1041H200.4ZM202.811 98.0343C203.217 98.0343 203.532 98.1644 203.756 98.4247C203.984 98.6849 204.097 99.052 204.097 99.526C204.097 99.8355 204.045 100.103 203.941 100.327C203.84 100.552 203.692 100.725 203.497 100.845C203.306 100.963 203.077 101.022 202.811 101.022C202.545 101.022 202.317 100.963 202.125 100.845C201.933 100.727 201.785 100.557 201.681 100.336C201.58 100.111 201.529 99.841 201.529 99.526C201.529 99.2191 201.58 98.9534 201.681 98.7288C201.785 98.5041 201.933 98.3329 202.125 98.2151C202.317 98.0946 202.545 98.0343 202.811 98.0343ZM202.811 98.5274C202.617 98.5274 202.471 98.6069 202.376 98.7657C202.282 98.9219 202.236 99.1753 202.236 99.526C202.236 99.8766 202.284 100.131 202.38 100.29C202.475 100.449 202.619 100.529 202.811 100.529C203.008 100.529 203.154 100.451 203.247 100.294C203.343 100.136 203.391 99.8794 203.391 99.526C203.391 99.1726 203.343 98.9178 203.247 98.7616C203.151 98.6055 203.006 98.5274 202.811 98.5274ZM205.734 98.0343C206.102 98.0343 206.418 98.1507 206.684 98.3836L206.343 98.7411C206.241 98.6644 206.147 98.6096 206.059 98.5767C205.974 98.5411 205.876 98.5233 205.763 98.5233C205.552 98.5233 205.384 98.6069 205.258 98.774C205.132 98.9383 205.069 99.189 205.069 99.526C205.069 99.8903 205.117 100.149 205.213 100.303C205.308 100.453 205.458 100.529 205.661 100.529C205.803 100.529 205.932 100.497 206.047 100.434V99.789H205.677L205.611 99.3123H206.7V100.722C206.552 100.818 206.389 100.892 206.211 100.944C206.033 100.996 205.855 101.022 205.677 101.022C205.244 101.022 204.918 100.896 204.699 100.644C204.48 100.389 204.37 100.016 204.37 99.526C204.37 99.2137 204.429 98.9452 204.547 98.7205C204.667 98.4959 204.83 98.3261 205.036 98.211C205.244 98.0932 205.477 98.0343 205.734 98.0343ZM208.301 98.0343C208.706 98.0343 209.021 98.1644 209.246 98.4247C209.473 98.6849 209.587 99.052 209.587 99.526C209.587 99.8355 209.535 100.103 209.431 100.327C209.33 100.552 209.182 100.725 208.987 100.845C208.795 100.963 208.567 101.022 208.301 101.022C208.035 101.022 207.806 100.963 207.615 100.845C207.423 100.727 207.275 100.557 207.171 100.336C207.069 100.111 207.019 99.841 207.019 99.526C207.019 99.2191 207.069 98.9534 207.171 98.7288C207.275 98.5041 207.423 98.3329 207.615 98.2151C207.806 98.0946 208.035 98.0343 208.301 98.0343ZM208.301 98.5274C208.106 98.5274 207.961 98.6069 207.865 98.7657C207.772 98.9219 207.726 99.1753 207.726 99.526C207.726 99.8766 207.774 100.131 207.869 100.29C207.965 100.449 208.109 100.529 208.301 100.529C208.498 100.529 208.643 100.451 208.736 100.294C208.832 100.136 208.88 99.8794 208.88 99.526C208.88 99.1726 208.832 98.9178 208.736 98.7616C208.641 98.6055 208.495 98.5274 208.301 98.5274Z" fill="#5D50FF"/>
<rect x="113.02" y="104.366" width="55.3185" height="4.96873" fill="#5D50FF"/>
<rect x="113.02" y="118.444" width="46.8717" height="4.96873" fill="#5D50FF"/>
<rect x="113.02" y="139.12" width="39.2669" height="3.0884" fill="#F4F4F4"/>
<rect x="113.02" y="111.322" width="70.8872" height="4.96873" fill="#5D50FF"/>
<rect x="105.877" y="95.7765" width="105.427" height="55.087" stroke="#5D50FF" stroke-width="0.180835"/>
<rect x="172.876" y="124.077" width="36.1669" height="23.6893" fill="#EFEFFF"/>
<path d="M173.057 124.258L209.043 147.586" stroke="#5D50FF" stroke-width="0.180835"/>
<path d="M209.043 124.258L173.057 147.586" stroke="#5D50FF" stroke-width="0.180835"/>
<path d="M248.56 69.0001L265.296 73.4845L249.051 134.113L242.074 139.521L235.601 137.786L232.315 129.629L248.56 69.0001Z" fill="white"/>
<path d="M248.56 69.0001L265.296 73.4845L262.416 84.2335L245.68 79.7491L248.56 69.0001Z" fill="#5D50FF"/>
<path d="M247.599 81.4283L262.125 85.3205L261.478 87.736L246.952 83.8438L247.599 81.4283Z" fill="url(#paint0_linear_118_47)"/>
<path d="M240.276 99.9185L257.012 104.403L254.132 115.152L237.395 110.667L240.276 99.9185Z" fill="#5D50FF"/>
<path d="M239.315 112.347L253.84 116.239L253.193 118.654L238.667 114.762L239.315 112.347Z" fill="url(#paint1_linear_118_47)"/>
<path d="M244.418 84.4594L261.154 88.9438L258.274 99.6927L241.538 95.2083L244.418 84.4594Z" fill="#5D50FF"/>
<path d="M243.457 96.8876L257.983 100.78L257.335 103.195L242.81 99.3031L243.457 96.8876Z" fill="url(#paint2_linear_118_47)"/>
<path d="M236.133 115.378L252.869 119.862L249.989 130.611L233.253 126.127L236.133 115.378Z" fill="#5D50FF"/>
<path d="M235.172 127.806L249.698 131.698L249.051 134.113L234.525 130.221L235.172 127.806Z" fill="url(#paint3_linear_118_47)"/>
<circle cx="239.851" cy="134.976" r="1.58009" transform="rotate(15 239.851 134.976)" fill="#F5F5F5"/>
<path d="M230.06 69.7631H247.386V132.531L242.047 139.559H235.345L230.06 132.531V69.7631Z" fill="#CFCFF4"/>
<path d="M230.06 69.7631H247.386V80.8912H230.06V69.7631Z" fill="white"/>
<path d="M232.348 82.0165H247.386V84.5172H232.348V82.0165Z" fill="url(#paint4_linear_118_47)"/>
<path d="M230.06 101.772H247.386V112.9H230.06V101.772Z" fill="white"/>
<path d="M232.348 114.026H247.386V116.526H232.348V114.026Z" fill="url(#paint5_linear_118_47)"/>
<path d="M230.06 85.7676H247.386V96.8957H230.06V85.7676Z" fill="white"/>
<path d="M232.348 98.021H247.386V100.522H232.348V98.021Z" fill="url(#paint6_linear_118_47)"/>
<path d="M230.06 117.776H247.386V128.905H230.06V117.776Z" fill="white"/>
<path d="M232.348 130.03H247.386V132.531H232.348V130.03Z" fill="url(#paint7_linear_118_47)"/>
<circle cx="238.723" cy="135.745" r="1.58009" fill="#F5F5F5"/>
<rect x="24" y="128.714" width="63" height="7.11291" fill="white"/>
<path d="M24.315 128.769L87 135.773" stroke="#5D50FF" stroke-width="0.183751"/>
<path d="M87 128.769L24.315 135.773" stroke="#5D50FF" stroke-width="0.183751"/>
<rect x="35.0205" y="102.878" width="36.5665" height="23.8877" fill="#DADAFF" stroke="#5D50FF" stroke-width="0.183751"/>
<path d="M35.1124 102.969L71.6789 126.673" stroke="#5D50FF" stroke-width="0.183751"/>
<path d="M71.6788 102.969L35.1123 126.673" stroke="#5D50FF" stroke-width="0.183751"/>
<rect x="59.5715" y="87.226" width="12.1936" height="12.1946" fill="white"/>
<path d="M59.6324 87.319L71.765 99.3274" stroke="#5D50FF" stroke-width="0.183751"/>
<path d="M71.765 87.319L59.6324 99.3274" stroke="#5D50FF" stroke-width="0.183751"/>
<rect x="73.7903" y="73.0001" width="13.2097" height="53.8549" fill="white"/>
<path d="M73.8564 73.4113L87 126.444" stroke="#5D50FF" stroke-width="0.183751"/>
<path d="M87 73.4113L73.8564 126.444" stroke="#5D50FF" stroke-width="0.183751"/>
<defs>
<linearGradient id="paint0_linear_118_47" x1="247.276" y1="82.6361" x2="258.117" y2="85.5411" gradientUnits="userSpaceOnUse">
<stop stop-color="#5D50FF"/>
<stop offset="1" stop-color="white" stop-opacity="0"/>
</linearGradient>
<linearGradient id="paint1_linear_118_47" x1="238.991" y1="113.554" x2="249.833" y2="116.459" gradientUnits="userSpaceOnUse">
<stop stop-color="#5D50FF"/>
<stop offset="1" stop-color="white" stop-opacity="0"/>
</linearGradient>
<linearGradient id="paint2_linear_118_47" x1="243.133" y1="98.0953" x2="253.975" y2="101" gradientUnits="userSpaceOnUse">
<stop stop-color="#5D50FF"/>
<stop offset="1" stop-color="white" stop-opacity="0"/>
</linearGradient>
<linearGradient id="paint3_linear_118_47" x1="234.849" y1="129.014" x2="245.69" y2="131.919" gradientUnits="userSpaceOnUse">
<stop stop-color="#5D50FF"/>
<stop offset="1" stop-color="white" stop-opacity="0"/>
</linearGradient>
<linearGradient id="paint4_linear_118_47" x1="232.348" y1="83.2668" x2="243.572" y2="83.2668" gradientUnits="userSpaceOnUse">
<stop stop-color="white"/>
<stop offset="1" stop-color="white" stop-opacity="0"/>
</linearGradient>
<linearGradient id="paint5_linear_118_47" x1="232.348" y1="115.276" x2="243.572" y2="115.276" gradientUnits="userSpaceOnUse">
<stop stop-color="white"/>
<stop offset="1" stop-color="white" stop-opacity="0"/>
</linearGradient>
<linearGradient id="paint6_linear_118_47" x1="232.348" y1="99.2713" x2="243.572" y2="99.2713" gradientUnits="userSpaceOnUse">
<stop stop-color="white"/>
<stop offset="1" stop-color="white" stop-opacity="0"/>
</linearGradient>
<linearGradient id="paint7_linear_118_47" x1="232.348" y1="131.28" x2="243.572" y2="131.28" gradientUnits="userSpaceOnUse">
<stop stop-color="white"/>
<stop offset="1" stop-color="white" stop-opacity="0"/>
</linearGradient>
</defs>
</svg>
