<svg width="80" height="80" viewBox="0 0 80 80" fill="none" xmlns="http://www.w3.org/2000/svg">
<rect width="80" height="80" fill="#F5F5F5"/>
<g clip-path="url(#clip0_0_1)">
<rect width="1440" height="10879" transform="translate(-626 -725)" fill="white"/>
<rect x="-684" y="-612" width="1590" height="887" fill="url(#paint0_linear_0_1)"/>
<ellipse cx="-0.268555" cy="39.585" rx="1" ry="1.07234" fill="#425DF9" fill-opacity="0.25"/>
<ellipse cx="53.355" cy="39.585" rx="1" ry="1.07234" fill="#425DF9" fill-opacity="0.25"/>
<ellipse cx="26.543" cy="39.585" rx="1" ry="1.07234" fill="#425DF9" fill-opacity="0.25"/>
<ellipse cx="80.167" cy="39.585" rx="1" ry="1.07234" fill="#425DF9" fill-opacity="0.25"/>
<ellipse cx="-0.268555" cy="70.1334" rx="1" ry="1.07234" fill="#425DF9" fill-opacity="0.25"/>
<ellipse cx="53.355" cy="70.1334" rx="1" ry="1.07234" fill="#425DF9" fill-opacity="0.25"/>
<ellipse cx="26.543" cy="70.1334" rx="1" ry="1.07234" fill="#425DF9" fill-opacity="0.25"/>
<ellipse cx="80.167" cy="70.1334" rx="1" ry="1.07234" fill="#425DF9" fill-opacity="0.25"/>
<ellipse cx="-0.268555" cy="9.03669" rx="1" ry="1.07234" fill="#425DF9" fill-opacity="0.25"/>
<ellipse cx="53.355" cy="9.03669" rx="1" ry="1.07234" fill="#425DF9" fill-opacity="0.25"/>
<ellipse cx="26.543" cy="9.03669" rx="1" ry="1.07234" fill="#425DF9" fill-opacity="0.25"/>
<ellipse cx="80.167" cy="9.03669" rx="1" ry="1.07234" fill="#425DF9" fill-opacity="0.25"/>
<circle cx="39.9801" cy="39.9998" r="39.9402" fill="white"/>
<path d="M63.157 28.3721C62.6032 26.3029 60.9771 24.6769 58.908 24.123C55.1615 23.1182 40.1317 23.1182 40.1317 23.1182C40.1317 23.1182 25.102 23.1182 21.3554 24.123C19.2863 24.6769 17.6603 26.3029 17.1064 28.3721C16.1015 32.1186 16.1015 39.9401 16.1015 39.9401C16.1015 39.9401 16.1015 47.7616 17.1064 51.5082C17.6603 53.5773 19.2863 55.2033 21.3554 55.7571C25.102 56.762 40.1317 56.762 40.1317 56.762C40.1317 56.762 55.1615 56.762 58.908 55.7571C60.9771 55.2033 62.6032 53.5773 63.157 51.5082C64.1619 47.7616 64.162 39.9401 64.162 39.9401C64.162 39.9401 64.1579 32.1186 63.157 28.3721Z" fill="#FF0000"/>
<path d="M35.3214 47.1484L47.8073 39.9402L35.3214 32.7319V47.1484Z" fill="white"/>
</g>
<defs>
<linearGradient id="paint0_linear_0_1" x1="111" y1="-612" x2="111" y2="275" gradientUnits="userSpaceOnUse">
<stop stop-color="#D9D9D9" stop-opacity="0"/>
<stop offset="1" stop-color="#AEADFF" stop-opacity="0.2"/>
</linearGradient>
<clipPath id="clip0_0_1">
<rect width="1440" height="10879" fill="white" transform="translate(-626 -725)"/>
</clipPath>
</defs>
</svg>
