<svg width="267" height="30" viewBox="0 0 267 30" fill="none" xmlns="http://www.w3.org/2000/svg">
<path d="M54.7828 19.0504C54.7828 23.1285 51.9646 25.6151 47.0907 25.6151H37.0778V2.42529H46.9581C51.4673 2.42529 54.0202 4.5804 54.0202 8.39327C54.0202 10.7615 53.0256 12.2725 50.9368 13.234C53.5561 14.006 54.7828 16.2274 54.7828 19.0504ZM46.494 5.9824H40.8102V11.9504H46.494C49.2127 11.9504 50.2074 10.8562 50.2074 8.96638C50.2405 6.9439 49.1795 5.9824 46.494 5.9824ZM51.0031 18.7709C51.0031 16.6442 50.0084 15.4175 46.9581 15.4175H40.8244V22.0486H46.9818C50.0416 22.0343 51.0031 20.7413 51.0031 18.752V18.7709Z" fill="black"/>
<path d="M75.5272 7.37494V25.6341H71.7806V22.5838C71.1118 23.6632 70.1726 24.5492 69.056 25.154C67.9394 25.7588 66.6843 26.0615 65.4148 26.032C60.5409 26.032 56.9933 22.0865 56.9933 16.5116C56.9933 10.9368 60.6072 6.99602 65.3816 6.99602C66.6586 6.97123 67.9201 7.27916 69.042 7.88954C70.1639 8.49992 71.1077 9.39174 71.7806 10.4773V7.36073L75.5272 7.37494ZM71.8137 16.4927C71.8137 13.0114 69.3934 10.5579 66.2105 10.5579C63.0276 10.5579 60.773 13.0114 60.773 16.4927C60.773 19.974 63.0607 22.4322 66.2105 22.4322C69.3603 22.4322 71.8137 20.0119 71.8137 16.4927Z" fill="black"/>
<path d="M96.0494 14.1053V25.6339H92.3123V14.8678C92.3123 12.0496 91.0856 10.5576 88.3337 10.5576C85.1176 10.5576 83.3935 12.6464 83.3935 16.1609V25.6339H79.647V7.37473H83.3935V10.3919C83.9974 9.32143 84.8832 8.43707 85.9546 7.83496C87.0261 7.23286 88.2421 6.93605 89.4704 6.97685C93.5959 6.97685 96.0494 9.66245 96.0494 14.1053Z" fill="black"/>
<path d="M116.408 14.1053V25.6339H112.68V14.8678C112.68 12.0496 111.454 10.5576 108.702 10.5576C105.486 10.5576 103.761 12.6464 103.761 16.1609V25.6339H100.01V7.37473H103.761V10.3919C104.365 9.32143 105.251 8.43707 106.323 7.83496C107.394 7.23286 108.61 6.93605 109.838 6.97685C113.954 6.97685 116.408 9.66245 116.408 14.1053Z" fill="black"/>
<path d="M138.39 17.5249H123.574C123.877 20.8736 126.231 22.735 129.258 22.735C131.446 22.735 133.27 21.7877 134.132 20.0163H138.011C136.59 24.0944 133.104 26.0174 129.225 26.0174C123.688 26.0174 119.752 22.0387 119.752 16.5444C119.752 11.0501 123.664 6.99566 129.173 6.99566C135.041 6.97672 138.755 11.519 138.39 17.5249ZM123.764 14.4698H134.378C133.814 11.9832 131.924 10.207 129.168 10.207C127.912 10.1769 126.684 10.5863 125.698 11.3646C124.711 12.1428 124.027 13.2411 123.764 14.4698Z" fill="black"/>
<path d="M152.68 7.07613V10.889C152.306 10.8453 151.929 10.8231 151.553 10.8227C148.138 10.8227 145.514 12.7457 145.514 17.2548V25.6337H141.767V7.37453H145.514V10.9885C145.98 9.76922 146.816 8.72663 147.905 8.00708C148.994 7.28754 150.281 6.92719 151.586 6.97666C151.953 6.96726 152.32 7.00065 152.68 7.07613Z" fill="black"/>
<path d="M173.635 19.0504C173.635 23.1285 170.793 25.6151 165.942 25.6151H155.925V2.42529H165.81C170.319 2.42529 172.872 4.5804 172.872 8.39327C172.872 10.7615 171.877 12.2725 169.789 13.234C172.408 14.006 173.635 16.2274 173.635 19.0504ZM165.346 5.9824H159.662V11.9504H165.346C168.064 11.9504 169.059 10.8562 169.059 8.96638C169.092 6.9439 168.031 5.9824 165.346 5.9824ZM169.855 18.7709C169.855 16.6442 168.86 15.4175 165.81 15.4175H159.652V22.0486H165.81C168.893 22.0343 169.855 20.7413 169.855 18.752V18.7709Z" fill="black"/>
<path d="M194.381 7.37455V25.6337H190.634V22.5834C189.965 23.6632 189.025 24.5494 187.907 25.1542C186.79 25.759 185.534 26.0614 184.264 26.0316C179.39 26.0316 175.842 22.0861 175.842 16.5112C175.842 10.9364 179.456 6.99562 184.23 6.99562C185.508 6.97001 186.771 7.27754 187.893 7.88796C189.016 8.49838 189.961 9.39064 190.634 10.4769V7.36034L194.381 7.37455ZM190.667 16.4923C190.667 13.011 188.247 10.5575 185.059 10.5575C181.872 10.5575 179.622 13.011 179.622 16.4923C179.622 19.9736 181.91 22.4318 185.059 22.4318C188.209 22.4318 190.667 20.0115 190.667 16.4923Z" fill="black"/>
<path d="M210.985 25.6339L202.398 17.2124V25.6339H198.651V0.0805664H202.398V15.2657L210.289 7.37477H215.101L206.178 16.0283L215.83 25.6339H210.985Z" fill="black"/>
<path d="M234.631 17.5249H219.806C220.105 20.8736 222.459 22.735 225.49 22.735C227.678 22.735 229.507 21.7877 230.364 20.0163H234.248C232.827 24.0944 229.336 26.0174 225.457 26.0174C219.92 26.0174 215.984 22.0387 215.984 16.5444C215.984 11.0501 219.896 6.99566 225.4 6.99566C231.283 6.97672 234.996 11.519 234.631 17.5249ZM220.005 14.4698H230.62C230.051 11.9832 228.161 10.207 225.409 10.207C224.153 10.1751 222.924 10.5838 221.937 11.3623C220.95 12.1409 220.267 13.2402 220.005 14.4698Z" fill="black"/>
<path d="M248.921 7.07626V10.8891C248.546 10.8454 248.168 10.8233 247.789 10.8228C244.374 10.8228 241.755 12.7458 241.755 17.255V25.6338H238.008V7.37466H241.755V10.9886C242.221 9.76894 243.057 8.72594 244.146 8.0063C245.235 7.28666 246.523 6.9266 247.827 6.97678C248.195 6.96739 248.562 7.00078 248.921 7.07626Z" fill="black"/>
<path d="M250.266 19.7466H254.055C254.619 21.7691 256.111 22.6975 259.265 22.6975C261.686 22.6975 263.178 21.968 263.178 20.6087C263.178 19.0835 261.454 18.8514 258.403 18.1173C253.297 16.8574 251.142 15.8295 251.142 12.7792C251.142 9.099 254.259 6.97705 258.834 6.97705C263.509 6.97705 266.128 9.19846 266.792 12.514H263.002C262.472 11.022 261.079 10.2926 258.74 10.2926C256.319 10.2926 254.894 11.1215 254.894 12.3814C254.894 13.5418 256.021 13.8402 259.204 14.6028C264.144 15.7632 267 16.6253 267 20.1777C267 24.09 263.481 26.013 259.171 26.013C254.41 26.013 250.986 23.6921 250.266 19.7466Z" fill="black"/>
<path d="M7.3226 14.6452C11.3668 14.6452 14.6452 11.3668 14.6452 7.3226C14.6452 3.27844 11.3668 0 7.3226 0C3.27844 0 0 3.27844 0 7.3226C0 11.3668 3.27844 14.6452 7.3226 14.6452Z" fill="black"/>
<path d="M7.3226 29.4802C11.3668 29.4802 14.6452 26.2017 14.6452 22.1576C14.6452 18.1134 11.3668 14.835 7.3226 14.835C3.27844 14.835 0 18.1134 0 22.1576C0 26.2017 3.27844 29.4802 7.3226 29.4802Z" fill="black"/>
<path d="M22.0096 14.6452C26.0538 14.6452 29.3322 11.3668 29.3322 7.3226C29.3322 3.27844 26.0538 0 22.0096 0C17.9655 0 14.687 3.27844 14.687 7.3226C14.687 11.3668 17.9655 14.6452 22.0096 14.6452Z" fill="black"/>
<path d="M22.0096 29.4802C26.0538 29.4802 29.3322 26.2017 29.3322 22.1576C29.3322 18.1134 26.0538 14.835 22.0096 14.835C17.9655 14.835 14.687 18.1134 14.687 22.1576C14.687 26.2017 17.9655 29.4802 22.0096 29.4802Z" fill="black"/>
<path d="M7.3226 14.6452C11.3668 14.6452 14.6452 11.3668 14.6452 7.3226C14.6452 3.27844 11.3668 0 7.3226 0C3.27844 0 0 3.27844 0 7.3226C0 11.3668 3.27844 14.6452 7.3226 14.6452Z" fill="black"/>
<path d="M7.3226 29.4802C11.3668 29.4802 14.6452 26.2017 14.6452 22.1576C14.6452 18.1134 11.3668 14.835 7.3226 14.835C3.27844 14.835 0 18.1134 0 22.1576C0 26.2017 3.27844 29.4802 7.3226 29.4802Z" fill="black"/>
<path d="M22.0096 14.6452C26.0538 14.6452 29.3322 11.3668 29.3322 7.3226C29.3322 3.27844 26.0538 0 22.0096 0C17.9655 0 14.687 3.27844 14.687 7.3226C14.687 11.3668 17.9655 14.6452 22.0096 14.6452Z" fill="black"/>
<path d="M22.0096 29.4802C26.0538 29.4802 29.3322 26.2017 29.3322 22.1576C29.3322 18.1134 26.0538 14.835 22.0096 14.835C17.9655 14.835 14.687 18.1134 14.687 22.1576C14.687 26.2017 17.9655 29.4802 22.0096 29.4802Z" fill="black"/>
</svg>
