<svg width="499" height="524" viewBox="0 0 499 524" fill="none" xmlns="http://www.w3.org/2000/svg">
<rect width="499" height="524" fill="#EFEFFF"/>
<rect x="116" y="101.866" width="266.795" height="345.133" rx="2.21713" fill="white"/>
<path d="M189.905 81.1733C189.905 78.3162 192.221 76 195.078 76H304.456C307.313 76 309.63 78.3162 309.63 81.1733V128.472H189.905V81.1733Z" fill="#8A81FF"/>
<path d="M116 160.251L382.056 160.251" stroke="#EFEEF7" stroke-width="1.47809"/>
<path d="M116 196.464L382.056 196.464" stroke="#EFEEF7" stroke-width="1.47809"/>
<path d="M116 232.677L382.056 232.677" stroke="#EFEEF7" stroke-width="1.47809"/>
<path d="M116 268.89L382.056 268.89" stroke="#EFEEF7" stroke-width="1.47809"/>
<path d="M116 305.104L382.056 305.103" stroke="#EFEEF7" stroke-width="1.47809"/>
<path d="M116 341.317L382.056 341.317" stroke="#EFEEF7" stroke-width="1.47809"/>
<path d="M116 377.53L382.056 377.53" stroke="#EFEEF7" stroke-width="1.47809"/>
<path d="M116 413.743L382.056 413.743" stroke="#EFEEF7" stroke-width="1.47809"/>
<rect x="132.998" y="166.163" width="25.1275" height="24.3884" rx="2.21713" fill="#F3F2FF"/>
<rect x="132.998" y="202.376" width="25.1275" height="24.3884" rx="2.21713" fill="#F3F2FF"/>
<rect x="132.998" y="238.59" width="25.1275" height="24.3884" rx="2.21713" fill="#F3F2FF"/>
<rect x="132.998" y="274.803" width="25.1275" height="24.3884" rx="2.21713" fill="#F3F2FF"/>
<rect x="132.998" y="311.016" width="25.1275" height="24.3884" rx="2.21713" fill="#F3F2FF"/>
<rect x="132.998" y="347.229" width="25.1275" height="24.3884" rx="2.21713" fill="#F3F2FF"/>
<rect x="132.998" y="383.442" width="25.1275" height="24.3884" rx="2.21713" fill="#F3F2FF"/>
<rect x="167.733" y="169.859" width="184.022" height="15.5199" rx="7.75996" fill="#E6E4FF"/>
<rect x="167.733" y="206.072" width="99.7709" height="15.5199" rx="7.75996" fill="#E6E4FF"/>
<rect x="167.733" y="242.285" width="58.3845" height="15.5199" rx="7.75996" fill="#E6E4FF"/>
<rect x="242.376" y="242.285" width="109.378" height="15.5199" rx="7.75996" fill="#E6E4FF"/>
<rect x="167.733" y="278.498" width="115.291" height="15.5199" rx="7.75996" fill="#E6E4FF"/>
<rect x="167.733" y="314.711" width="158.894" height="15.5199" rx="7.75996" fill="#E6E4FF"/>
<rect x="167.733" y="350.924" width="62.8187" height="15.5199" rx="7.75996" fill="#E6E4FF"/>
<rect x="247.55" y="350.924" width="104.205" height="15.5199" rx="7.75996" fill="#E6E4FF"/>
<rect x="167.733" y="387.137" width="184.022" height="15.5199" rx="7.75996" fill="#E6E4FF"/>
<path d="M138.171 175.032L145.931 182.792L169.95 158.773" stroke="#4942A4" stroke-width="3.69522"/>
<path d="M138.171 210.506L145.931 218.266L169.95 194.247" stroke="#4942A4" stroke-width="3.69522"/>
<path d="M138.171 246.719L145.931 254.479L169.95 230.46" stroke="#4942A4" stroke-width="3.69522"/>
<path d="M138.171 282.932L145.931 290.692L169.95 266.673" stroke="#4942A4" stroke-width="3.69522"/>
</svg>
