<svg width="30" height="30" viewBox="0 0 30 30" fill="none" xmlns="http://www.w3.org/2000/svg">
<path d="M7.3226 14.6452C11.3668 14.6452 14.6452 11.3668 14.6452 7.3226C14.6452 3.27844 11.3668 0 7.3226 0C3.27844 0 0 3.27844 0 7.3226C0 11.3668 3.27844 14.6452 7.3226 14.6452Z" fill="black"/>
<path d="M7.3226 29.4802C11.3668 29.4802 14.6452 26.2017 14.6452 22.1576C14.6452 18.1134 11.3668 14.835 7.3226 14.835C3.27844 14.835 0 18.1134 0 22.1576C0 26.2017 3.27844 29.4802 7.3226 29.4802Z" fill="black"/>
<path d="M22.0096 14.6452C26.0538 14.6452 29.3322 11.3668 29.3322 7.3226C29.3322 3.27844 26.0538 0 22.0096 0C17.9655 0 14.687 3.27844 14.687 7.3226C14.687 11.3668 17.9655 14.6452 22.0096 14.6452Z" fill="black"/>
<path d="M22.0096 29.4802C26.0538 29.4802 29.3322 26.2017 29.3322 22.1576C29.3322 18.1134 26.0538 14.835 22.0096 14.835C17.9655 14.835 14.687 18.1134 14.687 22.1576C14.687 26.2017 17.9655 29.4802 22.0096 29.4802Z" fill="black"/>
</svg>
