<svg width="115" height="24" viewBox="0 0 115 24" fill="none" xmlns="http://www.w3.org/2000/svg">
<path d="M3.76783 15.28C3.76783 16.6119 4.06018 17.6345 4.4423 18.2532C4.9433 19.0635 5.69056 19.4068 6.45237 19.4068C7.43497 19.4068 8.33386 19.163 10.0661 16.7672C11.4539 14.8469 13.0891 12.1514 14.1894 10.4616L16.0527 7.59873C17.347 5.61049 18.8452 3.40026 20.5629 1.90211C21.9652 0.679325 23.4779 0 25.0004 0C27.5563 0 29.991 1.48117 31.8543 4.25912C33.8934 7.30153 34.8833 11.1336 34.8833 15.0883C34.8833 17.4392 34.4199 19.1667 33.6314 20.5314C32.8696 21.8512 31.3848 23.1698 28.8871 23.1698V19.4068C31.0257 19.4068 31.5595 17.4417 31.5595 15.1926C31.5595 11.9877 30.8122 8.4309 29.1661 5.8895C27.9979 4.08686 26.484 2.98539 24.8184 2.98539C23.017 2.98539 21.5673 4.34404 19.9382 6.76656C19.072 8.05364 18.1829 9.62215 17.1845 11.392L16.0854 13.339C13.8776 17.2536 13.3184 18.1452 12.2145 19.6167C10.2796 22.1933 8.62742 23.1698 6.45237 23.1698C3.87215 23.1698 2.24056 22.0526 1.23006 20.3688C0.405169 18.9968 0 17.1966 0 15.1453L3.76783 15.28Z" fill="#0081FB"/>
<path d="M2.97062 4.52479C4.69805 1.86208 7.19093 0 10.0502 0C11.706 0 13.3522 0.490084 15.0711 1.89362C16.9514 3.42816 18.9554 5.95501 21.4555 10.1195L22.352 11.614C24.5161 15.2193 25.7474 17.0741 26.468 17.9487C27.3948 19.072 28.0438 19.4068 28.8869 19.4068C31.0255 19.4068 31.5593 17.4417 31.5593 15.1926L34.8831 15.0883C34.8831 17.4392 34.4197 19.1667 33.6312 20.5314C32.8694 21.8512 31.3846 23.1698 28.8869 23.1698C27.3341 23.1698 25.9585 22.8326 24.4373 21.3975C23.2679 20.296 21.9007 18.3393 20.849 16.5804L17.7205 11.3544C16.1507 8.73175 14.7108 6.77626 13.8774 5.89071C12.981 4.93845 11.8285 3.78845 9.9895 3.78845C8.50105 3.78845 7.23702 4.83291 6.17922 6.43053L2.97062 4.52479Z" fill="url(#paint0_linear_0_2260)"/>
<path d="M9.98971 3.78845C8.50126 3.78845 7.23723 4.83291 6.17943 6.43053C4.6837 8.68808 3.76783 12.0507 3.76783 15.28C3.76783 16.6119 4.06018 17.6345 4.4423 18.2532L1.23006 20.3688C0.405169 18.9968 0 17.1966 0 15.1453C0 11.4151 1.02384 7.52716 2.97083 4.52479C4.69826 1.86208 7.19114 0 10.0504 0L9.98971 3.78845Z" fill="url(#paint1_linear_0_2260)"/>
<path d="M42.208 0.732666H46.5666L53.9773 14.1396L61.3892 0.732666H65.6532V22.7622H62.0976V5.87855L55.5979 17.5702H52.262L45.7635 5.87855V22.7622H42.208V0.732666ZM76.7941 8.94643C74.2442 8.94643 72.7084 10.8655 72.3409 13.2419H80.995C80.8167 10.7939 79.4046 8.94643 76.7941 8.94643ZM68.8157 14.5957C68.8157 9.59543 72.0473 5.95619 76.8559 5.95619C81.5857 5.95619 84.4098 9.54933 84.4098 14.8626V15.8391H72.3409C72.7691 18.4242 74.4844 20.1662 77.2502 20.1662C79.4568 20.1662 80.8361 19.4929 82.1438 18.2617L84.0325 20.575C82.2529 22.2115 79.9893 23.1552 77.124 23.1552C71.9187 23.1552 68.8157 19.3595 68.8157 14.5957ZM88.7211 9.26183H85.4482V6.35044H88.7211V1.53572H92.1517V6.35044H97.1241V9.26183H92.1517V16.641C92.1517 19.1606 92.9572 20.0558 94.9369 20.0558C95.8406 20.0558 96.3586 19.9782 97.1241 19.8508V22.7307C96.1706 23 95.2608 23.1237 94.2758 23.1237C90.5722 23.1237 88.7211 21.1003 88.7211 17.0498V9.26183ZM111.569 12.0932C110.88 10.3536 109.343 9.07259 107.085 9.07259C104.149 9.07259 102.27 11.1554 102.27 14.5484C102.27 17.8565 104 20.04 106.944 20.04C109.259 20.04 110.911 18.6935 111.569 17.0183V12.0932ZM115 22.7622H111.633V20.4646C110.691 21.8172 108.978 23.1552 106.204 23.1552C101.742 23.1552 98.7605 19.4202 98.7605 14.5484C98.7605 9.6306 101.814 5.95619 106.393 5.95619C108.657 5.95619 110.433 6.86114 111.633 8.45877V6.35044H115V22.7622Z" fill="#192830"/>
<defs>
<linearGradient id="paint0_linear_0_2260" x1="7.39958" y1="14.193" x2="31.4186" y2="15.4061" gradientUnits="userSpaceOnUse">
<stop stop-color="#0064E1"/>
<stop offset="0.4" stop-color="#0064E1"/>
<stop offset="0.83" stop-color="#0073EE"/>
<stop offset="1" stop-color="#0082FB"/>
</linearGradient>
<linearGradient id="paint1_linear_0_2260" x1="5.45886" y1="16.8618" x2="5.45886" y2="8.00633" gradientUnits="userSpaceOnUse">
<stop stop-color="#0082FB"/>
<stop offset="1" stop-color="#0064E0"/>
</linearGradient>
</defs>
</svg>
