<svg width="112" height="39" viewBox="0 0 112 39" fill="none" xmlns="http://www.w3.org/2000/svg">
<path d="M0 38.1106C0 25.4078 0 12.7028 0 0C37.3428 0 74.6572 0 112 0C112 12.7028 112 25.4078 112 38.1106C74.6572 38.1106 37.3428 38.1106 0 38.1106Z" fill="#0068FF"/>
<path d="M89.1715 23.0452C85.6431 23.0452 82.1147 23.0452 78.5556 23.0452C78.5862 23.3208 78.5862 23.5658 78.6475 23.7824C78.7393 24.1805 78.8006 24.5502 78.9231 24.9177C79.2906 25.9305 79.9053 26.3899 80.9793 26.4205C82.0534 26.4205 83.1275 26.3899 84.2015 26.3287C85.6125 26.2368 87.0562 26.1143 88.4672 26.0224C88.5284 26.0224 88.5897 26.0224 88.7122 26.053C88.7122 27.4946 88.7122 28.9077 88.7122 30.3799C88.4672 30.4105 88.2222 30.4412 87.975 30.4412C86.809 30.5024 85.6431 30.5943 84.4772 30.6555C83.3418 30.7168 82.2065 30.778 81.0406 30.778C79.3518 30.7474 77.7878 30.3493 76.4687 29.1833C75.3334 28.1705 74.7187 26.8821 74.4431 25.4405C74.2287 24.3665 74.1368 23.2618 74.0756 22.1571C74.0143 20.9605 74.0143 19.7333 74.0756 18.5062C74.2287 15.0083 76.3462 12.1843 79.8134 11.4799C81.6553 11.1124 83.495 11.2349 85.245 12.0312C87.4237 13.0133 88.6203 14.7612 89.0184 17.0318C89.1409 17.769 89.1715 18.504 89.2022 19.2718C89.2328 20.4071 89.2022 21.5118 89.2022 22.6471C89.2022 22.7674 89.1715 22.8593 89.1715 23.0452ZM84.7528 18.8408C84.7222 18.4733 84.7222 18.1649 84.6609 17.8587C84.5078 16.6927 83.8625 15.9862 82.7272 15.7718C82.2372 15.6799 81.7143 15.6493 81.2243 15.6799C79.9665 15.6799 79.015 16.4171 78.6475 17.6137C78.525 18.0118 78.4331 18.4121 78.525 18.8408C80.579 18.8408 82.6353 18.8408 84.7528 18.8408Z" fill="white"/>
<path d="M72.4479 30.6531C70.9757 30.6531 69.532 30.6531 68.0598 30.6531C68.0598 30.5 68.0292 30.3468 68.0292 30.1937C68.0292 26.1731 68.0292 22.124 68.0292 18.1034C68.0292 17.3662 67.8454 16.7231 67.292 16.2003C66.802 15.7409 66.2179 15.5243 65.5726 15.7409C64.6211 16.0472 63.6695 16.3862 62.7486 16.6925C62.7486 21.3868 62.7486 26.02 62.7486 30.6531C61.2764 30.6531 59.8326 30.6531 58.3604 30.6531C58.3604 30.5 58.3298 30.3468 58.3298 30.1937C58.3298 26.1731 58.3298 22.1546 58.3298 18.134C58.3298 17.5828 58.2379 17.0293 57.9623 16.5393C57.6254 15.894 57.072 15.5878 56.3983 15.7103C55.1404 15.9247 53.9745 16.4475 52.7473 16.9375C52.7473 21.5093 52.7473 26.0812 52.7473 30.6837C51.2445 30.6837 49.8007 30.6837 48.3286 30.6837C48.3286 24.3312 48.3286 18.0115 48.3286 11.659C49.8007 11.659 51.2445 11.659 52.7167 11.659C52.7473 11.8428 52.7473 12.0265 52.7779 12.2431C52.9311 12.2125 53.0536 12.1512 53.1761 12.1206C54.0357 11.8756 54.8954 11.6 55.7836 11.414C57.2251 11.1384 58.5748 11.5365 59.8042 12.2737C60.1104 12.4575 60.3883 12.6412 60.6639 12.8578C61.1845 12.6434 61.7379 12.3984 62.2892 12.2125C63.2714 11.9062 64.2536 11.5365 65.2664 11.3834C67.3839 11.0772 69.2564 11.7203 70.7286 13.3172C71.9251 14.6056 72.4786 16.1718 72.4786 17.9197C72.5092 22.0322 72.4786 26.1425 72.4786 30.2243C72.4786 30.3775 72.4479 30.5 72.4479 30.6531Z" fill="white"/>
<path d="M30.4394 9.78907C28.9672 10.0034 27.4929 10.2484 26.0207 10.465C25.8982 10.2813 25.7757 10.1281 25.6226 9.97501C25.1632 9.51563 24.5485 9.36032 23.9032 9.26844C23.5357 9.20719 23.166 9.20719 22.7985 9.20719C20.7116 9.20719 18.6247 9.20719 16.5379 9.20719C15.8926 9.20719 15.2801 9.32969 14.7266 9.60532C13.8669 10.0341 13.4994 10.7406 13.3769 11.6616C13.2238 13.195 13.8669 14.2384 15.1882 14.9756C16.2929 15.5903 17.4894 15.8659 18.686 16.1416C19.7907 16.3866 20.8647 16.6928 21.8163 17.3075C23.5969 18.3816 24.4851 19.9763 24.7322 22.0019C24.916 23.6906 24.7935 25.3772 24.1482 26.9719C23.2272 29.2119 21.5407 30.5309 19.1782 30.8678C17.8591 31.0516 16.4788 31.0209 15.1269 31.0209C13.6547 31.0209 12.1497 30.9597 10.6776 30.8984C10.0016 30.8678 9.29724 30.8066 8.6213 30.7759C8.56005 30.7759 8.4988 30.7453 8.3763 30.7147C8.3763 29.2425 8.3763 27.7681 8.3763 26.2347C8.80505 26.2653 9.17474 26.2959 9.57286 26.2959C10.9532 26.3878 12.3641 26.4797 13.7466 26.5409C14.8819 26.5716 16.0172 26.5716 17.1832 26.5103C17.6732 26.4797 18.1347 26.3572 18.5941 26.2041C19.5151 25.8672 20.0663 25.1606 20.2194 24.2091C20.2807 23.7803 20.2807 23.3188 20.2501 22.8594C20.1888 22.0916 19.76 21.6016 19.0841 21.2341C18.3469 20.8359 17.4894 20.6828 16.691 20.4969C15.2494 20.16 13.8363 19.6984 12.5479 18.9328C10.461 17.7363 9.01943 16.0169 8.80505 13.5625C8.56005 11.0163 9.08068 8.65375 10.9226 6.75063C11.9966 5.64594 13.3157 5.09469 14.8185 4.90875C15.4332 4.81688 16.0763 4.78626 16.7216 4.78626C18.9004 4.78626 21.0791 4.72501 23.2885 4.78626C25.406 4.84751 27.3091 5.49282 28.9038 6.93438C29.641 7.57969 30.131 8.40657 30.4372 9.3275C30.4679 9.41938 30.4985 9.51125 30.4985 9.60313C30.4701 9.66657 30.4394 9.69719 30.4394 9.78907Z" fill="white"/>
<path d="M90.8582 4.7251C92.3304 4.7251 93.7742 4.7251 95.2463 4.7251C95.2463 9.17447 95.2463 13.6238 95.2463 18.1038C95.4607 18.1038 95.6138 18.1345 95.7976 18.1345C96.1651 17.7057 96.5654 17.2748 96.9329 16.846C98.4051 15.1901 99.8488 13.5013 101.321 11.8454C101.474 11.6923 101.597 11.6004 101.842 11.6004C103.498 11.6004 105.156 11.6004 106.812 11.6004C106.904 11.6004 106.995 11.631 107.21 11.631C104.664 14.6082 102.179 17.5526 99.6913 20.4992C102.054 23.8745 104.416 27.2498 106.809 30.6557C104.968 30.6557 103.22 30.6557 101.409 30.6557C99.536 28.0176 97.6351 25.316 95.732 22.6473C95.5788 22.6473 95.4563 22.6473 95.3032 22.6473C95.3032 25.316 95.3032 27.987 95.3032 30.6863C93.8004 30.6863 92.3567 30.6863 90.8845 30.6863C90.8582 22.002 90.8582 13.3788 90.8582 4.7251Z" fill="white"/>
<path d="M38.5698 26.2959C41.3304 26.2959 44.032 26.2959 46.762 26.2959C46.762 27.768 46.762 29.1812 46.762 30.6227C41.9451 30.6227 37.1567 30.6227 32.3398 30.6227C32.3398 30.5615 32.3092 30.5002 32.3092 30.439C32.3092 29.518 32.3092 28.5665 32.3092 27.6477C32.3092 27.5252 32.401 27.3721 32.4623 27.2802C35.1004 23.5987 37.7714 19.9149 40.4095 16.2334C40.4707 16.1415 40.532 16.0496 40.6239 15.9271C37.8326 15.9271 35.0698 15.9271 32.3092 15.9271C32.3092 14.4855 32.3092 13.0724 32.3092 11.6309C37.126 11.6309 41.9145 11.6309 46.762 11.6309C46.762 11.7534 46.7926 11.8759 46.7926 11.9984C46.7926 12.8274 46.8232 13.6543 46.7926 14.4834C46.7926 14.6977 46.7007 14.9427 46.5782 15.1287C43.9707 18.749 41.361 22.3999 38.7536 26.0224C38.6945 26.0815 38.6639 26.1734 38.5698 26.2959Z" fill="white"/>
<path d="M26.1427 11.6289C27.6455 11.6289 29.1198 11.6289 30.6227 11.6289C30.6227 17.9814 30.6227 24.3011 30.6227 30.6536C29.1505 30.6536 27.6455 30.6536 26.1427 30.6536C26.1427 24.3033 26.1427 17.9814 26.1427 11.6289Z" fill="white"/>
<path d="M103.778 4.75537H105.28V5.15568H104.76V6.38287H104.268V5.15568H103.778V4.75537Z" fill="white"/>
<path d="M105.494 4.75537H106.14L106.385 5.73756L106.63 4.75537H107.275V6.38287H106.875V5.12506L106.568 6.38287H106.201L105.895 5.12506V6.38287H105.494V4.75537Z" fill="white"/>
</svg>
