<svg width="151" height="27" viewBox="0 0 151 27" fill="none" xmlns="http://www.w3.org/2000/svg">
<path d="M5.44498 26.5419L8.8556 16.4056L0.631851 10.8912H10.7044L14.3062 0.0218732L17.9719 10.8912H27.9806L19.7569 16.4056L23.2312 26.5419L14.3062 20.0712L5.44498 26.5419ZM36.0437 26.5419L39.4544 16.4056L31.2306 10.8912H41.3031L44.905 0.0218732L48.5706 10.8912H58.5794L50.3556 16.4056L53.83 26.5419L44.905 20.0712L36.0437 26.5419ZM66.6425 26.5419L70.0531 16.4056L61.8294 10.8912H71.9019L75.5037 0.0218732L79.1694 10.8912H89.1781L80.9544 16.4056L84.4287 26.5419L75.5037 20.0712L66.6425 26.5419ZM97.2412 26.5419L100.652 16.4056L92.4281 10.8912H102.501L106.102 0.0218732L109.768 10.8912H119.777L111.553 16.4056L115.027 26.5419L106.102 20.0712L97.2412 26.5419ZM127.84 26.5419L131.251 16.4056L123.027 10.8912H133.099L136.701 0.0218732L140.367 10.8912H150.376L142.152 16.4056L145.626 26.5419L136.701 20.0712L127.84 26.5419Z" fill="#FCC82C"/>
</svg>
