<svg width="80" height="80" viewBox="0 0 80 80" fill="none" xmlns="http://www.w3.org/2000/svg">
<rect width="80" height="80" fill="#F5F5F5"/>
<g clip-path="url(#clip0_0_1)">
<rect width="1440" height="10879" transform="translate(-733 -725)" fill="white"/>
<rect x="-791" y="-612" width="1590" height="887" fill="url(#paint0_linear_0_1)"/>
<ellipse cx="-0.0214844" cy="39.585" rx="1" ry="1.07234" fill="#425DF9" fill-opacity="0.25"/>
<ellipse cx="53.6025" cy="39.585" rx="1" ry="1.07234" fill="#425DF9" fill-opacity="0.25"/>
<ellipse cx="26.7905" cy="39.585" rx="1" ry="1.07234" fill="#425DF9" fill-opacity="0.25"/>
<ellipse cx="80.4141" cy="39.585" rx="1" ry="1.07234" fill="#425DF9" fill-opacity="0.25"/>
<ellipse cx="-0.0214844" cy="70.1334" rx="1" ry="1.07234" fill="#425DF9" fill-opacity="0.25"/>
<ellipse cx="53.6025" cy="70.1334" rx="1" ry="1.07234" fill="#425DF9" fill-opacity="0.25"/>
<ellipse cx="26.7905" cy="70.1334" rx="1" ry="1.07234" fill="#425DF9" fill-opacity="0.25"/>
<ellipse cx="80.4141" cy="70.1334" rx="1" ry="1.07234" fill="#425DF9" fill-opacity="0.25"/>
<ellipse cx="-0.0214844" cy="9.03669" rx="1" ry="1.07234" fill="#425DF9" fill-opacity="0.25"/>
<ellipse cx="53.6025" cy="9.03669" rx="1" ry="1.07234" fill="#425DF9" fill-opacity="0.25"/>
<ellipse cx="26.7905" cy="9.03669" rx="1" ry="1.07234" fill="#425DF9" fill-opacity="0.25"/>
<ellipse cx="80.4141" cy="9.03669" rx="1" ry="1.07234" fill="#425DF9" fill-opacity="0.25"/>
<circle cx="40.0199" cy="39.9998" r="39.9402" fill="white"/>
<path d="M32.5467 22.4836C33.0362 21.1986 33.7093 20.0156 34.7088 19.0569C38.7067 15.161 45.3154 16.1401 48.0282 21.0354C50.0679 24.7477 52.23 28.3784 54.3309 32.0499C57.8393 38.1487 61.3884 44.2475 64.8559 50.3667C67.7727 55.4864 64.6112 61.9523 58.8183 62.8294C55.2692 63.3597 51.9445 61.7279 50.1087 58.546C47.0287 53.1815 43.9283 47.817 40.8484 42.4729C40.7872 42.3505 40.7056 42.2486 40.624 42.1466C40.2976 41.8814 40.1549 41.4939 39.9509 41.1471C38.5843 38.7402 37.1769 36.3538 35.8102 33.9673C34.9332 32.4171 34.0153 30.8873 33.1382 29.3371C32.3427 27.9501 31.9756 26.4407 32.0164 24.8497C32.0775 24.0338 32.1795 23.2179 32.5467 22.4836Z" fill="#3C8BD9"/>
<path d="M32.5468 22.4834C32.3632 23.2177 32.2001 23.952 32.1593 24.7271C32.0981 26.4405 32.5264 28.0314 33.3831 29.5204C35.6268 33.3755 37.8705 37.251 40.0938 41.1265C40.2978 41.4732 40.4609 41.82 40.6649 42.1463C39.4411 44.2677 38.2172 46.3686 36.973 48.4899C35.2596 51.4475 33.5463 54.4255 31.8125 57.3831C31.7309 57.3831 31.7105 57.3423 31.6901 57.2811C31.6697 57.1179 31.7309 56.9751 31.7717 56.812C32.608 53.7524 31.9145 51.0395 29.8136 48.7143C28.5286 47.3068 26.8968 46.5114 25.0202 46.2462C22.5726 45.8994 20.4104 46.5318 18.4727 48.0615C18.126 48.3267 17.9016 48.7143 17.4936 48.9182C17.4121 48.9182 17.3713 48.8774 17.3509 48.8162C18.3299 47.1233 19.2886 45.4303 20.2677 43.7373C24.3063 36.7207 28.345 29.704 32.404 22.7078C32.4448 22.6262 32.506 22.565 32.5468 22.4834Z" fill="#FABC04"/>
<path d="M17.4326 48.8782C17.8201 48.5315 18.1873 48.1643 18.5952 47.838C23.5518 43.9217 30.9968 46.7569 32.0778 52.9577C32.343 54.4467 32.2002 55.8745 31.7515 57.3023C31.7311 57.4247 31.7107 57.5267 31.6699 57.6491C31.4863 57.9754 31.3231 58.3222 31.1191 58.6485C29.3038 61.6469 26.6317 63.1359 23.1234 62.9115C19.1052 62.626 15.9436 59.6072 15.3929 55.6093C15.1277 53.6716 15.5152 51.8562 16.5147 50.1837C16.7187 49.8165 16.9634 49.4902 17.1878 49.123C17.2898 49.0414 17.249 48.8782 17.4326 48.8782Z" fill="#34A852"/>
<path d="M17.4333 48.878C17.3517 48.9596 17.3517 49.1023 17.2089 49.1227C17.1885 48.98 17.2701 48.8984 17.3517 48.7964L17.4333 48.878Z" fill="#FABC04"/>
<path d="M31.6695 57.6475C31.5879 57.5048 31.6695 57.4028 31.7511 57.3008C31.7715 57.3212 31.8123 57.362 31.8327 57.3824L31.6695 57.6475Z" fill="#E1C025"/>
</g>
<defs>
<linearGradient id="paint0_linear_0_1" x1="4" y1="-612" x2="4" y2="275" gradientUnits="userSpaceOnUse">
<stop stop-color="#D9D9D9" stop-opacity="0"/>
<stop offset="1" stop-color="#AEADFF" stop-opacity="0.2"/>
</linearGradient>
<clipPath id="clip0_0_1">
<rect width="1440" height="10879" fill="white" transform="translate(-733 -725)"/>
</clipPath>
</defs>
</svg>
