<svg width="127" height="37" viewBox="0 0 127 37" fill="none" xmlns="http://www.w3.org/2000/svg">
<path d="M29.452 0.0256118C31.2525 -0.143526 32.8424 0.516657 33.8715 2.25659C34.3854 3.12956 34.6238 4.0811 34.6249 5.09047C34.6249 9.49896 34.6429 13.9075 34.6206 18.3154C34.6015 22.1892 33.5523 25.7749 31.3693 28.9913C29.1427 32.2725 26.167 34.5788 22.3444 35.735C20.9598 36.1536 19.5211 36.3664 18.0745 36.3668C13.9025 36.3744 9.7304 36.3762 5.55834 36.3722C5.5218 36.3705 5.48537 36.3669 5.44922 36.3613C5.49178 36.3171 5.54797 36.3242 5.60144 36.3182C6.96546 36.1545 8.08886 35.5271 8.91163 34.4424C10.0541 32.9393 10.2871 31.2479 9.57891 29.5107C8.83688 27.69 7.41176 26.6844 5.4574 26.44C5.54197 26.3604 5.64727 26.3958 5.74275 26.3958C7.14605 26.3929 8.54953 26.392 9.95319 26.3931C10.0339 26.3991 10.1169 26.4106 10.1965 26.4111H17.8017C18.1652 26.4127 18.5281 26.3813 18.8858 26.3173C22.1524 25.7171 24.7178 23.1658 25.3786 19.8987C25.575 18.9254 25.5379 17.9466 25.539 16.9672C25.5411 14.3418 25.5395 11.7159 25.534 9.08976C25.534 7.77376 25.5242 6.45776 25.5373 5.14176C25.5461 4.20986 25.7119 3.30907 26.1675 2.47865C26.7027 1.50257 27.4568 0.769818 28.4891 0.327877C28.8011 0.194204 29.14 0.155466 29.452 0.0256118Z" fill="#ED675C"/>
<path d="M9.95311 26.3917C8.54909 26.3917 7.14561 26.3927 5.74267 26.3945C5.64719 26.3945 5.54189 26.359 5.45732 26.4387C5.02738 26.4681 4.59908 26.4065 4.16587 26.4894C2.34628 26.8381 1.09357 27.8649 0.36573 29.5617C0.16331 30.0342 0.113114 30.5383 0.0149054 31.0294C0.0121774 30.8657 0.0078125 30.702 0.0078125 30.5383C0.0078125 26.1371 0.0078125 21.7359 0.0078125 17.3347C0.0078125 14.6612 0.521228 12.0936 1.72047 9.69622C4.20461 4.7312 8.15861 1.60434 13.583 0.36636C14.7566 0.0990136 15.952 0.00462383 17.154 0.00407822C21.1362 0.0018958 25.1191 0.0018958 29.1028 0.00407822C29.2201 0.00407822 29.3379 0.0144449 29.4552 0.0204466C29.1432 0.150301 28.8043 0.189038 28.4906 0.323257C27.4583 0.765198 26.7043 1.49795 26.1691 2.47403C25.7135 3.30445 25.5476 4.20524 25.5389 5.13714C25.5258 6.45314 25.5356 7.76914 25.5356 9.08514C22.9167 9.08514 20.2978 9.08514 17.6789 9.08514C15.7229 9.08514 14.0037 9.73277 12.5606 11.046C10.7753 12.6698 9.95366 14.7196 9.95638 17.1165C9.96039 20.2082 9.95929 23.3 9.95311 26.3917Z" fill="#E94335"/>
<path d="M102.564 16.448C102.547 16.1359 102.53 15.8293 102.516 15.5205C102.397 13.1198 102.494 10.7191 102.457 8.3223C102.457 8.12424 102.535 8.10733 102.695 8.10897C103.404 8.11551 104.114 8.12206 104.823 8.10569C105.048 8.10078 105.085 8.17608 105.085 8.3785C105.079 12.4607 105.078 16.5429 105.081 20.6252C105.081 23.1437 105.078 25.6616 105.086 28.1802C105.086 28.3984 105.044 28.4742 104.809 28.4677C104.137 28.4502 103.463 28.4551 102.79 28.4677C102.607 28.471 102.564 28.4131 102.566 28.2385C102.577 27.6787 102.571 27.1184 102.571 26.5613C102.43 26.527 102.407 26.6274 102.364 26.6852C101.266 28.1643 99.7592 28.8212 97.956 28.9107C94.5923 29.0744 92.22 26.5401 91.4807 24.0832C90.6907 21.4588 90.9629 18.9545 92.6265 16.7055C93.649 15.3262 94.989 14.378 96.7185 14.1477C98.9992 13.8438 100.968 14.4331 102.401 16.3558C102.436 16.3989 102.454 16.4616 102.564 16.448ZM93.7193 21.5292C93.7057 22.7841 94.0467 23.9555 94.876 24.9769C96.5881 27.0791 99.841 26.9913 101.423 24.9769C102.124 24.0859 102.478 23.0837 102.548 21.9695C102.632 20.6279 102.385 19.3714 101.588 18.2534C99.9704 15.993 96.9941 16.0164 95.3638 17.5136C94.1978 18.5895 93.7095 19.9339 93.7193 21.5292Z" fill="#5F6368"/>
<path d="M59.5159 28.9092C56.2761 29.0031 53.3757 26.9483 52.356 23.6638C52.2867 23.4406 52.3407 23.3642 52.5365 23.2873C53.2038 23.026 53.87 22.7603 54.5264 22.4733C54.7593 22.3707 54.8205 22.4324 54.893 22.655C55.3524 24.0621 56.1479 25.2237 57.4967 25.9057C59.0429 26.6881 60.5962 26.5948 62.0732 25.7185C63.9222 24.6219 64.0919 21.8747 62.2341 20.538C61.3301 19.8882 60.3 19.5106 59.2677 19.132C58.1274 18.7135 56.9598 18.3561 55.8958 17.7554C54.6448 17.0489 53.6589 16.0919 53.2513 14.6711C52.5966 12.3921 53.3059 10.2195 55.4703 8.74148C57.9102 7.07683 62.2903 7.16631 64.6572 10.0509C65.0311 10.5091 65.328 11.0251 65.5361 11.5786C65.6011 11.7494 65.5645 11.8143 65.4041 11.8793C64.7063 12.1624 64.0123 12.4549 63.3199 12.7522C63.1966 12.8068 63.1349 12.8068 63.0831 12.6606C62.0797 9.80868 58.3047 9.5015 56.4927 11.242C55.3371 12.3517 55.4774 14.221 56.8174 15.1109C57.7247 15.711 58.7395 16.093 59.7549 16.4596C60.9067 16.877 62.0677 17.2677 63.1344 17.8864C64.4231 18.6344 65.469 19.6094 65.917 21.0722C66.5084 23.0123 66.3627 24.8767 65.068 26.5184C64.1012 27.7449 62.7705 28.4106 61.263 28.7412C60.6899 28.8697 60.103 28.9261 59.5159 28.9092Z" fill="#5F6368"/>
<path d="M126.7 21.4584C126.711 23.5131 126.119 25.288 124.713 26.7649C123.165 28.3919 121.25 29.0052 119.048 28.9102C117.464 28.8418 115.951 28.2331 114.76 27.1854C113.57 26.1377 112.774 24.7141 112.505 23.1514C112.169 21.1714 112.322 19.2437 113.382 17.4896C114.727 15.2641 116.738 14.1358 119.337 14.0709C121.127 14.0256 122.753 14.4926 124.13 15.6755C125.914 17.2075 126.719 19.175 126.7 21.4584ZM115 21.4775C114.998 21.8138 115.018 22.1499 115.061 22.4835C115.34 24.5672 116.902 26.234 118.876 26.4752C120.383 26.6596 121.685 26.246 122.763 25.1374C124.31 23.5464 124.384 20.6476 123.506 18.9311C122.149 16.28 118.756 15.6367 116.557 17.6375C115.429 18.6638 114.992 19.9847 115 21.4775Z" fill="#606469"/>
<path d="M89.2114 21.5024C89.2114 23.7296 89.2076 25.9567 89.2163 28.1839C89.2163 28.4054 89.1716 28.478 88.937 28.4714C88.2823 28.454 87.6275 28.454 86.9728 28.4714C86.736 28.478 86.6875 28.4 86.6951 28.1806C86.7115 27.6994 86.7016 27.2171 86.6984 26.7353C86.6984 26.6807 86.7338 26.5956 86.6558 26.5673C86.5778 26.5389 86.5538 26.6218 86.521 26.6715C85.7277 27.838 84.6065 28.5429 83.2474 28.7993C81.5937 29.1098 79.9989 28.9128 78.63 27.8172C77.6582 27.0403 77.1912 25.972 76.98 24.7744C76.8972 24.2724 76.8592 23.7641 76.8666 23.2554C76.8709 20.4467 76.8698 17.6377 76.8633 14.8286C76.8633 14.6103 76.9047 14.5334 77.141 14.5394C77.8405 14.5563 78.541 14.5541 79.2405 14.5394C79.4511 14.535 79.4926 14.601 79.492 14.7991C79.4855 17.4907 79.484 20.1824 79.4876 22.8741C79.4876 23.4944 79.5477 24.1088 79.773 24.6931C80.2395 25.9011 81.2019 26.4139 82.4214 26.4991C84.5661 26.6496 86.245 25.2196 86.5281 23.0465C86.5715 22.6859 86.5916 22.3228 86.5882 21.9596C86.5882 19.5868 86.5925 17.2129 86.5827 14.8416C86.5827 14.6016 86.6405 14.535 86.8822 14.5416C87.5637 14.559 88.2462 14.5574 88.9272 14.5416C89.1525 14.5367 89.2142 14.5961 89.2136 14.8242C89.2076 17.0481 89.2114 19.2752 89.2114 21.5024Z" fill="#5F6368"/>
<path d="M0.0143561 31.0295C0.114747 30.5385 0.164943 30.0349 0.367363 29.5624C1.0952 27.8666 2.34791 26.8387 4.16751 26.4912C4.60072 26.4082 5.02902 26.4699 5.45895 26.4404C7.41331 26.6849 8.83844 27.6904 9.58046 29.5111C10.2897 31.2494 10.0551 32.9391 8.91482 34.4428C8.09205 35.5275 6.96919 36.1544 5.60463 36.3186C5.55007 36.3246 5.49551 36.3186 5.45241 36.3617C2.84987 36.5025 0.720915 34.9524 0.141482 32.4825C0.0514573 32.0973 -0.0303837 31.705 0.0110824 31.3023C0.017084 31.2974 0.0290873 31.2909 0.0285417 31.287C0.0240189 31.2738 0.0185488 31.2608 0.0121736 31.2483L0.0143561 31.0295Z" fill="#C4221F"/>
<path d="M71.9708 20.7057C71.9959 21.8018 71.9222 23.1385 72.0155 24.4731C72.0805 25.4006 72.5611 26.0319 73.3632 26.2032C73.8123 26.2947 74.2788 26.2467 74.6999 26.0657C74.8685 25.9969 74.9291 26.027 74.9869 26.1999C75.2051 26.8546 75.4414 27.5017 75.676 28.1499C75.7175 28.2645 75.7518 28.3458 75.5871 28.39C74.2842 28.7446 72.9682 28.9061 71.6805 28.396C70.3312 27.8624 69.5925 26.8186 69.3972 25.3859C69.3611 25.0881 69.3454 24.7882 69.3502 24.4883C69.3502 22.0789 69.3453 19.669 69.359 17.2596C69.359 16.971 69.2744 16.9159 69.0103 16.9241C68.3834 16.9426 67.7554 16.9241 67.1285 16.9328C66.9599 16.9328 66.8879 16.8973 66.8917 16.7064C66.9037 16.0609 66.9021 15.4155 66.8917 14.77C66.8917 14.5922 66.9392 14.5365 67.1209 14.5392C67.7844 14.5501 68.4484 14.5365 69.1118 14.548C69.3039 14.5512 69.3562 14.4934 69.3552 14.3035C69.347 13.0486 69.3552 11.7937 69.3464 10.5388C69.3464 10.3315 69.3912 10.2546 69.6143 10.2595C70.3138 10.2737 71.0143 10.2715 71.7144 10.2595C71.9151 10.2562 71.9768 10.3064 71.9752 10.5154C71.9648 11.761 71.9752 13.0072 71.9637 14.2522C71.9604 14.5016 72.0352 14.5512 72.2687 14.548C73.2322 14.5349 74.1963 14.548 75.1604 14.5381C75.3492 14.5381 75.4076 14.5834 75.4037 14.7777C75.391 15.4047 75.391 16.032 75.4037 16.6594C75.4081 16.869 75.3568 16.9372 75.1364 16.9323C74.1909 16.9197 73.2453 16.9355 72.2992 16.9208C72.0455 16.917 71.9577 16.9688 71.9621 17.2438C71.9801 18.3197 71.9708 19.3929 71.9708 20.7057Z" fill="#5F6368"/>
<path d="M110.436 21.5088C110.436 23.7365 110.432 25.9642 110.441 28.1914C110.441 28.4249 110.375 28.4756 110.154 28.4707C109.472 28.456 108.79 28.4532 108.108 28.4707C107.865 28.4773 107.811 28.4107 107.811 28.1712C107.819 23.9067 107.821 19.6423 107.817 15.3778C107.817 15.1688 107.827 14.9588 107.813 14.7509C107.802 14.5769 107.872 14.5376 108.032 14.5392C108.75 14.5463 109.468 14.5512 110.186 14.5392C110.396 14.5354 110.44 14.6009 110.439 14.7995C110.433 17.0354 110.436 19.2718 110.436 21.5088Z" fill="#5F6368"/>
<path d="M109.155 7.88721C110.217 7.88721 110.984 8.67725 110.981 9.763C110.978 10.7997 110.171 11.5886 109.119 11.5831C108.082 11.5782 107.284 10.768 107.285 9.72809C107.286 8.67234 108.087 7.88503 109.155 7.88721Z" fill="#606368"/>
<path d="M0.00989316 31.2476C0.0163447 31.2602 0.0218805 31.2733 0.0264575 31.2868C0.0264575 31.2906 0.0148626 31.2973 0.00878906 31.3022L0.00989316 31.2476Z" fill="#E94335"/>
</svg>
