<svg width="129" height="39" viewBox="0 0 129 39" fill="none" xmlns="http://www.w3.org/2000/svg">
<path d="M19.3451 0C8.66134 0 0 8.66111 0 19.3449C0 30.0292 8.66134 38.6896 19.3451 38.6896C30.0301 38.6896 38.6905 30.0292 38.6905 19.3449C38.6905 8.6618 30.0301 0.000924019 19.3449 0.000924019L19.3451 0ZM28.2167 27.9009C27.8702 28.4692 27.1263 28.6494 26.5581 28.3005C22.016 25.5262 16.2982 24.8978 9.56434 26.4363C8.91545 26.5842 8.26863 26.1776 8.12079 25.5285C7.97225 24.8793 8.3772 24.2325 9.02772 24.0847C16.3968 22.4011 22.7178 23.126 27.8171 26.2423C28.3853 26.5911 28.5655 27.3326 28.2167 27.9009ZM30.5845 22.6335C30.1479 23.3432 29.2193 23.5672 28.5101 23.1306C23.3101 19.9344 15.3836 19.0088 9.23308 20.8758C8.43542 21.1167 7.59294 20.6672 7.35084 19.8709C7.1106 19.0732 7.56037 18.2324 8.35664 17.9898C15.3822 15.8581 24.1163 16.8907 30.0878 20.5602C30.797 20.9968 31.0211 21.9252 30.5845 22.6335ZM30.7878 17.1485C24.5529 13.4452 14.2662 13.1047 8.31345 14.9114C7.35754 15.2014 6.34666 14.6617 6.05698 13.7058C5.7673 12.7495 6.30646 11.7393 7.26306 11.4487C14.0964 9.37422 25.4562 9.77502 32.6345 14.0364C33.4961 14.5467 33.7779 15.6571 33.2674 16.5158C32.7592 17.3756 31.6457 17.659 30.7887 17.1485H30.7878ZM52.6317 17.8582C49.2914 17.0616 48.6977 16.5026 48.6977 15.3279C48.6977 14.2182 49.7418 13.4713 51.2965 13.4713C52.8027 13.4713 54.295 14.0385 55.8612 15.206C55.9074 15.2413 55.9674 15.2554 56.0252 15.2462C56.0853 15.2374 56.1361 15.2053 56.1707 15.157L57.8016 12.858C57.8686 12.7633 57.8501 12.6328 57.7601 12.5605C55.8958 11.0652 53.7983 10.3382 51.345 10.3382C47.739 10.3382 45.2187 12.5025 45.2187 15.5991C45.2187 18.9199 47.3925 20.0957 51.1487 21.0033C54.3435 21.7395 54.884 22.3563 54.884 23.4587C54.884 24.6807 53.7937 25.4407 52.038 25.4407C50.0883 25.4407 48.4967 24.7823 46.718 23.2438C46.6741 23.2046 46.614 23.1884 46.5586 23.1907C46.4985 23.1953 46.4454 23.223 46.4084 23.2669L44.5788 25.443C44.5026 25.5354 44.5119 25.6694 44.5996 25.7479C46.6695 27.596 49.2151 28.5708 51.9641 28.5708C55.8496 28.5708 58.3607 26.4479 58.3607 23.1607C58.3676 20.387 56.7067 18.8508 52.6386 17.8612L52.6317 17.8582ZM67.1528 14.564C65.4687 14.564 64.0873 15.2275 62.9461 16.5869V15.0567C62.9461 14.9359 62.8491 14.8375 62.729 14.8375H59.7375C59.6173 14.8375 59.5203 14.9359 59.5203 15.0567V32.059C59.5203 32.1791 59.6173 32.2785 59.7375 32.2785H62.729C62.8491 32.2785 62.9461 32.1791 62.9461 32.059V26.6927C64.0873 27.9702 65.4687 28.5962 67.1528 28.5962C70.2829 28.5962 73.4523 26.1868 73.4523 21.5808C73.4569 16.9739 70.2875 14.5638 67.1551 14.5638L67.1528 14.564ZM69.9733 21.5808C69.9733 23.9253 68.5296 25.5631 66.4597 25.5631C64.4153 25.5631 62.8722 23.8514 62.8722 21.5808C62.8722 19.31 64.4153 17.5987 66.4597 17.5987C68.4949 17.5985 69.9733 19.2731 69.9733 21.5808ZM81.5722 14.564C77.5411 14.564 74.3832 17.6678 74.3832 21.6309C74.3832 25.5516 77.5203 28.6216 81.5236 28.6216C85.5686 28.6216 88.7357 25.5285 88.7357 21.5808C88.7357 17.6465 85.5893 14.5645 81.5722 14.5645V14.564ZM81.5722 25.5862C79.4284 25.5862 77.8114 23.8629 77.8114 21.5797C77.8114 19.286 79.373 17.6216 81.5236 17.6216C83.6812 17.6216 85.3075 19.3442 85.3075 21.6298C85.3075 23.923 83.7367 25.5862 81.5722 25.5862ZM97.3429 14.8375H94.0511V11.4727C94.0511 11.3521 93.9541 11.2537 93.834 11.2537H90.8424C90.7223 11.2537 90.623 11.3521 90.623 11.4727V14.8375H89.1861C89.066 14.8375 88.969 14.9359 88.969 15.0567V17.6271C88.969 17.7477 89.066 17.8464 89.1861 17.8464H90.623V24.4982C90.623 27.1848 91.9605 28.5477 94.6009 28.5477C95.6728 28.5477 96.5621 28.326 97.4007 27.8501C97.47 27.8131 97.5116 27.7392 97.5116 27.6607V25.212C97.5116 25.1381 97.4723 25.0665 97.4076 25.0272C97.3429 24.9856 97.2621 24.9833 97.1951 25.018C96.6199 25.3067 96.0632 25.4407 95.4394 25.4407C94.4808 25.4407 94.0511 25.0041 94.0511 24.0292V17.8475H97.3429C97.4631 17.8475 97.5601 17.7491 97.5601 17.6283V15.0581C97.5647 14.9373 97.4677 14.8389 97.3452 14.8389L97.3429 14.8375ZM108.81 14.8507V14.4374C108.81 13.2216 109.277 12.6795 110.321 12.6795C110.945 12.6795 111.446 12.8033 112.007 12.9904C112.076 13.0121 112.148 13.0013 112.204 12.9599C112.261 12.9186 112.294 12.8523 112.294 12.782V10.2618C112.294 10.1654 112.234 10.0802 112.139 10.0518C111.548 9.87551 110.79 9.69463 109.653 9.69463C106.893 9.69463 105.43 11.2502 105.43 14.1916V14.8246H103.994C103.873 14.8246 103.774 14.923 103.774 15.0436V17.6271C103.774 17.7477 103.873 17.8464 103.994 17.8464H105.43V28.1042C105.43 28.2266 105.53 28.3236 105.65 28.3236H108.639C108.762 28.3236 108.859 28.2266 108.859 28.1042V17.8471H111.651L115.93 28.1042C115.445 29.1807 114.966 29.3955 114.315 29.3955C113.788 29.3955 113.232 29.2384 112.666 28.9266C112.612 28.8989 112.548 28.8942 112.492 28.9104C112.435 28.9312 112.386 28.9728 112.363 29.0282L111.349 31.2528C111.3 31.3591 111.342 31.4815 111.444 31.5369C112.502 32.1098 113.456 32.3547 114.636 32.3547C116.844 32.3547 118.066 31.3244 119.141 28.557L124.329 15.1501C124.357 15.0826 124.348 15.0064 124.306 14.9466C124.267 14.8872 124.2 14.8514 124.128 14.8514H121.014C120.919 14.8514 120.836 14.9107 120.806 14.9983L117.616 24.1078L114.123 14.9923C114.091 14.9075 114.01 14.8514 113.92 14.8514H108.81V14.8507ZM102.162 14.8375H99.1702C99.0501 14.8375 98.9507 14.9359 98.9507 15.0567V28.1042C98.9507 28.2266 99.0501 28.3236 99.1702 28.3236H102.162C102.282 28.3236 102.381 28.2266 102.381 28.1042V15.0577C102.381 14.9368 102.284 14.8384 102.162 14.8384V14.8375ZM100.683 8.89627C99.4982 8.89627 98.5372 9.85541 98.5372 11.0402C98.5372 12.2258 99.4982 13.1861 100.683 13.1861C101.868 13.1861 102.827 12.2258 102.827 11.0402C102.827 9.85564 101.866 8.89627 100.683 8.89627ZM126.884 19.0328C125.701 19.0328 124.78 18.0822 124.78 16.9279C124.78 15.7736 125.713 14.8121 126.896 14.8121C128.078 14.8121 129 15.7625 129 16.9159C129 18.0702 128.067 19.0328 126.884 19.0328ZM126.896 15.0214C125.817 15.0214 125.001 15.8784 125.001 16.9279C125.001 17.9769 125.812 18.8224 126.884 18.8224C127.963 18.8224 128.778 17.966 128.778 16.9159C128.778 15.8669 127.967 15.0214 126.896 15.0214ZM127.362 17.1323L127.958 17.9658H127.455L126.919 17.2012H126.459V17.9658H126.039V15.7565H127.023C127.538 15.7565 127.875 16.0191 127.875 16.4613C127.877 16.8235 127.667 17.0448 127.364 17.1323H127.362ZM127.006 16.1355H126.459V16.8343H127.006C127.279 16.8343 127.443 16.7006 127.443 16.4846C127.443 16.2573 127.279 16.1355 127.006 16.1355Z" fill="#1ED760"/>
</svg>
