<svg width="133" height="33" viewBox="0 0 133 33" fill="none" xmlns="http://www.w3.org/2000/svg">
<path d="M130.791 28.5518C130.213 28.5574 129.66 28.7918 129.254 29.2039C128.848 29.6159 128.621 30.172 128.624 30.7505C128.627 31.3291 128.858 31.8829 129.269 32.2911C129.679 32.6992 130.234 32.9283 130.812 32.9283C131.391 32.9283 131.946 32.6992 132.356 32.2911C132.766 31.8829 132.998 31.3291 133 30.7505C133.003 30.172 132.777 29.6159 132.371 29.2039C131.964 28.7918 131.412 28.5574 130.833 28.5518H130.791ZM130.791 32.6777C130.412 32.6841 130.039 32.5777 129.72 32.3722C129.401 32.1666 129.15 31.871 128.999 31.5229C128.848 31.1747 128.803 30.7896 128.871 30.4162C128.939 30.0428 129.116 29.6979 129.38 29.4252C129.644 29.1524 129.983 28.964 130.354 28.8837C130.724 28.8035 131.111 28.8351 131.464 28.9744C131.817 29.1138 132.121 29.3547 132.337 29.6667C132.553 29.9787 132.671 30.3478 132.678 30.7272V30.7594C132.688 31.2572 132.501 31.7388 132.156 32.0984C131.812 32.4579 131.339 32.666 130.841 32.6768H130.792M122.391 27.954H117.636V20.5075C117.636 18.7319 117.604 16.446 115.163 16.446C112.687 16.446 112.308 18.3807 112.308 20.3783V27.9535H107.553V12.6406H112.117V14.7332H112.181C112.638 13.9522 113.298 13.3096 114.091 12.874C114.885 12.4384 115.781 12.2261 116.685 12.2597C121.505 12.2597 122.393 15.4297 122.393 19.5536L122.391 27.954ZM102.188 10.5474C101.642 10.5475 101.108 10.3858 100.654 10.0826C100.201 9.77953 99.8469 9.34864 99.6379 8.84447C99.429 8.3403 99.3743 7.78549 99.4806 7.25021C99.587 6.71493 99.8497 6.22321 100.236 5.83724C100.621 5.45127 101.113 5.18837 101.648 5.08181C102.183 4.97524 102.738 5.02979 103.243 5.23855C103.747 5.4473 104.178 5.8009 104.481 6.25462C104.784 6.70834 104.946 7.2418 104.946 7.78755C104.946 8.14992 104.875 8.50875 104.737 8.84355C104.598 9.17836 104.395 9.48258 104.139 9.73886C103.882 9.99514 103.578 10.1984 103.243 10.3372C102.909 10.4759 102.55 10.5473 102.188 10.5474ZM104.565 27.954H99.8051V12.6406H104.565V27.954ZM124.762 0.613025H97.4158C96.7951 0.606021 96.197 0.845718 95.753 1.27944C95.309 1.71317 95.0553 2.30544 95.0477 2.92611V30.3855C95.055 31.0064 95.3085 31.5991 95.7526 32.0333C96.1966 32.4675 96.7948 32.7076 97.4158 32.701H124.762C125.384 32.7088 125.984 32.4693 126.43 32.0352C126.875 31.601 127.131 31.0077 127.139 30.3855V2.92413C127.13 2.30223 126.875 1.70929 126.429 1.27557C125.983 0.841855 125.384 0.602842 124.762 0.611044M82.1058 16.3366C79.7283 16.3366 78.3019 17.924 78.3019 20.2371C78.3019 22.5502 79.7278 24.1391 82.1058 24.1391C84.4838 24.1391 85.9132 22.5542 85.9132 20.2371C85.9132 17.9201 84.4863 16.3366 82.1058 16.3366ZM90.2908 27.9451H85.9132V25.9143H85.8484C85.2992 26.653 84.5869 27.2549 83.7669 27.6731C82.947 28.0913 82.0415 28.3146 81.1211 28.3255C76.5524 28.3255 73.5429 25.0282 73.5429 20.3654C73.5429 16.083 76.2062 12.1507 80.5842 12.1507C82.5521 12.1507 84.3902 12.6891 85.4685 14.1815H85.5309V5.3546H90.2903L90.2908 27.9451ZM67.4378 18.5105C67.4469 18.1247 67.3776 17.7411 67.234 17.3829C67.0905 17.0247 66.8758 16.6994 66.6028 16.4266C66.3299 16.1539 66.0044 15.9393 65.6461 15.7961C65.2878 15.6528 64.9042 15.5837 64.5184 15.5931C63.6876 15.5414 62.8698 15.8183 62.2412 16.364C61.6126 16.9097 61.2237 17.6806 61.1583 18.5105H67.4378ZM71.4656 25.2962C70.6755 26.2543 69.6821 27.0248 68.5575 27.5517C67.4329 28.0787 66.2051 28.3489 64.9632 28.3428C60.2083 28.3428 56.4013 25.1689 56.4013 20.2539C56.4013 15.339 60.2078 12.1666 64.9632 12.1666C69.4076 12.1666 72.1947 15.3365 72.1947 20.2539V21.7448H61.1583C61.2957 22.5903 61.734 23.3577 62.3926 23.9056C63.0511 24.4534 63.8854 24.7448 64.7418 24.7261C65.4186 24.7219 66.0836 24.5485 66.6763 24.2217C67.269 23.8948 67.7705 23.4249 68.1352 22.8548L71.4656 25.2962ZM24.1964 12.6366H28.7627V14.7293H28.8276C29.2837 13.9479 29.9434 13.305 30.7364 12.8694C31.5294 12.4337 32.4258 12.2216 33.3299 12.2557C38.1517 12.2557 39.0393 15.4282 39.0393 19.5496V27.9471H34.2844V20.5021C34.2844 18.7249 34.2517 16.4406 31.8078 16.4406C29.3363 16.4406 28.9549 18.3757 28.9549 20.3728V27.9451H24.1999L24.1964 12.6366ZM41.4505 5.35609H46.2054V18.8606L51.5944 12.6282H57.4241L51.1833 19.7175L57.2929 27.9545H51.3165L46.2688 20.3852H46.2064V27.9535H41.4515L41.4505 5.35609ZM16.805 12.6351H21.5599V27.9481H16.805V12.6351ZM19.1824 5.02225C19.728 5.02235 20.2612 5.18421 20.7148 5.48736C21.1683 5.79051 21.5218 6.22135 21.7305 6.72538C21.9392 7.22942 21.9937 7.78402 21.8873 8.31905C21.7808 8.85409 21.518 9.34554 21.1322 9.73125C20.7465 10.117 20.255 10.3796 19.7199 10.486C19.1848 10.5924 18.6303 10.5378 18.1263 10.329C17.6223 10.1202 17.1915 9.76663 16.8884 9.31303C16.5853 8.85943 16.4236 8.32615 16.4236 7.78062C16.4236 7.41834 16.4949 7.05962 16.6336 6.72492C16.7723 6.39023 16.9755 6.08613 17.2317 5.82998C17.4879 5.57384 17.792 5.37067 18.1267 5.23208C18.4614 5.09349 18.8202 5.02219 19.1824 5.02225ZM0.503906 5.35956H5.45351V23.3887H14.6167V27.9565H0.503906V5.35956ZM131.138 30.8788C131.22 30.8796 131.3 30.8637 131.375 30.832C131.45 30.8003 131.518 30.7535 131.574 30.6946C131.631 30.6357 131.674 30.5658 131.702 30.4894C131.73 30.4129 131.742 30.3315 131.738 30.2502C131.738 29.8045 131.469 29.5915 130.917 29.5915H130.025V31.9254H130.361V30.908H130.773L130.782 30.9204L131.422 31.9254H131.78L131.092 30.8852L131.138 30.8788ZM130.75 30.645H130.362V29.856H130.854C131.109 29.856 131.399 29.8976 131.399 30.2309C131.399 30.6143 131.106 30.645 130.748 30.645" fill="#0A66C2"/>
</svg>
