<svg width="19" height="18" viewBox="0 0 19 18" fill="none" xmlns="http://www.w3.org/2000/svg">
<path d="M8.61555 0.67634C8.99076 -0.034806 10.0092 -0.0348078 10.3844 0.676339L12.4799 4.64788C12.6246 4.92212 12.8883 5.11373 13.1938 5.1666L17.6185 5.93218C18.4108 6.06926 18.7255 7.0379 18.1651 7.6145L15.0355 10.8346C14.8194 11.057 14.7186 11.367 14.7628 11.6739L15.402 16.1186C15.5164 16.9145 14.6924 17.5131 13.9709 17.1584L9.94125 15.177C9.66299 15.0401 9.33701 15.0401 9.05875 15.177L5.02912 17.1584C4.30757 17.5131 3.4836 16.9145 3.59805 16.1186L4.23724 11.6739C4.28138 11.367 4.18064 11.057 3.96453 10.8346L0.834891 7.6145C0.274496 7.0379 0.589223 6.06926 1.38151 5.93218L5.80619 5.1666C6.11172 5.11373 6.37545 4.92213 6.52014 4.64788L8.61555 0.67634Z" fill="#FBBC05"/>
</svg>
