<svg width="80" height="80" viewBox="0 0 80 80" fill="none" xmlns="http://www.w3.org/2000/svg">
<circle cx="40.0597" cy="39.9998" r="39.9402" fill="white"/>
<path d="M21.5311 24.1332C21.5311 22.6635 22.7528 21.4713 24.2598 21.4713H55.7281C57.2352 21.4713 58.4569 22.6635 58.4569 24.1332V55.9694C58.4569 57.4397 57.2352 58.6313 55.7281 58.6313H24.2598C22.7528 58.6313 21.5311 57.4397 21.5311 55.9694V24.1332Z" fill="#006699"/>
<path fill-rule="evenodd" clip-rule="evenodd" d="M32.7239 52.5786V35.7988H27.1466V52.5786H32.7239ZM29.9353 33.5078C31.8802 33.5078 33.0907 32.2193 33.0907 30.609C33.0545 28.9625 31.8802 27.7097 29.9722 27.7097C28.0643 27.7097 26.8169 28.9625 26.8169 30.609C26.8169 32.2193 28.0272 33.5078 29.8989 33.5078H29.9353Z" fill="white"/>
<path fill-rule="evenodd" clip-rule="evenodd" d="M35.8113 52.5786H41.3886V43.208C41.3886 42.7065 41.4248 42.2055 41.5721 41.847C41.9753 40.845 42.893 39.8073 44.4337 39.8073C46.4519 39.8073 47.2592 41.346 47.2592 43.6018V52.5786H52.836V42.9573C52.836 37.8033 50.0844 35.405 46.415 35.405C43.4062 35.405 42.0853 37.0868 41.3515 38.2323H41.3887V35.7988H35.8114C35.8846 37.3733 35.8113 52.5786 35.8113 52.5786Z" fill="white"/>
</svg>
