<svg width="78" height="78" viewBox="0 0 78 78" fill="none" xmlns="http://www.w3.org/2000/svg">
<path fill-rule="evenodd" clip-rule="evenodd" d="M7.8 0H70.2C74.5081 0 78 3.4919 78 7.8V70.2C78 74.5081 74.5081 78 70.2 78H7.8C3.4919 78 0 74.5081 0 70.2V7.8C0 3.4919 3.4919 0 7.8 0Z" fill="#010101"/>
<path fill-rule="evenodd" clip-rule="evenodd" d="M50.6906 31.6663C54.1052 34.1058 58.2885 35.5414 62.8062 35.5414V26.8518C61.9511 26.8522 61.0984 26.763 60.2619 26.5857V33.4257C55.7444 33.4257 51.5617 31.9902 48.1463 29.5506V47.2832C48.1463 56.154 40.9516 63.3446 32.0767 63.3446C28.7655 63.3446 25.6876 62.344 23.1308 60.628C26.0489 63.6101 30.1183 65.4603 34.6205 65.4603C43.4959 65.4603 50.691 58.2696 50.691 49.3985L50.6906 31.6663ZM53.8294 22.8997C52.0844 20.9944 50.9387 18.5317 50.6906 15.8092V14.6917H48.2795C48.8863 18.1517 50.9565 21.1079 53.8294 22.8997ZM28.7439 53.8211C27.7691 52.5435 27.2421 50.9803 27.2445 49.3733C27.2445 45.316 30.5354 42.0266 34.5955 42.0266C35.3521 42.0261 36.1042 42.1421 36.8254 42.3707V33.4872C35.9827 33.3717 35.1323 33.3228 34.2819 33.3408V40.2554C33.5604 40.0268 32.808 39.9107 32.0511 39.9112C27.9911 39.9112 24.7004 43.2006 24.7004 47.2582C24.7004 50.127 26.3453 52.6112 28.7439 53.8211Z" fill="#EE1D52"/>
<path fill-rule="evenodd" clip-rule="evenodd" d="M48.1459 29.5507C51.5614 31.9902 55.744 33.4257 60.2615 33.4257V26.5857C57.7399 26.0491 55.5075 24.7318 53.829 22.8997C50.9561 21.1079 48.886 18.1517 48.2791 14.6917H41.9458V49.3982C41.9315 53.4442 38.6461 56.7202 34.5948 56.7202C32.2074 56.7202 30.0864 55.583 28.7432 53.8211C26.3446 52.6112 24.6997 50.1271 24.6997 47.2582C24.6997 43.2007 27.9904 39.9112 32.0504 39.9112C32.8283 39.9112 33.578 40.0323 34.2812 40.2554V33.3408C25.5624 33.5209 18.5502 40.6413 18.5502 49.3985C18.5502 53.77 20.2965 57.733 23.1304 60.6283C25.6872 62.3443 28.7651 63.3449 32.0763 63.3449C40.9512 63.3449 48.1459 56.154 48.1459 47.2835V29.5507Z" fill="white"/>
<path fill-rule="evenodd" clip-rule="evenodd" d="M60.2615 26.5858V24.7363C57.9875 24.7397 55.7584 24.1032 53.829 22.8996C55.5368 24.7684 57.7857 26.0571 60.2615 26.5858ZM48.2792 14.6918C48.2212 14.3611 48.1767 14.0283 48.1459 13.694V12.5764H39.4012V47.2833C39.3872 51.329 36.1021 54.605 32.0505 54.605C30.8608 54.605 29.7379 54.323 28.7433 53.8213C30.0864 55.5831 32.2074 56.7204 34.5948 56.7204C38.6458 56.7204 41.9315 53.4444 41.9459 49.3983V14.6918H48.2792ZM34.2816 33.341V31.3719C33.5509 31.272 32.8142 31.2221 32.0767 31.2225C23.2009 31.2225 16.0062 38.4134 16.0062 47.2833C16.0062 52.8444 18.8339 57.7453 23.1307 60.6282C20.2968 57.7328 18.5506 53.7698 18.5506 49.3983C18.5506 40.6414 25.5624 33.521 34.2816 33.341Z" fill="#69C9D0"/>
</svg>
