<svg width="103" height="31" viewBox="0 0 103 31" fill="none" xmlns="http://www.w3.org/2000/svg">
<path d="M3.54642 21.7877C3.54642 25.7231 5.03065 26.9923 9.52508 26.9923C11.1748 26.9923 13.8547 26.781 15.9579 26.4005L16.3286 29.5315C14.3492 29.9976 11.4628 30.2938 9.40128 30.2938C2.6805 30.2945 0 27.3307 0 21.999V9.55678C0 4.22372 2.6805 1.26196 9.40194 1.26196C11.4635 1.26196 14.3498 1.55821 16.3293 2.02363L15.9585 5.15525C13.8553 4.77408 11.1755 4.56277 9.52574 4.56277C5.03132 4.56277 3.54708 5.83267 3.54708 9.76809L3.54642 21.7877Z" fill="#27282F"/>
<path d="M33.9147 29.8707H30.9667L30.7587 28.3472C28.9734 29.6166 26.6481 30.294 24.1981 30.294C20.4195 30.294 18.8415 28.0081 18.8415 24.368C18.8415 20.0932 20.9595 18.5697 25.0288 18.5697H30.4267V15.3529C30.4267 12.7714 29.3054 11.8826 26.0248 11.8826C24.0735 11.8826 21.5402 12.221 19.9622 12.5601L19.5882 9.7245C21.4982 9.2169 24.0728 8.83569 26.2321 8.83569C32.004 8.83569 33.914 11.1216 33.914 15.5228L33.9147 29.8707ZM30.4267 21.5324H25.2775C23.1181 21.5324 22.3295 22.2099 22.3295 24.2837C22.3295 26.4004 22.7035 27.2464 25.1948 27.2464C26.9388 27.2464 28.8901 26.5689 30.4267 25.5537V21.5324Z" fill="#27282F"/>
<path d="M46.4757 12.1601C44.6621 13.1098 42.5725 14.5779 40.995 15.7868V30.294H37.683V9.26754H40.5614L40.7583 12.2031C42.1775 10.9942 44.1487 9.69938 46.0415 8.83569L46.4757 12.1601Z" fill="#27282F"/>
<path d="M65.317 22.5063C65.317 27.2558 63.6023 30.2941 56.445 30.2941C54.5164 30.2941 51.3877 30.0365 48.9877 29.4808V0.513832L52.5877 0V10.0554C54.045 9.2847 56.5303 8.60051 59.1877 8.60051C63.5163 8.60051 65.3163 11.125 65.3163 15.1045L65.317 22.5063ZM52.5877 26.8278C54.0024 27.0421 55.4164 27.128 56.7024 27.128C60.945 27.128 61.7163 25.4161 61.7163 22.6347V14.9753C61.7163 12.8362 60.7737 11.7666 58.331 11.7666C56.487 11.7666 54.0017 12.6651 52.5877 13.35V26.8278Z" fill="#27282F"/>
<path d="M74.7381 30.294C68.8817 30.294 66.5731 26.8652 66.5731 22.5489V16.5808C66.5731 12.2638 68.8817 8.83569 74.7381 8.83569C80.5932 8.83569 82.9024 12.2638 82.9024 16.5808V22.5489C82.9024 26.8652 80.5932 30.294 74.7381 30.294ZM74.7381 11.9241C71.604 11.9241 70.0363 13.4482 70.0363 16.453V22.674C70.0363 25.6795 71.6033 27.2036 74.7381 27.2036C77.8715 27.2036 79.4386 25.6795 79.4386 22.674V16.453C79.4386 13.4482 77.8722 11.9241 74.7381 11.9241Z" fill="#27282F"/>
<path d="M97.5414 8.65787C95.2154 8.2408 91.5584 9.2787 89.8126 10.1422L89.482 8.35938H86.6708V29.0317H90.1432V13.4106C92.2939 12.2643 95.2316 11.32 96.7196 11.3601C97.8124 11.3896 98.8258 12.2643 98.8258 13.2409V29.0317H102.299V13.2566C101.744 8.8356 97.54 8.61357 97.5414 8.65787Z" fill="#27282F"/>
</svg>
