<svg width="51" height="50" viewBox="0 0 51 50" fill="none" xmlns="http://www.w3.org/2000/svg">
<path d="M25.5473 0C18.9861 0 12.6878 2.60862 8.05211 7.24744C3.41251 11.8863 0.802734 18.1845 0.802734 24.7445C0.802734 31.3045 3.41251 37.6028 8.05211 42.2416C12.6878 46.8805 18.9861 49.4891 25.5473 49.4891C32.1084 49.4891 38.4067 46.8805 43.0424 42.2416C47.682 37.6028 50.2918 31.3045 50.2918 24.7445C50.2918 18.1845 47.682 11.8863 43.0424 7.24744C38.4067 2.60862 32.1084 0 25.5473 0Z" fill="url(#paint0_linear_1_27)"/>
<path d="M12.0032 24.483C19.2178 21.3405 24.0275 19.2685 26.4323 18.2675C33.3067 15.4091 34.7333 14.9127 35.6651 14.8961C35.87 14.8926 36.3262 14.9433 36.6239 15.1841C36.8714 15.3871 36.941 15.6616 36.9758 15.8542C37.0067 16.0467 37.0493 16.4855 37.0145 16.8281C36.6433 20.7408 35.0311 30.2358 34.2114 34.6183C33.8673 36.4726 33.1829 37.0943 32.5218 37.155C31.0835 37.2873 29.9932 36.2055 28.6013 35.2933C26.4245 33.8655 25.1951 32.977 23.0802 31.584C20.6367 29.974 22.2219 29.089 23.6137 27.643C23.9772 27.2645 30.3102 21.5056 30.43 20.9832C30.4455 20.9179 30.461 20.6743 30.3141 20.546C30.1711 20.4172 29.9583 20.4613 29.8036 20.4961C29.5833 20.5456 26.1074 22.8453 19.3645 27.3948C18.3786 28.0729 17.4855 28.4035 16.6813 28.3861C15.7998 28.3672 14.0987 27.8866 12.8344 27.476C11.2879 26.9722 10.0545 26.7058 10.1627 25.8502C10.2169 25.4048 10.8317 24.9489 12.0032 24.483Z" fill="white"/>
<defs>
<linearGradient id="paint0_linear_1_27" x1="25.5473" y1="0" x2="25.5473" y2="49.4891" gradientUnits="userSpaceOnUse">
<stop stop-color="#2AABEE"/>
<stop offset="1" stop-color="#229ED9"/>
</linearGradient>
</defs>
</svg>
