<svg width="50" height="50" viewBox="0 0 50 50" fill="none" xmlns="http://www.w3.org/2000/svg">
<circle cx="24.7445" cy="24.7445" r="24.7445" fill="white"/>
<path d="M35.2999 14.3258H14.9039V34.7218H35.2999V14.3258Z" fill="#ECEFF1"/>
<path d="M25.1018 26.6688L35.2998 34.7218V18.8231L25.1018 26.6688Z" fill="#CFD8DC"/>
<path d="M36.1495 14.3259H35.2997L25.1017 22.3789L14.9037 14.3259H14.0539C12.6466 14.3259 11.5044 15.4681 11.5044 16.8754V32.1724C11.5044 33.5797 12.6466 34.7219 14.0539 34.7219H14.9037V18.8232L25.1017 26.6672L35.2997 18.8215V34.7219H36.1495C37.5569 34.7219 38.699 33.5797 38.699 32.1724V16.8754C38.699 15.4681 37.5569 14.3259 36.1495 14.3259Z" fill="#F44336"/>
</svg>
