<svg width="50" height="50" viewBox="0 0 50 50" fill="none" xmlns="http://www.w3.org/2000/svg">
<path d="M29.8021 0.370162C41.9484 2.71443 50.2025 13.2732 49.7879 25.8265C49.4057 37.3996 40.074 47.4904 28.3221 48.9366C23.5289 49.5265 18.9172 48.7712 14.5204 46.6968C13.8915 46.4001 13.0165 46.3209 12.3379 46.4842C8.81989 47.3305 5.32912 48.2899 1.82746 49.2045C1.44373 49.3047 1.05105 49.3707 0.489258 49.4891C1.54042 45.6279 2.52241 41.9242 3.57019 38.2392C3.83626 37.3034 3.76284 36.5587 3.33383 35.6442C-0.753061 26.9318 -0.397122 18.3851 5.17045 10.4849C10.7548 2.5609 18.6332 -0.819843 28.3233 0.166969C28.7795 0.213425 29.2338 0.278703 29.8021 0.370162ZM45.1509 29.033C45.848 26.1766 45.9285 23.2821 45.2501 20.4413C43.205 11.8773 37.8952 6.32671 29.2634 4.57245C20.7928 2.85095 13.6827 5.71859 8.66586 12.7442C3.639 19.7839 3.53055 27.3312 7.67789 34.8928C8.21114 35.8651 8.35435 36.6621 8.02992 37.7016C7.43826 39.5974 6.97697 41.5339 6.39916 43.6847C8.79899 43.0607 10.9046 42.4599 13.0393 41.992C13.6425 41.8598 14.4344 41.9289 14.965 42.2221C27.1509 48.9555 41.6364 42.7443 45.1509 29.033Z" fill="#FCFEFD"/>
<path d="M45.1316 29.1471C41.636 42.7444 27.1506 48.9556 14.9646 42.2222C14.4341 41.929 13.6421 41.86 13.0389 41.9921C10.9042 42.46 8.79861 43.0608 6.39878 43.6848C6.9766 41.534 7.43789 39.5975 8.02955 37.7017C8.35398 36.6622 8.21076 35.8652 7.67752 34.8929C3.53018 27.3313 3.63862 19.784 8.66548 12.7443C13.6823 5.71871 20.7924 2.85106 29.263 4.57256C37.8948 6.32682 43.2047 11.8775 45.2497 20.4414C45.9281 23.2823 45.8476 26.1767 45.1316 29.1471ZM19.2458 14.6408C18.8145 14.1629 18.4544 13.3899 17.9379 13.2653C16.6549 12.956 15.4721 13.215 14.4999 14.3748C12.8471 16.3465 12.2825 18.5933 13.083 20.9213C13.7406 22.8336 14.789 24.6738 15.9632 26.3344C19.2879 31.0365 23.6278 34.4348 29.2689 35.9981C31.8766 36.7207 34.268 36.4131 36.3437 34.5595C37.4688 33.5548 37.8986 32.1779 37.5936 30.8234C37.4561 30.2128 36.3921 29.7688 35.6935 29.3385C34.994 28.9076 34.2406 28.5547 33.4854 28.2258C31.0858 27.1807 31.5622 27.1632 30.0475 29.0544C29.7898 29.376 29.4787 29.6605 29.2566 30.0038C28.7157 30.8397 28.0868 30.777 27.2559 30.4128C24.231 29.087 21.8355 27.0622 19.929 24.3631C19.102 23.1923 18.9287 22.326 20.084 21.3036C21.158 20.3532 21.3942 19.2203 20.6159 17.8705C20.0713 16.9261 19.7564 15.8492 19.2458 14.6408Z" fill="#26D367"/>
<path d="M19.2931 14.7362C19.7571 15.8493 20.072 16.9262 20.6166 17.8706C21.395 19.2203 21.1588 20.3532 20.0847 21.3037C18.9294 22.3261 19.1027 23.1924 19.9297 24.3632C21.8362 27.0623 24.2317 29.0871 27.2566 30.4129C28.0875 30.7771 28.7164 30.8398 29.2573 30.0039C29.4795 29.6606 29.7906 29.3761 30.0482 29.0545C31.5629 27.1632 31.0865 27.1808 33.4862 28.2259C34.2413 28.5548 34.9948 28.9077 35.6942 29.3386C36.3928 29.7689 37.4568 30.2129 37.5943 30.8235C37.8993 32.178 37.4696 33.5549 36.3445 34.5596C34.2687 36.4132 31.8773 36.7207 29.2697 35.9981C23.6285 34.4349 19.2887 31.0365 15.9639 26.3345C14.7897 24.6739 13.7413 22.8337 13.0837 20.9214C12.2833 18.5934 12.8478 16.3466 14.5006 14.3749C15.4728 13.2151 16.6556 12.9561 17.9386 13.2654C18.4551 13.39 18.8152 14.163 19.2931 14.7362Z" fill="#FCFEFD"/>
</svg>
