<svg width="499" height="524" viewBox="0 0 499 524" fill="none" xmlns="http://www.w3.org/2000/svg">
<rect width="499" height="524" fill="#EFEFFF"/>
<path d="M79 180.75H420.5" stroke="#8A81FF"/>
<path d="M79 126.75H420.5" stroke="#8A81FF"/>
<path d="M79 234.75H420.5" stroke="#8A81FF"/>
<path d="M79 288.75H420.5" stroke="#8A81FF"/>
<path d="M79 342.75H420.5" stroke="#8A81FF"/>
<path d="M79 396.75H420.5" stroke="#8A81FF"/>
<path d="M331 91L331 432.5" stroke="#8A81FF"/>
<path d="M385 91L385 432.5" stroke="#8A81FF"/>
<path d="M277 91L277 432.5" stroke="#8A81FF"/>
<path d="M223 91L223 432.5" stroke="#8A81FF"/>
<path d="M169 91L169 432.5" stroke="#8A81FF"/>
<path d="M115 91L115 432.5" stroke="#8A81FF"/>
<circle cx="169.331" cy="179.331" r="36.3309" fill="white"/>
<path d="M162.534 163.397C162.98 162.228 163.592 161.152 164.501 160.28C168.138 156.736 174.149 157.627 176.617 162.08C178.472 165.457 180.439 168.759 182.35 172.099C185.541 177.647 188.77 183.194 191.924 188.761C194.577 193.418 191.701 199.299 186.432 200.097C183.203 200.579 180.179 199.095 178.509 196.201C175.708 191.321 172.887 186.441 170.086 181.58C170.03 181.469 169.956 181.376 169.882 181.283C169.585 181.042 169.455 180.69 169.269 180.374C168.026 178.185 166.746 176.014 165.503 173.843C164.705 172.433 163.87 171.042 163.072 169.631C162.349 168.37 162.015 166.997 162.052 165.55C162.108 164.807 162.2 164.065 162.534 163.397Z" fill="#3C8BD9"/>
<path d="M162.534 163.397C162.367 164.065 162.219 164.733 162.182 165.438C162.126 166.997 162.516 168.444 163.295 169.798C165.336 173.305 167.377 176.83 169.399 180.356C169.585 180.671 169.733 180.986 169.919 181.283C168.806 183.213 167.692 185.124 166.56 187.054C165.002 189.744 163.443 192.453 161.866 195.143C161.792 195.143 161.774 195.106 161.755 195.05C161.736 194.902 161.792 194.772 161.829 194.624C162.59 191.84 161.959 189.373 160.048 187.258C158.879 185.977 157.395 185.254 155.688 185.013C153.461 184.697 151.495 185.272 149.732 186.664C149.417 186.905 149.213 187.258 148.841 187.443C148.767 187.443 148.73 187.406 148.712 187.35C149.602 185.81 150.474 184.27 151.365 182.73C155.038 176.348 158.712 169.965 162.404 163.601C162.442 163.527 162.497 163.471 162.534 163.397Z" fill="#FABC04"/>
<path d="M148.786 187.406C149.138 187.091 149.472 186.757 149.843 186.46C154.352 182.898 161.124 185.477 162.107 191.117C162.349 192.472 162.219 193.77 161.811 195.069C161.792 195.18 161.773 195.273 161.736 195.384C161.569 195.681 161.421 195.997 161.235 196.294C159.584 199.021 157.154 200.376 153.962 200.171C150.307 199.912 147.431 197.166 146.93 193.529C146.689 191.766 147.042 190.115 147.951 188.594C148.136 188.26 148.359 187.963 148.563 187.629C148.656 187.555 148.619 187.406 148.786 187.406Z" fill="#34A852"/>
<path d="M148.786 187.406C148.712 187.48 148.712 187.61 148.582 187.629C148.563 187.499 148.638 187.425 148.712 187.332L148.786 187.406Z" fill="#FABC04"/>
<path d="M161.736 195.384C161.662 195.254 161.736 195.161 161.81 195.069C161.829 195.087 161.866 195.124 161.884 195.143L161.736 195.384Z" fill="#E1C025"/>
<circle cx="331.331" cy="344.331" r="36.3309" fill="white"/>
<path d="M314.477 329.898C314.477 328.561 315.589 327.477 316.959 327.477H345.584C346.955 327.477 348.066 328.561 348.066 329.898V358.857C348.066 360.195 346.955 361.279 345.584 361.279H316.959C315.589 361.279 314.477 360.195 314.477 358.857V329.898Z" fill="#006699"/>
<path fill-rule="evenodd" clip-rule="evenodd" d="M324.658 355.773V340.509H319.585V355.773H324.658ZM322.122 338.425C323.891 338.425 324.992 337.253 324.992 335.789C324.959 334.291 323.891 333.151 322.155 333.151C320.42 333.151 319.285 334.291 319.285 335.789C319.285 337.253 320.386 338.425 322.088 338.425H322.122Z" fill="white"/>
<path fill-rule="evenodd" clip-rule="evenodd" d="M327.466 355.773H332.539V347.249C332.539 346.793 332.572 346.337 332.706 346.011C333.073 345.1 333.908 344.156 335.309 344.156C337.145 344.156 337.879 345.555 337.879 347.607V355.773H342.952V347.021C342.952 342.333 340.449 340.151 337.111 340.151C334.375 340.151 333.173 341.681 332.505 342.723H332.539V340.509H327.466C327.533 341.942 327.466 355.773 327.466 355.773Z" fill="white"/>
<circle cx="169.331" cy="343.331" r="36.3309" fill="white"/>
<path d="M165.994 363.354C156.387 361.635 149.106 353.343 149.106 343.331C149.106 332.207 158.208 323.105 169.332 323.105C180.456 323.105 189.558 332.207 189.558 343.331C189.558 353.343 182.276 361.635 172.669 363.354L171.557 362.444H167.107L165.994 363.354Z" fill="url(#paint0_linear_5_10194)"/>
<path d="M177.218 348.995L178.128 343.332H172.768V339.388C172.768 337.77 173.375 336.556 175.802 336.556H178.431V331.398C177.016 331.196 175.398 330.994 173.982 330.994C169.33 330.994 166.094 333.826 166.094 338.882V343.332H161.037V348.995H166.094V363.254C167.206 363.456 168.319 363.557 169.431 363.557C170.543 363.557 171.656 363.456 172.768 363.254V348.995H177.218Z" fill="white"/>
<circle cx="331.331" cy="179.331" r="36.3309" fill="white"/>
<path d="M352.412 168.754C351.909 166.872 350.429 165.393 348.547 164.889C345.139 163.975 331.468 163.975 331.468 163.975C331.468 163.975 317.796 163.975 314.388 164.889C312.506 165.393 311.027 166.872 310.523 168.754C309.609 172.162 309.609 179.276 309.609 179.276C309.609 179.276 309.609 186.391 310.523 189.799C311.027 191.681 312.506 193.16 314.388 193.664C317.796 194.578 331.468 194.578 331.468 194.578C331.468 194.578 345.139 194.578 348.547 193.664C350.429 193.16 351.909 191.681 352.412 189.799C353.326 186.391 353.326 179.276 353.326 179.276C353.326 179.276 353.323 172.162 352.412 168.754Z" fill="#FF0000"/>
<path d="M327.092 185.833L338.449 179.277L327.092 172.72V185.833Z" fill="white"/>
<defs>
<linearGradient id="paint0_linear_5_10194" x1="169.333" y1="362.15" x2="169.333" y2="323.098" gradientUnits="userSpaceOnUse">
<stop stop-color="#0062E0"/>
<stop offset="1" stop-color="#19AFFF"/>
</linearGradient>
</defs>
</svg>
