<svg width="499" height="524" viewBox="0 0 499 524" fill="none" xmlns="http://www.w3.org/2000/svg">
<rect width="499" height="524" fill="#EFEFFF"/>
<rect x="81" y="212" width="99" height="99" fill="#8A81FF"/>
<path d="M125.333 259C125.161 258.474 124.935 258.003 124.653 257.586C124.377 257.164 124.047 256.805 123.661 256.508C123.281 256.211 122.849 255.984 122.364 255.828C121.88 255.672 121.349 255.594 120.771 255.594C119.823 255.594 118.961 255.839 118.185 256.328C117.409 256.818 116.791 257.539 116.333 258.492C115.875 259.445 115.646 260.615 115.646 262C115.646 263.385 115.877 264.555 116.341 265.508C116.804 266.461 117.432 267.182 118.224 267.672C119.015 268.161 119.906 268.406 120.896 268.406C121.812 268.406 122.619 268.211 123.317 267.82C124.021 267.424 124.567 266.867 124.958 266.148C125.354 265.424 125.552 264.573 125.552 263.594L126.146 263.719H121.333V262H127.427V263.719C127.427 265.036 127.146 266.182 126.583 267.156C126.026 268.13 125.255 268.885 124.271 269.422C123.291 269.953 122.166 270.219 120.896 270.219C119.479 270.219 118.234 269.885 117.161 269.219C116.093 268.552 115.26 267.604 114.661 266.375C114.067 265.146 113.771 263.687 113.771 262C113.771 260.734 113.94 259.596 114.278 258.586C114.622 257.57 115.106 256.706 115.731 255.992C116.356 255.279 117.096 254.732 117.95 254.352C118.804 253.971 119.744 253.781 120.771 253.781C121.614 253.781 122.401 253.909 123.13 254.164C123.864 254.414 124.518 254.771 125.091 255.234C125.669 255.693 126.151 256.242 126.536 256.883C126.922 257.518 127.187 258.224 127.333 259H125.333ZM132.683 254V270H130.745V254H132.683ZM136.567 270V254H146.161V255.719H138.505V261.125H145.442V262.844H138.505V270H136.567Z" fill="#DFDCFF"/>
<rect x="200" y="212" width="99" height="99" fill="#8A81FF"/>
<path d="M227.111 254H229.424L234.861 267.281H235.049L240.486 254H242.799V270H240.986V257.844H240.83L235.83 270H234.08L229.08 257.844H228.924V270H227.111V254ZM246.684 270V254H252.09C253.345 254 254.371 254.227 255.168 254.68C255.97 255.128 256.564 255.734 256.949 256.5C257.335 257.266 257.527 258.12 257.527 259.062C257.527 260.005 257.335 260.862 256.949 261.633C256.569 262.404 255.98 263.018 255.184 263.477C254.387 263.93 253.366 264.156 252.121 264.156H248.246V262.438H252.059C252.918 262.438 253.608 262.289 254.129 261.992C254.65 261.695 255.027 261.294 255.262 260.789C255.501 260.279 255.621 259.703 255.621 259.062C255.621 258.422 255.501 257.849 255.262 257.344C255.027 256.839 254.647 256.443 254.121 256.156C253.595 255.865 252.897 255.719 252.027 255.719H248.621V270H246.684ZM259.992 266.719V265.125L267.023 254H268.18V256.469H267.398L262.086 264.875V265H271.555V266.719H259.992ZM267.523 270V266.234V265.492V254H269.367V270H267.523Z" fill="#DFDCFF"/>
<rect x="319" y="212" width="99" height="99" fill="#8A81FF"/>
<path d="M346.892 270H344.86L350.735 254H352.735L358.61 270H356.579L351.798 256.531H351.673L346.892 270ZM347.642 263.75H355.829V265.469H347.642V263.75ZM361.103 254H363.415L368.853 267.281H369.04L374.478 254H376.79V270H374.978V257.844H374.821L369.821 270H368.071L363.071 257.844H362.915V270H361.103V254ZM380.675 270V254H386.081C387.336 254 388.362 254.227 389.159 254.68C389.961 255.128 390.555 255.734 390.94 256.5C391.326 257.266 391.519 258.12 391.519 259.062C391.519 260.005 391.326 260.862 390.94 261.633C390.56 262.404 389.972 263.018 389.175 263.477C388.378 263.93 387.357 264.156 386.112 264.156H382.237V262.438H386.05C386.909 262.438 387.599 262.289 388.12 261.992C388.641 261.695 389.019 261.294 389.253 260.789C389.493 260.279 389.612 259.703 389.612 259.062C389.612 258.422 389.493 257.849 389.253 257.344C389.019 256.839 388.638 256.443 388.112 256.156C387.586 255.865 386.888 255.719 386.019 255.719H382.612V270H380.675Z" fill="#DFDCFF"/>
<rect x="81" y="92" width="99" height="99" fill="#8A81FF"/>
<path d="M117.433 134H119.37V145.437C119.37 146.458 119.183 147.326 118.808 148.039C118.433 148.753 117.904 149.294 117.222 149.664C116.539 150.034 115.735 150.219 114.808 150.219C113.933 150.219 113.154 150.06 112.472 149.742C111.789 149.419 111.253 148.961 110.862 148.367C110.472 147.773 110.276 147.068 110.276 146.25H112.183C112.183 146.703 112.295 147.099 112.519 147.437C112.748 147.771 113.06 148.031 113.456 148.219C113.852 148.406 114.302 148.5 114.808 148.5C115.365 148.5 115.839 148.383 116.229 148.148C116.62 147.914 116.917 147.57 117.12 147.117C117.328 146.659 117.433 146.099 117.433 145.437V134ZM123.253 150V134H128.659C129.914 134 130.94 134.227 131.737 134.68C132.539 135.128 133.133 135.734 133.519 136.5C133.904 137.266 134.097 138.12 134.097 139.062C134.097 140.005 133.904 140.862 133.519 141.633C133.138 142.404 132.55 143.018 131.753 143.477C130.956 143.93 129.935 144.156 128.69 144.156H124.815V142.438H128.628C129.487 142.438 130.177 142.289 130.698 141.992C131.219 141.695 131.597 141.294 131.831 140.789C132.071 140.279 132.19 139.703 132.19 139.062C132.19 138.422 132.071 137.849 131.831 137.344C131.597 136.839 131.216 136.443 130.69 136.156C130.164 135.865 129.466 135.719 128.597 135.719H125.19V150H123.253ZM148.155 139C147.983 138.474 147.757 138.003 147.476 137.586C147.2 137.164 146.869 136.805 146.483 136.508C146.103 136.211 145.671 135.984 145.187 135.828C144.702 135.672 144.171 135.594 143.593 135.594C142.645 135.594 141.783 135.839 141.007 136.328C140.231 136.818 139.614 137.539 139.155 138.492C138.697 139.445 138.468 140.615 138.468 142C138.468 143.385 138.7 144.555 139.163 145.508C139.627 146.461 140.254 147.182 141.046 147.672C141.838 148.161 142.728 148.406 143.718 148.406C144.634 148.406 145.442 148.211 146.14 147.82C146.843 147.424 147.39 146.867 147.78 146.148C148.176 145.424 148.374 144.573 148.374 143.594L148.968 143.719H144.155V142H150.249V143.719C150.249 145.036 149.968 146.182 149.405 147.156C148.848 148.13 148.077 148.885 147.093 149.422C146.114 149.953 144.989 150.219 143.718 150.219C142.301 150.219 141.056 149.885 139.983 149.219C138.916 148.552 138.082 147.604 137.483 146.375C136.89 145.146 136.593 143.687 136.593 142C136.593 140.734 136.762 139.596 137.101 138.586C137.444 137.57 137.929 136.706 138.554 135.992C139.179 135.279 139.918 134.732 140.772 134.352C141.627 133.971 142.567 133.781 143.593 133.781C144.437 133.781 145.223 133.909 145.952 134.164C146.687 134.414 147.34 134.771 147.913 135.234C148.491 135.693 148.973 136.242 149.358 136.883C149.744 137.518 150.009 138.224 150.155 139H148.155Z" fill="#DFDCFF"/>
<rect x="200" y="92" width="99" height="99" fill="#8A81FF"/>
<path d="M227.998 150V134H233.404C234.66 134 235.686 134.227 236.482 134.68C237.285 135.128 237.878 135.734 238.264 136.5C238.649 137.266 238.842 138.12 238.842 139.062C238.842 140.005 238.649 140.862 238.264 141.633C237.883 142.404 237.295 143.018 236.498 143.477C235.701 143.93 234.68 144.156 233.436 144.156H229.561V142.438H233.373C234.232 142.438 234.923 142.289 235.443 141.992C235.964 141.695 236.342 141.294 236.576 140.789C236.816 140.279 236.936 139.703 236.936 139.062C236.936 138.422 236.816 137.849 236.576 137.344C236.342 136.839 235.962 136.443 235.436 136.156C234.91 135.865 234.212 135.719 233.342 135.719H229.936V150H227.998ZM254.65 134V150H252.775L244.057 137.437H243.9V150H241.963V134H243.838L252.588 146.594H252.744V134H254.65ZM269.465 139C269.293 138.474 269.066 138.003 268.785 137.586C268.509 137.164 268.178 136.805 267.793 136.508C267.413 136.211 266.98 135.984 266.496 135.828C266.012 135.672 265.48 135.594 264.902 135.594C263.954 135.594 263.092 135.839 262.316 136.328C261.54 136.818 260.923 137.539 260.465 138.492C260.007 139.445 259.777 140.615 259.777 142C259.777 143.385 260.009 144.555 260.473 145.508C260.936 146.461 261.564 147.182 262.355 147.672C263.147 148.161 264.038 148.406 265.027 148.406C265.944 148.406 266.751 148.211 267.449 147.82C268.152 147.424 268.699 146.867 269.09 146.148C269.486 145.424 269.684 144.573 269.684 143.594L270.277 143.719H265.465V142H271.559V143.719C271.559 145.036 271.277 146.182 270.715 147.156C270.158 148.13 269.387 148.885 268.402 149.422C267.423 149.953 266.298 150.219 265.027 150.219C263.611 150.219 262.366 149.885 261.293 149.219C260.225 148.552 259.392 147.604 258.793 146.375C258.199 145.146 257.902 143.687 257.902 142C257.902 140.734 258.072 139.596 258.41 138.586C258.754 137.57 259.238 136.706 259.863 135.992C260.488 135.279 261.228 134.732 262.082 134.352C262.936 133.971 263.876 133.781 264.902 133.781C265.746 133.781 266.533 133.909 267.262 134.164C267.996 134.414 268.65 134.771 269.223 135.234C269.801 135.693 270.283 136.242 270.668 136.883C271.053 137.518 271.319 138.224 271.465 139H269.465Z" fill="#DFDCFF"/>
<rect x="319" y="92" width="99" height="99" fill="#8A81FF"/>
<path d="M349.366 150V134H359.022V135.719H351.304V141.125H358.522V142.844H351.304V148.281H359.147V150H349.366ZM362.515 150V134H367.921C369.176 134 370.202 134.227 370.999 134.68C371.801 135.128 372.395 135.734 372.78 136.5C373.166 137.266 373.358 138.12 373.358 139.062C373.358 140.005 373.166 140.862 372.78 141.633C372.4 142.404 371.812 143.018 371.015 143.477C370.218 143.93 369.197 144.156 367.952 144.156H364.077V142.438H367.89C368.749 142.438 369.439 142.289 369.96 141.992C370.481 141.695 370.858 141.294 371.093 140.789C371.332 140.279 371.452 139.703 371.452 139.062C371.452 138.422 371.332 137.849 371.093 137.344C370.858 136.839 370.478 136.443 369.952 136.156C369.426 135.865 368.728 135.719 367.858 135.719H364.452V150H362.515ZM385.229 138C385.136 137.208 384.756 136.594 384.089 136.156C383.422 135.719 382.604 135.5 381.636 135.5C380.927 135.5 380.308 135.615 379.776 135.844C379.25 136.073 378.839 136.388 378.542 136.789C378.25 137.19 378.104 137.646 378.104 138.156C378.104 138.583 378.206 138.951 378.409 139.258C378.618 139.56 378.883 139.812 379.206 140.016C379.529 140.214 379.868 140.378 380.222 140.508C380.576 140.633 380.901 140.734 381.198 140.812L382.823 141.25C383.24 141.359 383.703 141.51 384.214 141.703C384.729 141.896 385.222 142.159 385.69 142.492C386.164 142.82 386.555 143.242 386.862 143.758C387.17 144.273 387.323 144.906 387.323 145.656C387.323 146.521 387.097 147.302 386.644 148C386.196 148.698 385.539 149.253 384.675 149.664C383.815 150.076 382.771 150.281 381.542 150.281C380.396 150.281 379.404 150.096 378.565 149.727C377.732 149.357 377.076 148.841 376.597 148.18C376.123 147.518 375.854 146.75 375.792 145.875H377.792C377.844 146.479 378.047 146.979 378.401 147.375C378.761 147.766 379.214 148.057 379.761 148.25C380.313 148.437 380.907 148.531 381.542 148.531C382.282 148.531 382.946 148.411 383.534 148.172C384.123 147.927 384.589 147.589 384.933 147.156C385.276 146.719 385.448 146.208 385.448 145.625C385.448 145.094 385.3 144.661 385.003 144.328C384.706 143.995 384.315 143.724 383.831 143.516C383.347 143.307 382.823 143.125 382.261 142.969L380.292 142.406C379.042 142.047 378.052 141.534 377.323 140.867C376.594 140.201 376.229 139.328 376.229 138.25C376.229 137.354 376.472 136.573 376.956 135.906C377.446 135.234 378.102 134.714 378.925 134.344C379.753 133.969 380.677 133.781 381.698 133.781C382.729 133.781 383.646 133.966 384.448 134.336C385.25 134.701 385.886 135.201 386.354 135.836C386.828 136.471 387.078 137.193 387.104 138H385.229Z" fill="#DFDCFF"/>
<rect x="81" y="332" width="99" height="99" fill="#8A81FF"/>
<path d="M114.396 390V374H123.989V375.719H116.333V381.125H123.271V382.844H116.333V390H114.396ZM129.245 374V390H127.308V374H129.245ZM144.067 379C143.896 378.474 143.669 378.003 143.388 377.586C143.112 377.164 142.781 376.805 142.396 376.508C142.015 376.211 141.583 375.984 141.099 375.828C140.614 375.672 140.083 375.594 139.505 375.594C138.557 375.594 137.695 375.839 136.919 376.328C136.143 376.818 135.526 377.539 135.067 378.492C134.609 379.445 134.38 380.615 134.38 382C134.38 383.385 134.612 384.555 135.075 385.508C135.539 386.461 136.166 387.182 136.958 387.672C137.75 388.161 138.64 388.406 139.63 388.406C140.547 388.406 141.354 388.211 142.052 387.82C142.755 387.424 143.302 386.867 143.692 386.148C144.088 385.424 144.286 384.573 144.286 383.594L144.88 383.719H140.067V382H146.161V383.719C146.161 385.036 145.88 386.182 145.317 387.156C144.76 388.13 143.989 388.885 143.005 389.422C142.026 389.953 140.901 390.219 139.63 390.219C138.213 390.219 136.968 389.885 135.896 389.219C134.828 388.552 133.994 387.604 133.396 386.375C132.802 385.146 132.505 383.687 132.505 382C132.505 380.734 132.674 379.596 133.013 378.586C133.356 377.57 133.841 376.706 134.466 375.992C135.091 375.279 135.83 374.732 136.685 374.352C137.539 373.971 138.479 373.781 139.505 373.781C140.349 373.781 141.135 373.909 141.864 374.164C142.599 374.414 143.252 374.771 143.825 375.234C144.403 375.693 144.885 376.242 145.271 376.883C145.656 377.518 145.922 378.224 146.067 379H144.067Z" fill="#DFDCFF"/>
<rect x="200" y="332" width="99" height="99" fill="#8A81FF"/>
<path d="M213.071 390V374H215.009V381.125H223.54V374H225.478V390H223.54V382.844H215.009V390H213.071ZM228.481 375.719V374H240.481V375.719H235.45V390H233.513V375.719H228.481ZM243.472 374H245.784L251.222 387.281H251.409L256.847 374H259.159V390H257.347V377.844H257.19L252.19 390H250.44L245.44 377.844H245.284V390H243.472V374ZM263.044 390V374H264.981V388.281H272.419V390H263.044ZM280.138 390.219C279.221 390.219 278.396 390.036 277.661 389.672C276.927 389.307 276.338 388.807 275.896 388.172C275.453 387.536 275.211 386.812 275.169 386H277.044C277.117 386.724 277.445 387.323 278.028 387.797C278.617 388.266 279.32 388.5 280.138 388.5C280.794 388.5 281.377 388.346 281.888 388.039C282.403 387.732 282.807 387.31 283.099 386.773C283.396 386.232 283.544 385.62 283.544 384.937C283.544 384.24 283.39 383.617 283.083 383.07C282.781 382.518 282.364 382.083 281.833 381.766C281.302 381.448 280.695 381.286 280.013 381.281C279.523 381.276 279.021 381.352 278.505 381.508C277.989 381.659 277.565 381.854 277.231 382.094L275.419 381.875L276.388 374H284.7V375.719H278.013L277.45 380.437H277.544C277.872 380.177 278.284 379.961 278.778 379.789C279.273 379.617 279.789 379.531 280.325 379.531C281.304 379.531 282.177 379.766 282.942 380.234C283.713 380.698 284.317 381.333 284.755 382.141C285.198 382.948 285.419 383.87 285.419 384.906C285.419 385.927 285.19 386.839 284.731 387.641C284.278 388.437 283.653 389.068 282.856 389.531C282.06 389.99 281.153 390.219 280.138 390.219Z" fill="#DFDCFF"/>
<rect x="319" y="332" width="99" height="99" fill="#8A81FF"/>
<path d="M348.034 390V374H353.44C354.696 374 355.722 374.227 356.519 374.68C357.321 375.128 357.914 375.734 358.3 376.5C358.685 377.266 358.878 378.12 358.878 379.062C358.878 380.005 358.685 380.862 358.3 381.633C357.92 382.404 357.331 383.018 356.534 383.477C355.737 383.93 354.716 384.156 353.472 384.156H349.597V382.438H353.409C354.269 382.438 354.959 382.289 355.479 381.992C356 381.695 356.378 381.294 356.612 380.789C356.852 380.279 356.972 379.703 356.972 379.062C356.972 378.422 356.852 377.849 356.612 377.344C356.378 376.839 355.998 376.443 355.472 376.156C354.946 375.865 354.248 375.719 353.378 375.719H349.972V390H348.034ZM370.749 378C370.655 377.208 370.275 376.594 369.608 376.156C368.942 375.719 368.124 375.5 367.155 375.5C366.447 375.5 365.827 375.615 365.296 375.844C364.77 376.073 364.358 376.388 364.062 376.789C363.77 377.19 363.624 377.646 363.624 378.156C363.624 378.583 363.726 378.951 363.929 379.258C364.137 379.56 364.403 379.812 364.726 380.016C365.049 380.214 365.387 380.378 365.741 380.508C366.095 380.633 366.421 380.734 366.718 380.812L368.343 381.25C368.759 381.359 369.223 381.51 369.733 381.703C370.249 381.896 370.741 382.159 371.21 382.492C371.684 382.82 372.075 383.242 372.382 383.758C372.689 384.273 372.843 384.906 372.843 385.656C372.843 386.521 372.616 387.302 372.163 388C371.715 388.698 371.059 389.253 370.194 389.664C369.335 390.076 368.291 390.281 367.062 390.281C365.916 390.281 364.924 390.096 364.085 389.727C363.252 389.357 362.595 388.841 362.116 388.18C361.642 387.518 361.374 386.75 361.312 385.875H363.312C363.364 386.479 363.567 386.979 363.921 387.375C364.28 387.766 364.733 388.057 365.28 388.25C365.832 388.437 366.426 388.531 367.062 388.531C367.801 388.531 368.465 388.411 369.054 388.172C369.642 387.927 370.108 387.589 370.452 387.156C370.796 386.719 370.968 386.208 370.968 385.625C370.968 385.094 370.819 384.661 370.522 384.328C370.226 383.995 369.835 383.724 369.351 383.516C368.866 383.307 368.343 383.125 367.78 382.969L365.812 382.406C364.562 382.047 363.572 381.534 362.843 380.867C362.114 380.201 361.749 379.328 361.749 378.25C361.749 377.354 361.991 376.573 362.476 375.906C362.965 375.234 363.621 374.714 364.444 374.344C365.272 373.969 366.197 373.781 367.218 373.781C368.249 373.781 369.166 373.966 369.968 374.336C370.77 374.701 371.405 375.201 371.874 375.836C372.348 376.471 372.598 377.193 372.624 378H370.749ZM380.966 390H376.028V374H381.185C382.737 374 384.065 374.32 385.169 374.961C386.273 375.596 387.119 376.51 387.708 377.703C388.297 378.891 388.591 380.312 388.591 381.969C388.591 383.635 388.294 385.07 387.7 386.273C387.106 387.471 386.242 388.393 385.106 389.039C383.971 389.68 382.591 390 380.966 390ZM377.966 388.281H380.841C382.164 388.281 383.26 388.026 384.13 387.516C385 387.005 385.648 386.279 386.075 385.336C386.502 384.393 386.716 383.271 386.716 381.969C386.716 380.677 386.505 379.565 386.083 378.633C385.661 377.695 385.031 376.977 384.192 376.477C383.354 375.971 382.31 375.719 381.06 375.719H377.966V388.281Z" fill="#DFDCFF"/>
</svg>
