<svg width="499" height="524" viewBox="0 0 499 524" fill="none" xmlns="http://www.w3.org/2000/svg">
<rect width="499" height="524" fill="#EFEFFF"/>
<path d="M246.475 320.045L283.135 250.25H254.935V204.19L216.63 273.75H246.475V320.045ZM250 356C237.153 356 225.012 353.533 213.575 348.598C202.138 343.663 192.151 336.926 183.612 328.387C175.074 319.849 168.337 309.862 163.403 298.425C158.467 286.988 156 274.847 156 262C156 248.997 158.467 236.777 163.403 225.34C168.337 213.903 175.074 203.955 183.612 195.495C192.151 187.035 202.138 180.337 213.575 175.403C225.012 170.467 237.153 168 250 168C263.003 168 275.223 170.467 286.66 175.403C298.097 180.337 308.045 187.035 316.505 195.495C324.965 203.955 331.663 213.903 336.598 225.34C341.533 236.777 344 248.997 344 262C344 274.847 341.533 286.988 336.598 298.425C331.663 309.862 324.965 319.849 316.505 328.387C308.045 336.926 298.097 343.663 286.66 348.598C275.223 353.533 263.003 356 250 356Z" fill="#8A81FF"/>
</svg>
